<svg width="809" height="518" viewBox="0 0 809 518" fill="none" xmlns="http://www.w3.org/2000/svg">
<path d="M708.128 130.136C580.59 227.67 478.11 334.915 415.516 429.437C384.216 476.702 362.915 520.748 353.421 558.781C343.926 596.819 346.266 628.725 362.075 651.863C377.885 675.001 405.787 687.358 442.906 689.749C480.019 692.14 526.233 684.554 578.471 667.935C682.939 634.698 811.335 565.383 938.874 467.85C1066.41 370.316 1168.89 263.071 1231.49 168.549C1262.79 121.284 1284.09 77.2379 1293.58 39.2052C1303.08 1.1668 1300.74 -30.7392 1284.93 -53.8771C1269.12 -77.015 1241.21 -89.3726 1204.1 -91.7634C1166.98 -94.1538 1120.77 -86.5684 1068.53 -69.949C964.062 -36.7123 835.667 32.6025 708.128 130.136Z" stroke="url(#paint0_linear_8965_1324)" stroke-width="1.55132"/>
<path d="M704.806 132.717C578.629 232.2 477.755 340.919 416.655 436.251C386.103 483.92 365.52 528.204 356.673 566.284C347.824 604.37 350.737 636.132 367 658.916C383.264 681.7 411.465 693.524 448.733 695.25C485.995 696.975 532.208 688.595 584.301 671.103C688.481 636.122 816.018 564.753 942.195 465.27C1068.37 365.787 1169.25 257.067 1230.35 161.736C1260.9 114.067 1281.48 69.7829 1290.33 31.7027C1299.18 -6.38329 1296.26 -38.146 1280 -60.9297C1263.74 -83.7133 1235.54 -95.5375 1198.27 -97.2633C1161.01 -98.9888 1114.79 -90.609 1062.7 -73.117C958.52 -38.1354 830.983 33.2336 704.806 132.717Z" stroke="url(#paint1_linear_8965_1324)" stroke-width="1.55132"/>
<path d="M701.521 135.346C576.744 236.749 477.506 346.91 417.919 443.021C388.123 491.08 368.266 535.588 360.068 573.704C351.868 611.826 355.352 643.436 372.065 665.858C388.779 688.281 417.27 699.568 454.676 700.628C492.075 701.688 538.272 692.517 590.205 674.157C694.064 637.442 820.703 564.04 945.481 462.638C1070.26 361.236 1169.5 251.074 1229.08 154.963C1258.88 106.904 1278.74 62.3965 1286.93 24.2805C1295.13 -13.8416 1291.65 -45.4514 1274.94 -67.874C1258.22 -90.2966 1229.73 -101.584 1192.33 -102.644C1154.93 -103.704 1108.73 -94.5323 1056.8 -76.1731C952.938 -39.4572 826.299 33.9442 701.521 135.346Z" stroke="url(#paint2_linear_8965_1324)" stroke-width="1.55132"/>
<path d="M698.273 138.027C574.934 241.318 477.361 352.887 419.306 449.749C390.276 498.183 371.15 542.901 363.603 581.042C356.055 619.188 360.109 650.636 377.267 672.69C394.425 694.745 423.198 705.492 460.73 705.886C498.256 706.281 544.422 696.32 596.18 677.099C699.687 638.66 825.389 563.248 948.729 459.958C1072.07 356.668 1169.64 245.098 1227.7 148.236C1256.73 99.8023 1275.85 55.084 1283.4 16.9436C1290.95 -21.2028 1286.89 -52.6501 1269.73 -74.7049C1252.58 -96.7598 1223.8 -107.507 1186.27 -107.901C1148.75 -108.295 1102.58 -98.3342 1050.82 -79.1134C947.315 -40.6744 821.613 34.7371 698.273 138.027Z" stroke="url(#paint3_linear_8965_1324)" stroke-width="1.55132"/>
<path d="M695.063 140.757C573.199 245.905 477.323 358.848 420.816 456.431C392.561 505.225 374.172 550.141 367.279 588.294C360.385 626.453 365.008 657.728 382.605 679.408C400.203 701.089 429.248 711.292 466.895 711.02C504.536 710.749 550.658 700.002 602.224 679.925C705.348 639.775 830.075 562.376 951.939 457.229C1073.8 352.082 1169.68 239.138 1226.19 141.556C1254.44 92.761 1272.83 47.8458 1279.72 9.69283C1286.62 -28.4663 1282 -59.7416 1264.4 -81.4221C1246.8 -103.103 1217.75 -113.306 1180.11 -113.034C1142.47 -112.762 1096.34 -102.015 1044.78 -81.9387C941.655 -41.7884 816.927 35.6103 695.063 140.757Z" stroke="url(#paint4_linear_8965_1324)" stroke-width="1.55132"/>
<path d="M691.892 143.534C571.54 250.506 477.389 364.79 422.449 463.063C394.976 512.204 377.33 557.302 371.093 595.456C364.855 633.616 370.045 664.71 388.077 686.01C406.109 707.309 435.418 716.965 473.168 716.028C510.912 715.09 556.977 703.56 608.335 682.634C711.044 640.785 834.758 561.423 955.11 454.451C1075.46 347.479 1169.61 233.196 1224.55 134.922C1252.03 85.7816 1269.67 40.6833 1275.91 2.52929C1282.15 -35.6309 1276.96 -66.7248 1258.92 -88.0243C1240.89 -109.324 1211.58 -118.98 1173.83 -118.043C1136.09 -117.105 1090.02 -105.575 1038.67 -84.6491C935.958 -42.7996 812.243 36.5626 691.892 143.534Z" stroke="url(#paint5_linear_8965_1324)" stroke-width="1.55132"/>
<path d="M688.761 146.359C569.959 255.123 477.561 370.712 424.204 469.647C397.523 519.117 380.625 564.385 375.046 602.528C369.466 640.678 375.222 671.581 393.682 692.493C412.143 713.406 441.707 722.512 479.549 720.909C517.385 719.306 563.377 706.997 614.512 685.227C716.774 641.691 839.439 560.39 958.241 451.626C1077.04 342.862 1169.44 227.274 1222.8 128.339C1249.48 78.8679 1266.38 33.6002 1271.96 -4.5432C1277.54 -42.6929 1271.78 -73.5958 1253.32 -94.5081C1234.86 -115.42 1205.3 -124.527 1167.45 -122.924C1129.62 -121.321 1083.62 -109.011 1032.49 -87.242C930.228 -43.7062 807.563 37.5954 688.761 146.359Z" stroke="url(#paint6_linear_8965_1324)" stroke-width="1.55132"/>
<path d="M685.672 149.23C568.455 259.753 477.84 376.611 426.082 476.177C400.201 525.963 384.056 571.386 379.136 609.507C374.216 647.635 380.536 678.338 399.419 698.856C418.303 719.375 448.113 727.929 486.035 725.66C523.951 723.392 569.858 710.308 620.754 687.702C722.539 642.493 844.115 559.277 961.332 448.754C1078.55 338.231 1169.16 221.373 1220.92 121.807C1246.8 72.0204 1262.95 26.597 1267.87 -11.524C1272.79 -49.6515 1266.47 -80.3542 1247.58 -100.873C1228.7 -121.392 1198.89 -129.946 1160.97 -127.677C1123.05 -125.409 1077.15 -112.324 1026.25 -89.7183C924.465 -44.5094 802.889 38.7068 685.672 149.23Z" stroke="url(#paint7_linear_8965_1324)" stroke-width="1.55132"/>
<path d="M682.622 152.147C567.027 264.395 478.221 382.487 428.078 482.654C403.004 532.741 387.618 578.306 383.359 616.393C379.1 654.487 385.982 684.98 405.283 705.099C424.585 725.218 454.631 733.217 492.622 730.284C530.607 727.351 576.414 713.495 627.055 690.059C728.332 643.191 848.783 558.086 964.379 445.837C1079.97 333.589 1168.78 215.497 1218.92 115.33C1244 65.2437 1259.38 19.6785 1263.64 -18.4087C1267.9 -56.5023 1261.02 -86.9955 1241.72 -107.114C1222.42 -127.233 1192.37 -135.232 1154.38 -132.299C1116.39 -129.367 1070.59 -115.511 1019.95 -92.0748C918.67 -45.2066 798.218 39.8988 682.622 152.147Z" stroke="url(#paint8_linear_8965_1324)" stroke-width="1.55132"/>
<path d="M679.618 155.108C565.679 269.048 478.71 388.337 430.197 489.074C405.938 539.446 391.315 585.139 387.719 623.181C384.122 661.229 391.563 691.503 411.277 711.217C430.99 730.93 461.264 738.371 499.312 734.774C537.354 731.179 583.047 716.555 633.419 692.297C734.156 643.783 853.446 556.815 967.385 442.875C1081.32 328.936 1168.29 209.646 1216.81 108.909C1241.06 58.5375 1255.69 12.8444 1259.28 -25.1973C1262.88 -63.2454 1255.44 -93.5199 1235.73 -113.233C1216.01 -132.946 1185.74 -140.388 1147.69 -136.791C1109.65 -133.195 1063.96 -118.571 1013.58 -94.3131C912.847 -45.7998 793.557 41.1689 679.618 155.108Z" stroke="url(#paint9_linear_8965_1324)" stroke-width="1.55132"/>
<path d="M676.656 158.114C564.408 273.71 479.302 394.162 432.434 495.438C408.998 546.08 395.142 591.887 392.209 629.871C389.276 667.862 397.275 697.909 417.394 717.21C437.513 736.512 468.007 743.393 506.1 739.134C544.187 734.876 589.753 719.489 639.839 694.416C740.006 644.272 858.098 555.467 970.346 439.871C1082.59 324.275 1167.7 203.824 1214.57 102.547C1238 51.9059 1251.86 6.09893 1254.79 -31.8857C1257.73 -69.8767 1249.73 -99.9233 1229.61 -119.225C1209.49 -138.526 1179 -145.408 1140.9 -141.149C1102.81 -136.89 1057.25 -121.504 1007.16 -96.4302C906.996 -46.2867 788.904 42.5187 676.656 158.114Z" stroke="url(#paint10_linear_8965_1324)" stroke-width="1.55132"/>
<path d="M673.739 161.162C563.216 278.379 480 399.956 434.791 501.741C412.185 552.636 399.1 598.543 396.832 636.459C394.564 674.382 403.118 704.191 423.637 723.075C444.155 741.959 474.858 748.279 512.985 743.358C551.106 738.439 596.53 722.294 646.316 696.413C745.882 644.655 862.74 554.04 973.263 436.823C1083.79 319.606 1167 198.029 1212.21 96.2445C1234.82 45.3486 1247.9 -0.558334 1250.17 -38.4743C1252.44 -76.3966 1243.88 -106.206 1223.37 -125.09C1202.85 -143.974 1172.14 -150.294 1134.02 -145.373C1095.9 -140.454 1050.47 -124.309 1000.69 -98.4281C901.12 -46.6697 784.262 43.9455 673.739 161.162Z" stroke="url(#paint11_linear_8965_1324)" stroke-width="1.55132"/>
<path d="M670.868 164.252C562.104 283.054 480.802 405.718 437.266 507.981C415.497 559.116 403.188 605.108 401.585 642.944C399.981 680.786 409.088 710.35 430 728.811C450.912 747.271 481.815 753.027 519.965 747.447C558.108 741.868 603.376 724.97 652.847 698.289C751.782 644.932 867.37 552.534 976.134 433.732C1084.9 314.93 1166.2 192.265 1209.74 90.003C1231.5 38.8683 1243.81 -7.1246 1245.42 -44.9603C1247.02 -82.8024 1237.91 -112.366 1217 -130.827C1196.09 -149.287 1165.19 -155.043 1127.04 -149.463C1088.89 -143.884 1043.63 -126.986 994.155 -100.305C895.22 -46.9477 779.632 45.4495 670.868 164.252Z" stroke="url(#paint12_linear_8965_1324)" stroke-width="1.55132"/>
<path d="M668.042 167.382C561.07 287.734 481.708 411.449 439.859 514.157C418.933 565.515 407.403 611.58 406.465 649.324C405.528 687.074 415.184 716.383 436.483 734.415C457.783 752.447 488.877 757.637 527.037 751.399C565.191 745.162 610.289 727.516 659.43 700.044C757.703 645.103 871.987 550.952 978.959 430.601C1085.93 310.249 1165.29 186.534 1207.14 83.8254C1228.07 32.4676 1239.6 -13.5973 1240.54 -51.3413C1241.47 -89.0915 1231.82 -118.4 1210.52 -136.432C1189.22 -154.464 1158.12 -159.654 1119.96 -153.416C1081.81 -147.179 1036.71 -129.533 987.571 -102.061C889.297 -47.1203 775.014 47.0308 668.042 167.382Z" stroke="url(#paint13_linear_8965_1324)" stroke-width="1.55132"/>
<path d="M665.265 170.554C560.118 292.419 482.719 417.146 442.569 520.27C422.492 571.835 411.745 617.958 411.473 655.599C411.202 693.246 421.405 722.291 443.085 739.888C464.766 757.486 496.041 762.109 534.2 755.215C572.353 748.322 617.268 729.933 666.063 701.678C763.646 645.171 876.589 549.295 981.736 427.431C1086.88 305.566 1164.28 180.839 1204.43 77.7149C1224.51 26.1496 1235.26 -19.9732 1235.53 -57.6139C1235.8 -95.2607 1225.6 -124.306 1203.92 -141.903C1182.24 -159.501 1150.96 -164.124 1112.8 -157.23C1074.65 -150.337 1029.73 -131.948 980.938 -103.693C883.356 -47.186 770.412 48.6904 665.265 170.554Z" stroke="url(#paint14_linear_8965_1324)" stroke-width="1.55132"/>
<path d="M662.536 173.764C559.246 297.103 483.834 422.806 445.395 526.313C426.175 578.071 416.214 624.237 416.608 661.763C417.002 699.295 427.749 728.067 449.804 745.226C471.859 762.384 503.306 766.438 541.453 758.89C579.593 751.343 624.311 732.217 672.745 703.187C769.607 645.131 881.176 547.559 984.467 424.22C1087.76 300.88 1163.17 175.178 1201.61 71.6703C1220.83 19.9131 1230.79 -26.2535 1230.4 -63.7795C1230 -101.311 1219.25 -130.084 1197.2 -147.242C1175.14 -164.4 1143.7 -168.454 1105.55 -160.906C1067.41 -153.359 1022.69 -134.233 974.258 -105.204C877.396 -47.1479 765.827 50.4244 662.536 173.764Z" stroke="url(#paint15_linear_8965_1324)" stroke-width="1.55132"/>
<path d="M659.855 177.013C558.453 301.79 485.051 428.429 448.335 532.288C429.976 584.221 420.804 630.418 421.865 667.818C422.925 705.223 434.212 733.714 456.635 750.428C479.057 767.141 510.667 770.625 548.789 762.426C586.905 754.227 631.413 734.37 679.472 704.574C775.583 644.988 885.744 545.749 987.147 420.972C1088.55 296.194 1161.95 169.555 1198.67 65.696C1217.03 13.7628 1226.2 -32.4336 1225.14 -69.8334C1224.08 -107.239 1212.79 -135.73 1190.37 -152.444C1167.94 -169.157 1136.33 -172.641 1098.21 -164.441C1060.1 -156.243 1015.59 -136.386 967.53 -106.59C871.418 -47.0033 761.257 52.2352 659.855 177.013Z" stroke="url(#paint16_linear_8965_1324)" stroke-width="1.55132"/>
<path d="M657.223 180.299C557.74 306.476 486.371 434.013 451.389 538.193C433.897 590.286 425.517 636.498 427.243 673.761C428.969 711.028 440.793 739.23 463.577 755.493C486.36 771.757 518.123 774.67 556.209 765.821C594.289 756.974 638.573 736.391 686.242 705.839C781.573 644.739 890.293 543.865 989.776 417.688C1089.26 291.51 1160.63 163.974 1195.61 59.7937C1213.1 7.70034 1221.48 -38.5117 1219.76 -75.7739C1218.03 -113.042 1206.21 -141.243 1183.42 -157.507C1160.64 -173.771 1128.88 -176.683 1090.79 -167.835C1052.71 -158.987 1008.43 -138.404 960.757 -107.852C865.426 -46.7526 756.706 54.122 657.223 180.299Z" stroke="url(#paint17_linear_8965_1324)" stroke-width="1.55132"/>
<path d="M654.644 183.619C557.111 311.158 487.796 439.554 454.559 544.022C437.94 596.26 430.355 642.474 432.745 679.587C435.136 716.706 447.493 744.608 470.631 760.418C493.769 776.227 525.675 778.567 563.714 769.072C601.746 759.578 645.792 738.277 693.057 706.977C787.58 644.383 894.825 541.903 992.358 414.365C1089.89 286.827 1159.21 158.431 1192.44 53.9622C1209.06 1.72446 1216.65 -44.4892 1214.26 -81.6025C1211.87 -118.721 1199.51 -146.624 1176.37 -162.433C1153.23 -178.242 1121.33 -180.583 1083.29 -171.088C1045.26 -161.594 1001.21 -140.292 953.946 -108.993C859.423 -46.3988 752.178 56.081 654.644 183.619Z" stroke="url(#paint18_linear_8965_1324)" stroke-width="1.55132"/>
<path d="M652.115 186.976C556.56 315.837 489.321 445.053 457.839 549.778C442.097 602.144 435.309 648.345 438.364 685.298C441.419 722.257 454.306 749.853 477.791 765.202C501.276 780.552 533.316 782.32 571.295 772.181C609.269 762.044 653.064 740.03 699.909 707.993C793.595 643.923 899.332 539.869 994.886 411.008C1090.44 282.147 1157.68 152.932 1189.16 48.2064C1204.9 -4.15966 1211.69 -50.3608 1208.64 -87.3138C1205.58 -124.272 1192.7 -151.868 1169.21 -167.218C1145.72 -182.568 1113.69 -184.335 1075.71 -174.197C1037.73 -164.059 993.937 -142.045 947.092 -110.008C853.407 -45.9386 747.669 58.1152 652.115 186.976Z" stroke="url(#paint19_linear_8965_1324)" stroke-width="1.55132"/>
<path d="M649.637 190.368C556.091 320.512 490.947 450.508 461.23 555.458C446.371 607.937 440.381 654.111 444.099 690.893C447.818 727.679 461.231 754.96 485.056 769.846C508.881 784.731 541.045 785.926 578.953 775.147C616.856 764.369 660.387 741.649 706.799 708.884C799.619 643.359 903.816 537.763 997.362 407.619C1090.91 277.475 1156.05 147.478 1185.77 42.5281C1200.63 -9.95039 1206.62 -56.125 1202.9 -92.9065C1199.18 -129.693 1185.77 -156.974 1161.94 -171.859C1138.12 -186.745 1105.95 -187.939 1068.05 -177.16C1030.14 -166.382 986.613 -143.663 940.2 -110.898C847.381 -45.3724 743.183 60.2237 649.637 190.368Z" stroke="url(#paint20_linear_8965_1324)" stroke-width="1.55132"/>
<path d="M647.214 193.791C555.705 325.179 492.677 455.916 464.734 561.059C450.761 613.634 445.572 659.768 449.952 696.366C454.333 732.97 468.268 759.927 492.426 774.344C516.585 788.761 548.862 789.382 586.688 777.965C624.509 766.551 667.762 743.132 713.727 709.649C805.652 642.688 908.278 535.582 999.788 404.194C1091.3 272.806 1154.32 142.069 1182.27 36.9264C1196.24 -15.6486 1201.43 -61.7825 1197.05 -98.3813C1192.67 -134.985 1178.73 -161.942 1154.58 -176.359C1130.42 -190.776 1098.14 -191.397 1060.31 -179.98C1022.49 -168.566 979.24 -145.147 933.275 -111.664C841.35 -44.7029 738.724 62.4033 647.214 193.791Z" stroke="url(#paint21_linear_8965_1324)" stroke-width="1.55132"/>
<path d="M644.844 197.247C555.4 329.838 494.507 461.276 468.346 566.58C455.264 619.235 450.877 665.314 455.918 701.719C460.96 738.129 475.412 764.754 499.896 778.698C524.38 792.642 556.762 792.689 594.494 780.639C632.221 768.59 675.184 744.48 720.688 710.29C811.69 641.913 912.713 533.329 1002.16 400.738C1091.6 268.147 1152.5 136.709 1178.66 31.4052C1191.74 -21.2501 1196.13 -67.3293 1191.08 -103.734C1186.04 -140.144 1171.59 -166.769 1147.11 -180.713C1122.62 -194.657 1090.24 -194.704 1052.51 -182.654C1014.78 -170.605 971.819 -146.495 926.315 -112.305C835.313 -43.928 734.289 64.6557 644.844 197.247Z" stroke="url(#paint22_linear_8965_1324)" stroke-width="1.55132"/>
<path d="M642.527 200.733C555.174 334.487 496.435 466.586 472.064 572.019C459.878 624.739 456.294 670.749 461.995 706.949C467.695 743.153 482.66 769.439 507.463 782.906C532.266 796.373 564.743 795.845 602.369 783.165C639.991 770.487 682.649 745.692 727.678 710.804C817.73 641.033 917.12 531.005 1004.47 397.251C1091.83 263.497 1150.57 131.398 1174.94 25.9652C1187.12 -26.7545 1190.71 -72.7649 1185.01 -108.965C1179.3 -145.169 1164.34 -171.455 1139.54 -184.922C1114.73 -198.388 1082.26 -197.861 1044.63 -185.181C1007.01 -172.503 964.351 -147.708 919.322 -112.82C829.27 -43.049 729.88 66.979 642.527 200.733Z" stroke="url(#paint23_linear_8965_1324)" stroke-width="1.55132"/>
<path d="M640.267 204.251C555.032 339.127 498.464 471.847 475.891 577.376C464.603 630.144 461.825 676.072 468.182 712.056C474.541 748.044 490.014 773.982 515.128 786.967C540.242 799.953 572.804 798.851 610.313 785.545C647.818 772.241 690.16 746.769 734.7 711.195C823.774 640.05 921.5 528.612 1006.73 393.735C1091.97 258.859 1148.54 126.139 1171.11 20.6097C1182.4 -32.1582 1185.18 -78.0858 1178.82 -114.07C1172.46 -150.058 1156.99 -175.996 1131.87 -188.981C1106.76 -201.967 1074.2 -200.865 1036.69 -187.559C999.183 -174.255 956.842 -148.783 912.302 -113.209C823.227 -42.0645 725.501 69.3744 640.267 204.251Z" stroke="url(#paint24_linear_8965_1324)" stroke-width="1.55132"/>
<path d="M638.061 207.796C554.971 343.754 500.591 477.054 479.822 582.647C469.437 635.447 467.464 681.278 474.477 717.035C481.491 752.796 497.469 778.379 522.886 790.879C548.304 803.379 580.94 801.703 618.321 787.775C655.698 773.849 697.71 747.709 741.747 711.458C829.817 638.962 925.849 526.147 1008.94 390.189C1092.03 254.231 1146.41 120.931 1167.18 15.3377C1177.56 -37.4624 1179.54 -83.2931 1172.52 -119.05C1165.51 -154.811 1149.53 -180.394 1124.11 -192.894C1098.7 -205.394 1066.06 -203.718 1028.68 -189.79C991.302 -175.864 949.29 -149.724 905.253 -113.473C817.183 -40.9773 721.151 71.8383 638.061 207.796Z" stroke="url(#paint25_linear_8965_1324)" stroke-width="1.55132"/>
<path d="M635.913 211.369C554.993 348.367 502.818 482.206 483.86 587.832C474.38 640.648 473.213 686.368 480.88 721.887C488.547 757.41 505.024 782.63 530.737 794.641C556.45 806.651 589.151 804.403 626.393 789.857C663.63 775.313 705.299 748.511 748.821 711.596C835.859 637.771 930.169 523.613 1011.09 386.615C1092.01 249.618 1144.18 115.778 1163.14 10.1525C1172.62 -42.6636 1173.79 -88.3837 1166.12 -123.903C1158.45 -159.425 1141.98 -184.645 1116.26 -196.656C1090.55 -208.667 1057.85 -206.418 1020.61 -191.872C983.371 -177.328 941.702 -150.527 898.18 -113.612C811.142 -39.7863 716.833 74.3718 635.913 211.369Z" stroke="url(#paint26_linear_8965_1324)" stroke-width="1.55132"/>
<path d="M633.821 214.969C555.096 352.965 505.142 487.303 488.001 592.929C479.429 645.745 479.069 691.34 487.386 726.61C495.705 761.884 512.676 786.733 538.677 798.251C564.678 809.769 597.434 806.948 634.525 791.789C671.611 776.631 712.925 749.177 755.917 711.608C841.897 636.476 934.455 521.01 1013.18 383.015C1091.91 245.019 1141.86 110.681 1159 5.05509C1167.57 -47.7611 1167.93 -93.3564 1159.62 -128.627C1151.3 -163.901 1134.33 -188.749 1108.33 -200.267C1082.32 -211.785 1049.57 -208.964 1012.48 -193.805C975.391 -178.647 934.077 -151.193 891.085 -113.625C805.105 -38.4922 712.547 76.9735 633.821 214.969Z" stroke="url(#paint27_linear_8965_1324)" stroke-width="1.55132"/>
<path d="M631.787 218.595C555.28 357.547 507.562 492.343 492.242 597.937C484.582 650.737 485.028 696.193 493.994 731.204C502.962 766.218 520.421 790.689 546.703 801.71C572.984 812.732 605.786 809.339 642.713 793.571C679.638 777.805 720.584 749.706 763.034 711.496C847.929 635.079 938.708 518.341 1015.21 379.389C1091.72 240.438 1139.44 105.642 1154.76 0.048206C1162.42 -52.7518 1161.97 -98.2085 1153.01 -133.219C1144.04 -168.233 1126.58 -192.704 1100.3 -203.725C1074.02 -214.747 1041.22 -211.354 1004.29 -195.586C967.364 -179.82 926.418 -151.721 883.968 -113.511C799.073 -37.0943 708.294 79.6439 631.787 218.595Z" stroke="url(#paint28_linear_8965_1324)" stroke-width="1.55132"/>
<path d="M629.812 222.246C555.546 362.111 510.08 497.324 496.586 602.853C489.839 655.621 491.091 700.925 500.703 735.666C510.316 770.41 528.259 794.494 554.813 805.016C581.367 815.537 614.204 811.573 650.958 795.202C687.709 778.832 728.274 750.097 770.169 711.256C853.955 633.579 942.926 515.604 1017.19 375.739C1091.46 235.874 1136.92 100.661 1150.42 -4.86826C1157.16 -57.6361 1155.91 -102.94 1146.3 -137.681C1136.69 -172.425 1118.74 -196.509 1092.19 -207.031C1065.64 -217.553 1032.8 -213.589 996.045 -197.217C959.294 -180.847 918.728 -152.113 876.833 -113.272C793.048 -35.5946 704.077 82.3805 629.812 222.246Z" stroke="url(#paint29_linear_8965_1324)" stroke-width="1.55132"/>
<path d="M627.894 225.92C555.893 366.656 512.691 502.244 501.028 607.677C495.196 660.397 497.254 705.535 507.509 739.995C517.765 774.457 536.186 798.149 563.005 808.167C589.823 818.186 622.685 813.652 659.254 796.682C695.82 779.713 735.993 750.352 777.32 710.892C859.97 631.978 947.106 512.802 1019.11 372.066C1091.11 231.33 1134.31 95.741 1145.97 -9.6917C1151.81 -62.4112 1149.75 -107.549 1139.49 -142.009C1129.24 -176.472 1110.81 -200.163 1084 -210.182C1057.18 -220.201 1024.32 -215.667 987.747 -198.697C951.181 -181.728 911.008 -152.366 869.681 -112.907C787.031 -33.9924 699.895 85.1835 627.894 225.92Z" stroke="url(#paint30_linear_8965_1324)" stroke-width="1.55132"/>
<path d="M626.037 229.615C556.322 371.179 515.398 507.102 505.569 612.406C500.654 665.061 503.518 710.019 514.413 744.188C525.308 778.359 544.202 801.651 571.277 811.163C598.352 820.675 631.228 815.573 667.601 798.009C703.972 780.447 743.74 750.467 784.486 710.401C865.975 630.274 951.25 509.933 1020.97 368.369C1090.68 226.805 1131.6 90.882 1141.43 -14.422C1146.35 -67.0771 1143.48 -112.035 1132.59 -146.204C1121.69 -180.375 1102.8 -203.666 1075.73 -213.179C1048.65 -222.691 1015.77 -217.589 979.401 -200.025C943.03 -182.463 903.263 -152.483 862.516 -112.417C781.027 -32.2897 695.752 88.0509 626.037 229.615Z" stroke="url(#paint31_linear_8965_1324)" stroke-width="1.55132"/>
<path d="M624.24 233.332C556.833 375.682 518.199 511.897 510.206 617.041C506.21 669.615 509.879 714.379 521.41 748.247C532.942 782.116 552.303 805 579.626 814.003C606.949 823.006 639.83 817.338 675.996 799.185C712.16 781.034 751.511 750.446 791.664 709.785C871.967 628.47 955.356 507.001 1022.76 364.652C1090.17 222.303 1128.8 86.0872 1136.8 -19.056C1140.79 -71.6307 1137.12 -116.395 1125.59 -150.262C1114.06 -184.132 1094.7 -207.015 1067.38 -216.019C1040.05 -225.022 1007.17 -219.353 971.007 -201.201C934.843 -183.05 895.492 -152.461 855.338 -111.801C775.036 -30.4851 691.647 90.9833 624.24 233.332Z" stroke="url(#paint32_linear_8965_1324)" stroke-width="1.55132"/>
<path d="M622.502 237.07C557.423 380.161 521.091 516.628 514.938 621.578C511.862 674.056 516.333 718.613 528.497 752.168C540.662 785.726 560.484 808.195 588.047 816.686C615.61 825.178 648.487 818.944 684.435 800.209C720.381 781.475 759.302 750.287 798.851 709.044C877.943 626.565 959.419 504.006 1024.5 360.915C1089.58 217.824 1125.91 81.3572 1132.06 -23.5932C1135.14 -76.0714 1130.67 -120.628 1118.5 -154.184C1106.34 -187.741 1086.52 -210.21 1058.95 -218.702C1031.39 -227.193 998.514 -220.959 962.566 -202.224C926.62 -183.49 887.699 -152.302 848.15 -111.06C769.058 -28.5801 687.581 93.9791 622.502 237.07Z" stroke="url(#paint33_linear_8965_1324)" stroke-width="1.55132"/>
<path d="M620.827 240.826C558.096 384.615 524.077 521.292 519.765 626.017C517.609 678.383 522.883 722.719 535.676 755.952C548.47 789.187 568.748 811.235 596.542 819.212C624.336 827.189 657.199 820.391 692.917 801.079C728.634 781.768 767.115 749.99 806.046 708.178C883.904 624.56 963.443 500.948 1026.17 357.159C1088.91 213.37 1122.93 76.6934 1127.24 -28.0322C1129.39 -80.398 1124.12 -124.734 1111.33 -157.967C1098.53 -191.202 1078.25 -213.25 1050.46 -221.227C1022.67 -229.204 989.803 -222.406 954.085 -203.094C918.367 -183.783 879.887 -152.005 840.956 -110.193C763.097 -26.5754 683.559 97.0373 620.827 240.826Z" stroke="url(#paint34_linear_8965_1324)" stroke-width="1.55132"/>
<path d="M619.213 244.601C558.848 389.043 527.153 525.888 524.684 630.357C523.449 682.594 529.524 726.696 542.942 759.597C556.361 792.499 577.088 814.119 605.105 821.579C633.123 829.039 665.96 821.68 701.439 801.797C736.916 781.915 774.944 749.556 813.246 707.188C889.846 622.457 967.424 497.828 1027.79 353.385C1088.15 208.943 1119.85 72.0978 1122.32 -32.3711C1123.55 -84.6085 1117.48 -128.71 1104.06 -161.611C1090.64 -194.513 1069.91 -216.133 1041.9 -223.593C1013.88 -231.053 981.041 -223.694 945.563 -203.811C910.085 -183.929 872.057 -151.57 833.755 -109.202C757.155 -24.4709 679.577 100.158 619.213 244.601Z" stroke="url(#paint35_linear_8965_1324)" stroke-width="1.55132"/>
<path d="M617.661 248.39C559.682 393.444 530.32 530.415 529.694 634.595C529.381 686.688 536.254 730.541 550.294 763.1C564.334 795.66 585.503 816.846 613.735 823.786C641.968 830.727 674.77 822.808 709.998 802.361C745.225 781.913 782.789 748.984 820.45 706.072C895.769 620.254 971.361 494.647 1029.34 349.594C1087.32 204.541 1116.68 67.5701 1117.31 -36.6102C1117.62 -88.7032 1110.75 -132.557 1096.71 -165.115C1082.67 -197.675 1061.5 -218.861 1033.27 -225.801C1005.03 -232.742 972.232 -224.824 937.004 -204.376C901.777 -183.928 864.213 -150.999 826.552 -108.087C751.233 -22.2689 675.641 103.337 617.661 248.39Z" stroke="url(#paint36_linear_8965_1324)" stroke-width="1.55132"/>
<path d="M616.172 252.197C560.596 397.816 533.575 534.872 534.793 638.732C535.402 690.664 543.071 734.257 557.728 766.463C572.385 798.67 593.99 819.415 622.429 825.834C650.868 832.253 683.625 823.778 718.592 802.771C753.557 781.765 790.645 748.275 827.655 704.833C901.669 617.953 975.253 491.407 1030.83 345.788C1086.41 200.169 1113.43 63.1138 1112.21 -40.7462C1111.6 -92.6791 1103.93 -136.271 1089.27 -168.478C1074.62 -200.685 1053.01 -221.43 1024.57 -227.849C996.134 -234.268 963.376 -225.793 928.41 -204.786C893.444 -183.78 856.356 -150.29 819.347 -106.847C745.333 -19.968 671.748 106.578 616.172 252.197Z" stroke="url(#paint37_linear_8965_1324)" stroke-width="1.55132"/>
<path d="M614.746 256.017C561.59 402.158 536.919 539.256 539.98 642.764C541.511 694.521 549.974 737.839 565.243 769.683C580.513 801.528 602.548 821.826 631.184 827.721C659.821 833.616 692.523 824.587 727.217 803.028C761.911 781.469 798.512 747.429 834.858 703.469C907.546 615.555 979.099 488.109 1032.26 341.968C1085.41 195.828 1110.08 58.729 1107.02 -44.7791C1105.49 -96.5359 1097.03 -139.854 1081.76 -171.698C1066.49 -203.543 1044.45 -223.841 1015.82 -229.736C987.181 -235.631 954.479 -226.602 919.785 -205.043C885.091 -183.484 848.49 -149.444 812.144 -105.484C739.456 -17.5702 667.903 109.877 614.746 256.017Z" stroke="url(#paint38_linear_8965_1324)" stroke-width="1.55132"/>
<path d="M613.384 259.851C562.664 406.468 540.351 543.568 545.254 646.692C547.706 698.257 556.96 741.287 572.837 772.76C588.714 804.233 611.173 824.077 639.998 829.447C668.824 834.817 701.461 825.236 735.873 803.131C770.284 781.026 806.387 746.446 842.058 701.983C913.397 613.061 982.898 484.752 1033.62 338.134C1084.34 191.517 1106.65 54.4171 1101.75 -48.7075C1099.3 -100.272 1090.04 -143.302 1074.17 -174.775C1058.29 -206.248 1035.83 -226.093 1007 -231.462C978.179 -236.832 945.541 -227.251 911.13 -205.146C876.719 -183.042 840.616 -148.461 804.944 -103.998C733.606 -15.0761 664.104 113.233 613.384 259.851Z" stroke="url(#paint39_linear_8965_1324)" stroke-width="1.55132"/>
<path d="M612.086 263.696C563.818 410.746 543.869 547.804 550.613 650.514C553.985 701.872 564.028 744.601 580.508 775.692C596.988 806.784 619.863 826.168 648.868 831.011C677.874 835.854 710.437 825.724 744.555 803.08C778.674 780.436 814.267 745.326 849.253 700.373C919.221 610.47 986.649 481.338 1034.92 334.288C1083.19 187.238 1103.13 50.1796 1096.39 -52.5301C1093.02 -103.888 1082.98 -146.617 1066.5 -177.708C1050.02 -208.8 1027.14 -228.184 998.136 -233.027C969.13 -237.87 936.567 -227.74 902.449 -205.096C868.33 -182.452 832.737 -147.342 797.751 -102.389C727.783 -12.4863 660.355 116.646 612.086 263.696Z" stroke="url(#paint40_linear_8965_1324)" stroke-width="1.55132"/>
<path d="M610.849 267.553C565.047 414.99 547.469 551.966 556.051 654.23C560.342 705.364 571.171 747.779 588.249 778.48C605.326 809.181 628.611 828.1 657.788 832.414C686.965 836.728 719.443 826.053 753.258 802.877C787.073 779.7 822.147 744.071 856.437 698.641C925.013 607.786 990.347 477.87 1036.15 330.433C1081.95 182.995 1099.53 46.0188 1090.95 -56.2446C1086.66 -107.379 1075.83 -149.794 1058.75 -180.495C1041.67 -211.195 1018.39 -230.115 989.21 -234.429C960.033 -238.742 927.555 -228.067 893.74 -204.891C859.925 -181.715 824.852 -146.086 790.562 -100.656C721.986 -9.80044 656.652 120.115 610.849 267.553Z" stroke="url(#paint41_linear_8965_1324)" stroke-width="1.55132"/>
<path d="M609.682 271.418C566.36 419.198 551.158 556.05 561.576 657.836C566.785 708.732 578.396 750.82 596.067 781.121C613.737 811.421 637.424 829.869 666.764 833.653C696.103 837.437 728.487 826.219 761.988 802.518C795.489 778.816 830.032 742.68 863.616 696.787C930.779 605.006 993.999 474.346 1037.32 326.566C1080.64 178.786 1095.85 41.9339 1085.43 -59.8522C1080.22 -110.748 1068.61 -152.836 1050.94 -183.137C1033.27 -213.437 1009.58 -231.885 980.24 -235.669C950.9 -239.453 918.516 -228.235 885.016 -204.534C851.514 -180.832 816.971 -144.696 783.388 -98.8029C716.225 -7.02164 653.005 123.638 609.682 271.418Z" stroke="url(#paint42_linear_8965_1324)" stroke-width="1.55132"/>
<path d="M608.577 275.292C567.748 423.37 554.926 560.056 567.176 661.333C573.302 711.975 585.692 753.724 603.95 783.615C622.207 813.506 646.289 831.477 675.783 834.729C705.276 837.981 737.555 826.225 770.732 802.006C803.91 777.786 837.912 741.153 870.778 694.811C936.508 602.132 997.595 470.768 1038.42 322.691C1079.25 174.613 1092.07 37.9272 1079.82 -63.3505C1073.7 -113.992 1061.31 -155.741 1043.05 -185.632C1024.79 -215.523 1000.71 -233.494 971.218 -236.746C941.724 -239.998 909.445 -228.242 876.268 -204.023C843.091 -179.803 809.089 -143.17 776.222 -96.8283C710.493 -4.14949 649.406 127.214 608.577 275.292Z" stroke="url(#paint43_linear_8965_1324)" stroke-width="1.55132"/>
<path d="M607.537 279.175C569.213 427.505 558.776 563.983 572.856 664.722C579.896 715.093 593.06 756.49 611.9 785.963C630.739 815.435 655.209 832.924 684.847 835.644C714.486 838.363 746.65 826.071 779.493 801.342C812.337 776.612 845.787 739.493 877.927 692.716C942.203 599.168 1001.14 467.14 1039.46 318.81C1077.79 170.48 1088.22 34.0014 1074.14 -66.737C1067.1 -117.109 1053.94 -158.505 1035.1 -187.978C1016.26 -217.45 991.789 -234.939 962.151 -237.659C932.513 -240.379 900.348 -228.087 867.505 -203.357C834.662 -178.627 801.211 -141.508 769.072 -94.7316C704.795 -1.18349 645.86 130.845 607.537 279.175Z" stroke="url(#paint44_linear_8965_1324)" stroke-width="1.55132"/>
<path d="M606.565 283.063C570.759 431.6 562.709 567.829 578.613 667.998C586.566 718.084 600.501 759.116 619.917 788.161C639.331 817.206 664.183 834.207 693.957 836.394C723.73 838.58 755.771 825.756 788.27 800.524C820.77 775.29 853.658 737.697 885.061 690.5C947.865 596.111 1004.63 463.459 1040.44 314.922C1076.24 166.385 1084.29 30.1555 1068.39 -70.013C1060.44 -120.1 1046.5 -161.131 1027.08 -190.177C1007.67 -219.221 982.819 -236.223 953.045 -238.409C923.271 -240.595 891.23 -227.771 858.731 -202.539C826.231 -177.306 793.343 -139.712 761.94 -92.5156C699.136 1.87329 642.371 134.525 606.565 283.063Z" stroke="url(#paint45_linear_8965_1324)" stroke-width="1.55132"/>
<path d="M605.657 286.956C572.38 435.655 566.72 571.594 584.443 671.162C593.306 720.948 608.008 761.602 627.994 790.211C647.978 818.819 673.203 835.328 703.103 836.98C733.004 838.632 764.911 825.28 797.055 799.553C829.201 773.824 861.518 735.768 892.175 688.165C953.487 592.964 1008.07 459.729 1041.34 311.029C1074.62 162.33 1080.28 26.3915 1062.56 -73.1765C1053.69 -122.963 1038.99 -163.617 1019.01 -192.226C999.022 -220.834 973.798 -237.343 943.897 -238.995C913.996 -240.647 882.09 -227.295 849.945 -201.568C817.799 -175.839 785.482 -137.783 754.825 -90.1801C693.513 5.02085 638.935 138.257 605.657 286.956Z" stroke="url(#paint46_linear_8965_1324)" stroke-width="1.55132"/>
<path d="M604.818 290.852C574.079 439.668 570.81 575.274 590.348 674.211C600.118 723.682 615.582 763.947 636.132 792.111C656.68 820.274 682.27 836.285 712.288 837.402C742.307 838.519 774.07 824.643 805.851 798.429C837.633 772.212 869.368 733.705 899.27 685.711C959.071 589.727 1011.45 455.948 1042.19 307.132C1072.92 158.316 1076.19 22.7096 1056.65 -76.2277C1046.89 -125.698 1031.42 -165.963 1010.87 -194.127C990.323 -222.29 964.733 -238.301 934.715 -239.418C904.696 -240.536 872.933 -226.66 841.152 -200.445C809.37 -174.228 777.635 -135.721 747.733 -87.7269C687.932 8.25708 635.557 142.036 604.818 290.852Z" stroke="url(#paint47_linear_8965_1324)" stroke-width="1.55132"/>
<path d="M604.043 294.751C575.851 443.638 574.975 578.871 596.322 677.148C606.995 726.288 623.217 766.15 644.325 793.861C665.431 821.57 691.378 837.078 721.505 837.66C751.632 838.243 783.242 823.847 814.649 797.153C846.058 770.457 877.202 731.51 906.339 683.139C964.611 586.401 1014.77 452.12 1042.96 303.233C1071.15 154.346 1072.03 19.1127 1050.68 -79.1637C1040.01 -128.304 1023.78 -168.166 1002.68 -195.877C981.57 -223.586 955.623 -239.094 925.496 -239.676C895.369 -240.259 863.759 -225.863 832.352 -199.169C800.943 -172.473 769.799 -133.526 740.662 -85.1548C682.39 11.5829 632.234 145.864 604.043 294.751Z" stroke="url(#paint48_linear_8965_1324)" stroke-width="1.55132"/>
<path d="M603.336 298.653C577.701 447.566 579.217 582.385 602.366 679.97C613.94 728.765 630.915 768.213 652.573 795.462C674.231 822.709 700.528 837.709 730.754 837.756C760.98 837.803 792.427 822.892 823.451 795.726C854.478 768.559 885.021 729.184 913.385 680.451C970.11 582.989 1018.03 448.247 1043.67 299.334C1069.3 150.421 1067.78 15.6021 1044.64 -81.9833C1033.06 -130.778 1016.09 -170.226 994.429 -197.475C972.771 -224.722 946.474 -239.723 916.248 -239.769C886.022 -239.816 854.575 -224.905 823.551 -197.739C792.524 -170.572 761.981 -131.197 733.617 -82.4643C676.892 14.9976 628.971 149.74 603.336 298.653Z" stroke="url(#paint49_linear_8965_1324)" stroke-width="1.55132"/>
<path d="M602.694 302.554C579.623 451.447 583.533 585.81 608.476 682.675C620.948 731.109 638.669 770.131 660.872 796.91C683.074 823.687 709.714 838.175 740.03 837.686C770.346 837.197 801.62 821.775 832.252 794.147C862.886 766.516 892.82 726.726 920.401 677.646C975.563 579.489 1021.23 444.327 1044.31 295.433C1067.38 146.539 1063.47 12.1766 1038.52 -84.6883C1026.05 -133.123 1008.33 -172.145 986.128 -198.923C963.926 -225.7 937.286 -240.188 906.97 -239.699C876.654 -239.211 845.38 -223.789 814.748 -196.16C784.114 -168.529 754.18 -128.739 726.599 -79.6589C671.437 18.4976 625.765 153.66 602.694 302.554Z" stroke="url(#paint50_linear_8965_1324)" stroke-width="1.55132"/>
<path d="M602.122 306.453C581.622 455.282 587.923 589.148 614.653 685.263C628.018 733.322 646.482 771.906 669.223 798.206C691.963 824.504 718.936 838.476 749.333 837.452C779.73 836.427 810.822 820.499 841.052 792.416C871.285 764.331 900.599 724.137 927.39 674.724C980.971 575.903 1024.38 440.362 1044.88 291.533C1065.38 142.704 1059.08 8.83788 1032.35 -87.2769C1018.98 -135.336 1000.52 -173.92 977.779 -200.22C955.039 -226.518 928.066 -240.49 897.669 -239.466C867.271 -238.441 836.18 -222.513 805.95 -194.43C775.717 -166.345 746.403 -126.151 719.611 -76.7383C666.031 22.0827 622.622 157.624 602.122 306.453Z" stroke="url(#paint51_linear_8965_1324)" stroke-width="1.55132"/>
<path d="M601.617 310.35C583.695 459.069 592.384 592.398 620.893 687.733C635.148 735.403 654.347 773.537 677.62 799.351C700.89 825.162 728.189 838.613 758.658 837.053C789.127 835.494 820.027 819.064 849.846 790.535C879.668 762.003 908.354 721.418 934.347 671.688C986.331 572.233 1027.46 436.354 1045.39 287.635C1063.31 138.916 1054.62 5.58758 1026.11 -89.7478C1011.85 -137.417 992.655 -175.551 969.383 -201.365C946.112 -227.177 918.813 -240.627 888.344 -239.068C857.876 -237.508 826.976 -221.079 797.156 -192.55C767.335 -164.018 738.648 -123.433 712.656 -73.7032C660.672 25.7524 619.54 161.631 601.617 310.35Z" stroke="url(#paint52_linear_8965_1324)" stroke-width="1.55132"/>
<path d="M601.179 314.244C585.84 462.808 596.916 595.558 627.195 690.085C642.335 737.351 662.265 775.023 686.061 800.343C709.855 825.66 737.472 838.586 768.003 836.491C798.534 834.397 829.233 817.471 858.632 788.504C888.034 759.535 916.083 718.571 941.27 668.539C991.641 568.48 1030.48 432.304 1045.82 283.741C1061.16 135.177 1050.09 2.4268 1019.81 -92.1002C1004.67 -139.365 984.739 -177.038 960.942 -202.358C937.148 -227.675 909.532 -240.6 879 -238.506C848.469 -236.411 817.77 -219.485 788.371 -190.519C758.969 -161.55 730.92 -120.586 705.734 -70.5542C655.363 29.5056 616.519 165.681 601.179 314.244Z" stroke="url(#paint53_linear_8965_1324)" stroke-width="1.55132"/>
<path d="M600.808 318.134C588.055 466.497 601.514 598.629 633.554 692.319C649.575 739.165 670.229 776.365 694.542 801.183C718.853 825.998 746.778 838.394 777.363 835.766C807.947 833.137 838.435 815.719 867.405 786.325C896.378 756.927 923.783 715.596 948.155 665.278C996.898 564.644 1033.44 428.214 1046.19 279.852C1058.95 131.489 1045.49 -0.643394 1013.45 -94.3332C997.426 -141.18 976.771 -178.38 952.458 -203.197C928.148 -228.012 900.222 -240.409 869.638 -237.78C839.054 -235.151 808.565 -217.734 779.595 -188.339C750.622 -158.941 723.218 -117.611 698.846 -67.2921C650.103 33.3413 613.56 169.771 600.808 318.134Z" stroke="url(#paint54_linear_8965_1324)" stroke-width="1.55132"/>
<path d="M600.506 322.018C590.345 470.135 606.183 601.608 639.974 694.432C656.87 740.846 678.242 777.561 703.064 801.87C727.884 826.175 756.111 838.039 786.738 834.876C817.366 831.714 847.635 813.81 876.167 783.996C904.703 754.179 931.453 712.494 955.004 661.904C1002.1 560.728 1036.33 424.085 1046.5 275.968C1056.66 127.851 1040.82 -3.6227 1007.03 -96.4468C990.132 -142.86 968.76 -179.576 943.937 -203.884C919.118 -228.19 890.891 -240.053 860.263 -236.891C829.635 -233.728 799.367 -215.825 770.835 -186.011C742.299 -156.193 715.549 -114.509 691.998 -63.9188C644.898 37.2577 610.667 173.901 600.506 322.018Z" stroke="url(#paint55_linear_8965_1324)" stroke-width="1.55132"/>
<path d="M600.271 325.895C592.704 473.721 610.916 604.495 646.448 696.425C664.215 742.392 686.298 778.612 711.623 802.403C736.944 826.192 765.462 837.519 796.124 833.824C826.787 830.129 856.826 811.745 884.912 781.52C913.001 751.292 939.09 709.266 961.812 658.42C1007.25 556.731 1039.16 419.917 1046.73 272.091C1054.3 124.265 1036.08 -6.50975 1000.55 -98.4399C982.786 -144.406 960.703 -180.627 935.379 -204.418C910.057 -228.206 881.539 -239.533 850.877 -235.838C820.214 -232.143 790.175 -213.759 762.089 -183.534C734 -153.306 707.911 -111.281 685.189 -60.4346C639.747 41.2541 607.838 178.069 600.271 325.895Z" stroke="url(#paint56_linear_8965_1324)" stroke-width="1.55132"/>
<path d="M600.105 329.763C595.135 477.253 615.715 607.289 652.977 698.297C671.609 743.802 694.397 779.516 720.215 802.783C746.03 826.048 774.832 836.835 805.519 832.608C836.207 828.381 866.007 809.522 893.639 778.896C921.273 748.266 946.692 705.912 968.578 654.826C1012.35 552.656 1041.93 415.711 1046.9 268.221C1051.87 120.731 1031.29 -9.30452 994.025 -100.313C975.393 -145.818 952.605 -181.532 926.787 -204.799C900.972 -228.063 872.17 -238.85 841.483 -234.623C810.795 -230.397 780.994 -211.538 753.363 -180.912C725.729 -150.282 700.31 -107.928 678.424 -56.8415C634.652 45.3283 605.075 182.273 600.105 329.763Z" stroke="url(#paint57_linear_8965_1324)" stroke-width="1.55132"/>
<path d="M600.006 333.623C597.635 480.731 620.577 609.989 659.558 700.048C679.049 745.078 702.535 780.275 728.839 803.011C755.14 825.744 784.216 835.987 814.919 831.23C845.622 826.472 875.175 807.144 902.343 776.126C929.514 745.105 954.256 702.435 975.3 651.124C1017.39 548.504 1044.62 411.471 1047 264.362C1049.37 117.253 1026.42 -12.0046 987.444 -102.063C967.953 -147.094 944.467 -182.29 918.163 -205.026C891.862 -227.759 862.785 -238.003 832.083 -233.245C801.38 -228.488 771.826 -209.16 744.659 -178.142C717.488 -147.12 692.746 -104.451 671.702 -53.1392C629.615 49.4808 602.378 186.514 600.006 333.623Z" stroke="url(#paint58_linear_8965_1324)" stroke-width="1.55132"/>
<path d="M599.976 337.472C600.203 484.155 625.5 612.595 666.188 701.677C686.532 746.219 710.709 780.887 737.491 803.085C764.27 825.28 793.612 834.977 824.321 829.69C855.031 824.404 884.327 804.612 911.023 773.212C937.723 741.807 961.779 698.836 981.975 647.315C1022.37 544.276 1047.25 407.197 1047.03 260.514C1046.8 113.831 1021.5 -14.6096 980.814 -103.691C960.469 -148.233 936.293 -182.902 909.51 -205.099C882.731 -227.294 853.389 -236.991 822.68 -231.705C791.971 -226.418 762.674 -206.626 735.978 -175.226C709.279 -143.822 685.222 -100.85 665.026 -49.329C624.636 53.7097 599.749 190.789 599.976 337.472Z" stroke="url(#paint59_linear_8965_1324)" stroke-width="1.55132"/>
<path d="M600.015 341.309C602.841 487.522 630.486 615.105 672.867 703.182C694.059 747.222 718.919 781.352 746.171 803.005C773.419 824.655 803.019 833.802 833.725 827.988C864.431 822.174 893.462 801.925 919.678 770.151C945.898 738.374 969.262 695.113 988.603 643.398C1027.28 539.972 1049.81 402.888 1046.99 256.676C1044.16 110.463 1016.52 -17.1205 974.137 -105.198C952.945 -149.238 928.085 -183.368 900.833 -205.02C873.584 -226.67 843.985 -235.818 813.279 -230.004C782.573 -224.189 753.542 -203.94 727.325 -172.167C701.106 -140.39 677.741 -97.1284 658.4 -45.4139C619.72 58.0122 597.189 195.096 600.015 341.309Z" stroke="url(#paint60_linear_8965_1324)" stroke-width="1.55132"/>
<path d="M600.121 345.134C605.544 490.831 635.528 617.519 679.591 704.566C701.623 748.09 727.159 781.671 754.872 802.772C782.583 823.871 812.43 832.465 843.123 826.126C873.817 819.786 902.574 799.085 928.302 766.949C954.034 734.808 976.699 691.27 995.18 639.378C1032.14 535.596 1052.31 398.549 1046.88 252.851C1041.46 107.154 1011.48 -19.534 967.412 -106.58C945.38 -150.104 919.845 -183.686 892.131 -204.787C864.421 -225.885 834.573 -234.48 803.88 -228.14C773.186 -221.8 744.429 -201.1 718.701 -168.963C692.969 -136.822 670.304 -93.2852 651.824 -41.3928C614.864 62.3892 594.697 199.436 600.121 345.134Z" stroke="url(#paint61_linear_8965_1324)" stroke-width="1.55132"/>
<path d="M600.293 348.945C608.313 494.083 640.626 619.837 686.357 705.825C709.223 748.821 735.427 781.843 763.594 802.386C791.757 822.927 821.843 830.967 852.515 824.103C883.186 817.239 911.66 796.093 936.893 763.603C962.129 731.109 984.088 687.309 1001.7 635.254C1036.93 531.148 1054.73 394.18 1046.71 249.041C1038.69 103.903 1006.37 -21.8506 960.643 -107.839C937.777 -150.835 911.573 -183.857 883.406 -204.4C855.243 -224.94 825.157 -232.98 794.485 -226.116C763.814 -219.252 735.34 -198.107 710.107 -165.617C684.87 -133.122 662.912 -89.3223 645.298 -37.2679C610.071 66.8384 592.273 203.807 600.293 348.945Z" stroke="url(#paint62_linear_8965_1324)" stroke-width="1.55132"/>
<path d="M600.535 352.74C611.148 497.275 645.782 622.056 693.167 706.961C716.86 749.415 743.723 781.867 772.335 801.847C800.943 821.823 831.259 829.305 861.899 821.919C892.539 814.533 920.721 792.95 945.45 760.116C970.184 727.278 991.429 683.228 1008.17 631.027C1041.66 526.628 1057.08 389.781 1046.46 245.246C1035.85 100.711 1001.22 -24.0699 953.833 -108.975C930.14 -151.428 903.277 -183.881 874.665 -203.86C846.057 -223.837 815.741 -231.319 785.101 -223.933C754.461 -216.547 726.28 -194.963 701.55 -162.13C676.816 -129.291 655.571 -85.2416 638.828 -33.0409C605.344 71.3579 589.922 208.206 600.535 352.74Z" stroke="url(#paint63_linear_8965_1324)" stroke-width="1.55132"/>
<path d="M600.846 356.519C614.049 500.406 650.993 624.176 700.017 707.972C724.529 749.871 752.044 781.744 781.092 801.153C810.136 820.559 840.672 827.482 871.272 819.576C901.871 811.67 929.752 789.655 953.971 756.487C978.194 723.315 998.72 679.029 1014.59 626.698C1046.32 522.039 1059.36 385.353 1046.16 241.466C1032.95 97.5791 996.009 -26.1918 946.985 -109.987C922.472 -151.886 894.957 -183.76 865.909 -203.168C836.866 -222.575 806.329 -229.497 775.73 -221.591C745.13 -213.685 717.249 -191.67 693.03 -158.503C668.807 -125.33 648.281 -81.0446 632.415 -28.7136C600.685 75.946 587.642 212.632 600.846 356.519Z" stroke="url(#paint64_linear_8965_1324)" stroke-width="1.55132"/>
<path d="M601.225 360.281C617.015 503.476 656.256 626.199 706.904 708.859C732.229 750.191 760.388 781.475 789.862 800.308C819.333 819.138 850.081 825.498 880.63 817.075C911.179 808.652 938.751 786.211 962.452 752.72C986.157 719.225 1005.96 674.716 1020.94 622.271C1050.91 517.382 1061.57 380.901 1045.78 237.705C1029.99 94.5094 990.747 -28.2134 940.099 -110.874C914.774 -152.205 886.615 -183.49 857.141 -202.323C827.67 -221.153 796.922 -227.513 766.373 -219.09C735.824 -210.666 708.252 -188.226 684.551 -154.735C660.846 -121.239 641.045 -76.7306 626.061 -24.2852C596.094 80.6033 585.435 217.085 601.225 360.281Z" stroke="url(#paint65_linear_8965_1324)" stroke-width="1.55132"/>
<path d="M601.67 364.022C620.042 506.483 661.569 628.12 713.827 709.621C739.956 750.371 768.749 781.058 798.642 799.309C828.53 817.557 859.48 823.353 889.97 814.415C920.46 805.477 947.714 782.618 970.89 748.814C994.069 715.005 1013.14 670.287 1027.24 617.743C1055.43 512.658 1063.7 376.421 1045.33 233.961C1026.96 91.5003 985.434 -30.137 933.176 -111.637C907.047 -152.388 878.254 -183.075 848.361 -201.326C818.473 -219.574 787.523 -225.37 757.033 -216.432C726.543 -207.493 699.289 -184.635 676.113 -150.83C652.934 -117.021 633.865 -72.3036 619.767 -19.7598C591.571 85.3256 583.299 221.562 601.67 364.022Z" stroke="url(#paint66_linear_8965_1324)" stroke-width="1.55132"/>
<path d="M602.182 367.747C623.13 509.429 666.931 629.944 720.781 710.259C747.707 750.417 777.126 780.497 807.428 798.16C837.725 815.821 868.868 821.051 899.289 811.6C929.71 802.15 956.638 778.88 979.282 744.772C1001.93 710.66 1020.26 665.747 1033.47 613.121C1059.88 507.87 1065.77 371.921 1044.82 230.239C1023.87 88.5568 980.07 -31.9579 926.22 -112.273C899.294 -152.432 869.875 -182.511 839.573 -200.174C809.276 -217.835 778.133 -223.065 747.712 -213.614C717.291 -204.164 690.363 -180.894 667.719 -146.786C645.072 -112.674 626.741 -67.761 613.533 -15.1348C587.118 90.1156 581.235 226.065 602.182 367.747Z" stroke="url(#paint67_linear_8965_1324)" stroke-width="1.55132"/>
<path d="M602.763 371.449C626.28 512.31 672.341 631.665 727.768 710.771C783.238 789.938 847.897 828.549 908.585 808.628C969.273 788.707 1014.99 713.866 1039.64 608.401C1064.26 503.018 1067.75 367.397 1044.24 226.536C1020.72 85.6759 974.66 -33.6797 919.232 -112.785C863.762 -191.953 799.104 -230.563 738.415 -210.643C677.727 -190.722 632.01 -115.881 607.364 -10.4157C582.738 94.9675 579.246 230.589 602.763 371.449Z" stroke="url(#paint68_linear_8965_1324)" stroke-width="1.55132"/>
<path d="M603.413 375.129C629.492 515.125 677.799 633.285 734.786 711.157C791.817 789.089 857.345 826.434 917.857 805.5C978.37 784.567 1022.89 709.152 1045.74 603.587C1068.57 498.103 1069.67 362.852 1043.59 222.856C1017.51 82.8596 969.205 -35.3004 912.218 -113.173C855.187 -191.104 789.659 -228.449 729.147 -207.516C668.634 -186.582 624.112 -111.167 601.264 -5.60252C578.433 99.8815 577.333 235.133 603.413 375.129Z" stroke="url(#paint69_linear_8965_1324)" stroke-width="1.55132"/>
<path d="M604.127 378.786C632.761 517.875 683.299 634.803 741.828 711.419C800.402 788.091 866.78 824.159 927.098 802.219C987.417 780.279 1030.73 704.312 1051.77 598.681C1072.8 493.128 1071.51 358.287 1042.88 219.198C1014.24 80.1093 963.704 -36.8193 905.174 -113.434C846.601 -190.107 780.223 -226.175 719.904 -204.235C659.585 -182.295 616.272 -106.328 595.228 -0.696426C574.201 104.856 575.493 239.697 604.127 378.786Z" stroke="url(#paint70_linear_8965_1324)" stroke-width="1.55132"/>
<path d="M604.909 382.419C636.088 520.558 688.842 636.22 748.896 711.554C808.994 786.944 876.202 821.724 936.308 798.784C996.414 775.844 1038.51 699.35 1057.74 593.683C1076.96 488.094 1073.27 353.705 1042.09 215.565C1010.91 77.4259 958.16 -38.2356 898.106 -113.57C838.008 -188.96 770.8 -223.74 710.694 -200.8C650.588 -177.86 608.495 -101.366 589.263 4.30122C570.045 109.89 573.73 244.279 604.909 382.419Z" stroke="url(#paint71_linear_8965_1324)" stroke-width="1.55132"/>
<path d="M605.758 386.027C639.473 523.175 694.427 637.534 755.987 711.565C817.592 785.65 885.609 819.13 945.484 795.197C1005.36 771.265 1046.22 694.266 1063.63 588.596C1081.04 483.002 1074.96 349.106 1041.24 211.958C1007.53 74.8099 952.576 -39.5491 891.016 -113.58C829.411 -187.665 761.394 -221.146 701.519 -197.213C641.643 -173.28 600.786 -96.2813 583.37 9.38876C565.967 114.982 572.043 248.879 605.758 386.027Z" stroke="url(#paint72_linear_8965_1324)" stroke-width="1.55132"/>
<path d="M606.671 389.608C642.912 525.723 700.049 638.745 763.097 711.45C826.189 784.207 894.995 816.379 954.621 791.46C1014.25 766.542 1053.86 689.062 1069.45 583.421C1085.03 477.855 1076.57 344.492 1040.33 208.378C1004.09 72.2629 946.95 -40.759 883.902 -113.464C820.81 -186.221 752.004 -218.393 692.378 -193.474C632.752 -168.556 593.142 -91.0759 577.548 14.5651C561.966 120.131 570.43 253.494 606.671 389.608Z" stroke="url(#paint73_linear_8965_1324)" stroke-width="1.55132"/>
<path d="M607.654 393.161C646.41 528.201 705.712 639.852 770.228 711.209C834.789 782.616 904.363 813.468 963.721 787.572C1023.08 761.675 1061.43 683.738 1075.2 578.158C1088.96 472.652 1078.1 339.864 1039.35 204.824C1000.59 69.7835 941.291 -41.8669 876.774 -113.224C812.213 -184.631 742.64 -215.484 683.281 -189.587C623.923 -163.69 585.572 -85.7532 571.805 19.8267C558.047 125.333 568.898 258.121 607.654 393.161Z" stroke="url(#paint74_linear_8965_1324)" stroke-width="1.55132"/>
<path d="M608.7 396.686C649.959 530.61 711.408 640.855 777.373 710.843C843.383 780.878 913.703 810.402 972.776 783.535C1031.85 756.668 1068.93 678.298 1080.86 572.811C1092.79 467.397 1079.56 335.223 1038.3 201.299C997.042 67.3747 935.592 -42.8702 869.627 -112.858C803.617 -182.893 733.297 -212.417 674.224 -185.55C615.152 -158.683 578.071 -80.3125 566.135 25.1741C554.207 130.588 567.441 262.762 608.7 396.686Z" stroke="url(#paint75_linear_8965_1324)" stroke-width="1.55132"/>
<path d="M609.813 400.181C653.562 532.948 717.141 641.754 784.534 710.351C851.973 778.994 923.018 807.18 981.787 779.351C1040.56 751.522 1076.35 672.741 1086.46 567.38C1096.55 462.09 1080.94 330.571 1037.19 197.803C993.44 65.0358 929.862 -43.7701 862.468 -112.366C795.029 -181.009 723.984 -209.196 665.215 -181.366C606.446 -153.537 570.648 -74.7571 560.546 30.6041C550.451 135.894 566.064 267.413 609.813 400.181Z" stroke="url(#paint76_linear_8965_1324)" stroke-width="1.55132"/>
<path d="M610.992 403.645C657.218 535.216 722.905 642.55 791.707 709.734C860.554 776.963 932.303 803.803 990.75 775.02C1049.2 746.238 1083.7 667.072 1091.97 561.868C1100.23 456.734 1082.24 325.91 1036.01 194.339C989.786 62.7687 924.099 -44.565 855.298 -111.749C786.45 -178.979 714.702 -205.819 656.254 -177.036C597.807 -148.253 563.303 -69.0873 555.038 36.1166C546.779 141.25 564.766 272.075 610.992 403.645Z" stroke="url(#paint77_linear_8965_1324)" stroke-width="1.55132"/>
<path d="M612.233 407.078C660.922 537.411 728.699 643.24 798.887 708.992C869.121 774.788 941.552 800.273 999.659 770.545C1057.77 740.817 1090.97 661.29 1097.39 556.276C1103.81 451.33 1083.46 321.241 1034.77 190.907C986.08 60.5735 918.303 -45.2555 848.115 -111.008C777.88 -176.803 705.45 -202.288 647.342 -172.56C589.235 -142.833 556.034 -63.3056 549.609 41.7089C543.189 146.654 563.544 276.744 612.233 407.078Z" stroke="url(#paint78_linear_8965_1324)" stroke-width="1.55132"/>
<path d="M613.54 410.478C664.677 539.534 734.523 643.826 806.076 708.126C877.677 772.468 950.767 796.591 1008.52 765.927C1066.27 735.263 1098.15 655.399 1102.74 550.606C1107.32 445.88 1084.6 316.565 1033.46 187.508C982.325 58.451 912.48 -45.8409 840.926 -110.141C769.325 -174.482 696.235 -198.605 638.485 -167.941C580.735 -137.277 548.848 -57.4135 544.265 47.3798C539.685 152.105 562.403 281.421 613.54 410.478Z" stroke="url(#paint79_linear_8965_1324)" stroke-width="1.55132"/>
<path d="M614.911 413.843C668.481 541.583 740.374 644.307 813.271 707.134C886.216 770.002 959.944 792.756 1017.32 761.165C1074.69 729.575 1105.26 649.398 1108 544.858C1110.73 440.385 1085.66 311.883 1032.09 184.142C978.522 56.4009 906.629 -46.3222 833.732 -109.15C760.787 -172.018 687.059 -194.771 629.685 -163.181C572.31 -131.59 541.747 -51.4138 539.007 53.1264C536.269 157.6 561.342 286.102 614.911 413.843Z" stroke="url(#paint80_linear_8965_1324)" stroke-width="1.55132"/>
<path d="M616.345 417.174C672.33 543.56 746.249 644.683 820.468 706.02C894.734 767.395 969.077 788.772 1026.06 756.264C1083.04 723.757 1112.27 643.292 1113.17 539.037C1114.06 434.847 1086.64 307.198 1030.66 180.812C974.67 54.4261 900.752 -46.697 826.533 -108.034C752.267 -169.409 677.924 -190.786 620.942 -158.278C563.96 -125.771 534.73 -45.3061 533.834 58.9492C532.938 163.139 560.359 290.788 616.345 417.174Z" stroke="url(#paint81_linear_8965_1324)" stroke-width="1.55132"/>
<path d="M617.843 420.468C676.227 545.461 752.149 644.953 827.667 704.781C903.232 764.645 978.168 784.638 1034.74 751.223C1091.31 717.809 1119.2 637.081 1118.25 533.142C1117.3 429.268 1087.54 302.51 1029.16 177.517C970.774 52.5248 894.853 -46.9675 819.334 -106.795C743.769 -166.659 668.833 -186.652 612.262 -153.237C555.691 -119.823 527.803 -39.0947 528.75 64.844C529.697 168.718 559.458 295.476 617.843 420.468Z" stroke="url(#paint82_linear_8965_1324)" stroke-width="1.55132"/>
<path d="M619.404 423.726C680.169 547.287 758.07 645.118 834.865 703.418C911.706 761.753 987.212 780.356 1043.36 746.044C1099.5 711.733 1126.04 630.766 1123.25 527.175C1120.46 423.648 1088.36 297.821 1027.6 174.26C966.833 50.6984 888.932 -47.1329 812.137 -105.432C735.296 -163.767 659.79 -182.371 603.647 -148.059C547.504 -113.747 520.965 -32.7807 523.757 70.81C526.546 174.337 558.638 300.165 619.404 423.726Z" stroke="url(#paint83_linear_8965_1324)" stroke-width="1.55132"/>
<path d="M621.026 426.945C684.155 549.037 764.012 645.178 842.059 701.931C920.153 758.72 996.205 775.928 1051.9 740.729C1107.6 705.531 1132.78 624.35 1128.15 521.139C1123.52 417.991 1089.1 293.132 1025.98 171.04C962.848 48.9474 882.99 -47.193 804.943 -103.947C726.849 -160.735 650.797 -177.943 595.099 -142.745C539.4 -107.547 514.22 -26.3659 518.855 76.8451C523.486 179.994 557.898 304.853 621.026 426.945Z" stroke="url(#paint84_linear_8965_1324)" stroke-width="1.55132"/>
<path d="M622.711 430.126C688.183 550.712 769.971 645.132 849.247 700.323C928.571 755.547 1005.15 771.355 1060.38 735.281C1115.62 699.207 1139.43 617.837 1132.96 515.037C1126.49 412.298 1089.76 288.445 1024.29 167.859C958.82 47.2734 877.031 -47.147 797.755 -102.338C718.431 -157.562 641.856 -173.369 586.619 -137.295C531.383 -101.221 507.57 -19.8514 514.045 82.9487C520.517 185.687 557.239 309.54 622.711 430.126Z" stroke="url(#paint85_linear_8965_1324)" stroke-width="1.55132"/>
<path d="M624.458 433.266C692.253 552.309 775.949 644.98 856.429 698.592C936.958 752.235 1014.03 766.637 1068.79 729.698C1123.55 692.759 1145.99 611.225 1137.67 508.867C1129.36 406.57 1090.34 283.761 1022.55 164.718C954.752 45.6747 871.056 -46.9969 790.575 -100.608C710.047 -154.252 632.971 -168.653 578.214 -131.714C523.456 -94.7756 501.016 -13.2414 509.331 89.1165C517.641 191.414 556.662 314.222 624.458 433.266Z" stroke="url(#paint86_linear_8965_1324)" stroke-width="1.55132"/>
<path d="M626.263 436.365C696.362 553.829 781.939 644.724 863.599 696.74C945.308 748.786 1022.86 761.777 1077.12 723.985C1131.38 686.193 1152.44 604.519 1142.29 502.634C1132.15 400.81 1090.84 279.082 1020.74 161.618C950.642 44.1542 865.065 -46.7404 783.404 -98.7559C701.695 -150.802 624.142 -163.794 569.881 -126.001C515.619 -88.209 494.559 -6.53536 504.711 95.3493C514.857 197.174 556.165 318.901 626.263 436.365Z" stroke="url(#paint87_linear_8965_1324)" stroke-width="1.55132"/>
<path d="M628.128 439.424C700.508 555.273 787.941 644.363 870.757 694.767C953.622 745.2 1031.63 756.778 1085.38 718.143C1139.13 679.509 1158.8 597.721 1146.81 496.341C1134.84 395.019 1091.25 274.41 1018.87 158.561C946.493 42.712 859.06 -46.378 776.244 -96.7817C693.38 -147.215 615.374 -158.792 561.625 -120.158C507.876 -81.5239 488.203 0.264258 500.188 101.645C512.166 202.966 555.749 323.575 628.128 439.424Z" stroke="url(#paint88_linear_8965_1324)" stroke-width="1.55132"/>
<path d="M630.056 442.439C704.695 556.638 793.956 643.896 877.903 692.673C961.898 741.478 1040.33 751.638 1093.55 712.173C1146.77 672.709 1165.05 590.831 1151.24 489.986C1137.43 389.199 1091.59 269.745 1016.95 155.546C942.309 41.347 853.048 -45.9113 769.101 -94.688C685.106 -143.493 606.671 -153.653 553.451 -114.188C500.231 -74.7238 481.95 7.15377 495.765 107.999C509.572 208.786 555.416 328.24 630.056 442.439Z" stroke="url(#paint89_linear_8965_1324)" stroke-width="1.55132"/>
<path d="M632.04 445.41C708.916 557.924 799.979 643.324 885.03 690.459C970.13 737.621 1048.97 746.36 1101.65 706.077C1154.32 665.795 1171.2 583.853 1155.56 483.573C1139.93 383.35 1091.84 265.088 1014.96 152.574C938.086 40.06 847.024 -45.34 761.973 -92.4748C676.873 -139.637 598.032 -148.375 545.357 -108.093C492.683 -67.8105 475.8 14.1315 491.441 114.411C507.073 214.634 555.164 332.896 632.04 445.41Z" stroke="url(#paint90_linear_8965_1324)" stroke-width="1.55132"/>
<path d="M634.084 448.337C713.173 559.132 806.01 642.648 892.139 688.126C978.318 733.631 1057.54 740.946 1109.65 699.858C1161.77 658.77 1177.25 576.788 1159.78 477.104C1142.33 377.477 1092.01 260.443 1012.92 149.648C933.83 38.8526 840.993 -44.6631 754.864 -90.1417C668.685 -135.646 589.463 -142.961 537.349 -101.873C485.236 -60.7849 469.757 21.1965 487.219 120.88C504.671 220.507 554.994 337.542 634.084 448.337Z" stroke="url(#paint91_linear_8965_1324)" stroke-width="1.55132"/>
<path d="M636.184 451.218C717.463 560.26 812.045 641.866 899.227 685.675C986.459 729.508 1066.04 735.397 1117.57 693.516C1169.11 651.634 1183.18 569.639 1163.9 470.581C1144.64 371.58 1092.1 255.809 1010.82 146.766C929.539 37.7242 834.957 -43.8818 747.775 -87.6904C660.543 -131.524 580.964 -137.413 529.428 -95.5315C477.892 -53.6501 463.821 28.3457 483.098 127.403C502.365 226.404 554.906 342.176 636.184 451.218Z" stroke="url(#paint92_linear_8965_1324)" stroke-width="1.55132"/>
<path d="M638.342 454.054C721.785 561.31 818.084 640.982 906.292 683.107C994.55 725.256 1074.46 729.717 1125.41 687.055C1176.35 644.393 1189.01 562.408 1167.92 464.008C1146.84 365.662 1092.1 251.189 1008.66 143.933C925.215 36.6764 828.917 -42.9951 740.708 -85.1203C652.45 -127.269 572.538 -131.731 521.595 -89.0688C470.653 -46.407 457.994 35.5781 479.081 133.979C500.156 232.324 554.898 346.797 638.342 454.054Z" stroke="url(#paint93_linear_8965_1324)" stroke-width="1.55132"/>
<path d="M640.558 456.84C726.14 562.278 824.126 639.991 913.334 680.42C1002.59 720.872 1082.81 723.904 1133.15 680.475C1183.48 637.045 1194.72 555.096 1171.83 457.382C1148.95 359.722 1092.03 246.582 1006.44 141.144C920.862 35.7067 822.877 -42.0061 733.669 -82.4351C644.412 -122.887 564.191 -125.919 513.857 -82.4898C463.523 -39.0607 452.28 42.8886 475.171 140.603C498.049 238.263 554.975 351.403 640.558 456.84Z" stroke="url(#paint94_linear_8965_1324)" stroke-width="1.55132"/>
<path d="M642.829 459.58C730.525 563.167 830.168 638.897 920.348 677.618C1010.58 716.36 1091.08 717.962 1140.79 673.779C1190.5 629.596 1200.32 547.707 1175.64 450.709C1150.96 353.764 1091.87 241.992 1004.18 138.405C916.48 34.8181 816.836 -40.9123 726.657 -79.6328C636.427 -118.375 555.922 -119.977 506.212 -75.7937C456.503 -31.6105 446.68 50.278 471.366 147.276C496.039 244.221 555.133 355.993 642.829 459.58Z" stroke="url(#paint95_linear_8965_1324)" stroke-width="1.55132"/>
<path d="M645.153 462.271C734.935 563.976 836.206 637.701 927.33 674.701C1018.5 711.722 1099.27 711.893 1148.34 666.969C1197.41 622.046 1205.81 540.243 1179.33 443.99C1152.87 347.791 1091.63 237.42 1001.85 135.715C912.066 34.0106 810.795 -39.7144 719.671 -76.7146C628.497 -113.735 547.732 -113.907 498.662 -68.983C449.592 -24.0593 441.191 57.7434 467.667 153.996C494.128 250.196 555.371 360.566 645.153 462.271Z" stroke="url(#paint96_linear_8965_1324)" stroke-width="1.55132"/>
<path d="M647.534 464.911C739.375 564.702 842.242 636.399 934.283 671.668C1026.37 706.957 1107.37 705.697 1155.79 660.046C1204.2 614.396 1211.18 532.704 1182.92 437.226C1154.68 341.8 1091.31 232.865 999.469 133.074C907.628 33.2822 804.76 -38.4149 712.72 -73.6837C620.628 -108.972 539.628 -107.712 491.213 -62.0619C442.797 -16.4115 435.822 65.2805 464.078 160.759C492.319 256.184 555.693 365.119 647.534 464.911Z" stroke="url(#paint97_linear_8965_1324)" stroke-width="1.55132"/>
<path d="M649.966 467.501C743.838 565.349 848.27 634.997 941.2 668.523C1034.18 702.068 1115.39 699.378 1163.14 653.015C1210.88 606.652 1216.43 525.095 1186.4 430.421C1156.39 335.799 1090.91 228.332 997.034 130.484C903.162 32.636 798.729 -37.0115 705.8 -70.538C612.819 -104.083 531.608 -101.393 483.863 -55.0296C436.117 -8.66649 430.568 72.8898 460.597 167.564C490.609 262.186 556.094 369.653 649.966 467.501Z" stroke="url(#paint98_linear_8965_1324)" stroke-width="1.55132"/>
<path d="M652.454 470.039C748.328 565.914 854.294 633.491 948.084 665.265C1041.93 697.057 1123.32 692.936 1170.38 645.875C1217.45 598.813 1221.57 517.417 1189.77 423.575C1158 329.785 1090.42 223.82 994.548 127.945C898.674 32.0702 792.708 -35.5064 698.918 -67.2805C605.076 -99.0722 523.68 -94.952 476.618 -47.8903C429.557 -0.828645 425.437 80.567 457.228 174.409C489.002 268.199 556.579 374.165 652.454 470.039Z" stroke="url(#paint99_linear_8965_1324)" stroke-width="1.55132"/>
<defs>
<linearGradient id="paint0_linear_8965_1324" x1="890.118" y1="398.624" x2="741.997" y2="204.936" gradientUnits="userSpaceOnUse">
<stop stop-color="#AC6700"/>
<stop offset="1" stop-color="#ED5A00"/>
</linearGradient>
<linearGradient id="paint1_linear_8965_1324" x1="892.074" y1="397.128" x2="741.218" y2="205.794" gradientUnits="userSpaceOnUse">
<stop stop-color="#AC6700"/>
<stop offset="1" stop-color="#ED5A00"/>
</linearGradient>
<linearGradient id="paint2_linear_8965_1324" x1="894.009" y1="395.601" x2="740.447" y2="206.64" gradientUnits="userSpaceOnUse">
<stop stop-color="#AC6700"/>
<stop offset="1" stop-color="#ED5A00"/>
</linearGradient>
<linearGradient id="paint3_linear_8965_1324" x1="895.923" y1="394.046" x2="739.681" y2="207.477" gradientUnits="userSpaceOnUse">
<stop stop-color="#AC6700"/>
<stop offset="1" stop-color="#ED5A00"/>
</linearGradient>
<linearGradient id="paint4_linear_8965_1324" x1="897.815" y1="392.462" x2="738.919" y2="208.304" gradientUnits="userSpaceOnUse">
<stop stop-color="#AC6700"/>
<stop offset="1" stop-color="#ED5A00"/>
</linearGradient>
<linearGradient id="paint5_linear_8965_1324" x1="899.683" y1="390.849" x2="738.159" y2="209.121" gradientUnits="userSpaceOnUse">
<stop stop-color="#AC6700"/>
<stop offset="1" stop-color="#ED5A00"/>
</linearGradient>
<linearGradient id="paint6_linear_8965_1324" x1="901.529" y1="389.208" x2="737.4" y2="209.931" gradientUnits="userSpaceOnUse">
<stop stop-color="#AC6700"/>
<stop offset="1" stop-color="#ED5A00"/>
</linearGradient>
<linearGradient id="paint7_linear_8965_1324" x1="903.352" y1="387.538" x2="736.643" y2="210.732" gradientUnits="userSpaceOnUse">
<stop stop-color="#AC6700"/>
<stop offset="1" stop-color="#ED5A00"/>
</linearGradient>
<linearGradient id="paint8_linear_8965_1324" x1="905.148" y1="385.843" x2="735.882" y2="211.529" gradientUnits="userSpaceOnUse">
<stop stop-color="#AC6700"/>
<stop offset="1" stop-color="#ED5A00"/>
</linearGradient>
<linearGradient id="paint9_linear_8965_1324" x1="906.921" y1="384.121" x2="735.121" y2="212.32" gradientUnits="userSpaceOnUse">
<stop stop-color="#AC6700"/>
<stop offset="1" stop-color="#ED5A00"/>
</linearGradient>
<linearGradient id="paint10_linear_8965_1324" x1="908.668" y1="382.374" x2="734.354" y2="213.108" gradientUnits="userSpaceOnUse">
<stop stop-color="#AC6700"/>
<stop offset="1" stop-color="#ED5A00"/>
</linearGradient>
<linearGradient id="paint11_linear_8965_1324" x1="910.39" y1="380.601" x2="733.584" y2="213.892" gradientUnits="userSpaceOnUse">
<stop stop-color="#AC6700"/>
<stop offset="1" stop-color="#ED5A00"/>
</linearGradient>
<linearGradient id="paint12_linear_8965_1324" x1="912.084" y1="378.802" x2="732.808" y2="214.673" gradientUnits="userSpaceOnUse">
<stop stop-color="#AC6700"/>
<stop offset="1" stop-color="#ED5A00"/>
</linearGradient>
<linearGradient id="paint13_linear_8965_1324" x1="913.752" y1="376.979" x2="732.024" y2="215.455" gradientUnits="userSpaceOnUse">
<stop stop-color="#AC6700"/>
<stop offset="1" stop-color="#ED5A00"/>
</linearGradient>
<linearGradient id="paint14_linear_8965_1324" x1="915.392" y1="375.134" x2="731.234" y2="216.238" gradientUnits="userSpaceOnUse">
<stop stop-color="#AC6700"/>
<stop offset="1" stop-color="#ED5A00"/>
</linearGradient>
<linearGradient id="paint15_linear_8965_1324" x1="917.006" y1="373.264" x2="730.436" y2="217.022" gradientUnits="userSpaceOnUse">
<stop stop-color="#AC6700"/>
<stop offset="1" stop-color="#ED5A00"/>
</linearGradient>
<linearGradient id="paint16_linear_8965_1324" x1="918.589" y1="371.372" x2="729.627" y2="217.81" gradientUnits="userSpaceOnUse">
<stop stop-color="#AC6700"/>
<stop offset="1" stop-color="#ED5A00"/>
</linearGradient>
<linearGradient id="paint17_linear_8965_1324" x1="920.142" y1="369.459" x2="728.808" y2="218.604" gradientUnits="userSpaceOnUse">
<stop stop-color="#AC6700"/>
<stop offset="1" stop-color="#ED5A00"/>
</linearGradient>
<linearGradient id="paint18_linear_8965_1324" x1="921.67" y1="367.523" x2="727.981" y2="219.401" gradientUnits="userSpaceOnUse">
<stop stop-color="#AC6700"/>
<stop offset="1" stop-color="#ED5A00"/>
</linearGradient>
<linearGradient id="paint19_linear_8965_1324" x1="923.165" y1="365.567" x2="727.14" y2="220.208" gradientUnits="userSpaceOnUse">
<stop stop-color="#AC6700"/>
<stop offset="1" stop-color="#ED5A00"/>
</linearGradient>
<linearGradient id="paint20_linear_8965_1324" x1="924.629" y1="363.591" x2="726.287" y2="221.025" gradientUnits="userSpaceOnUse">
<stop stop-color="#AC6700"/>
<stop offset="1" stop-color="#ED5A00"/>
</linearGradient>
<linearGradient id="paint21_linear_8965_1324" x1="926.065" y1="361.594" x2="725.424" y2="221.851" gradientUnits="userSpaceOnUse">
<stop stop-color="#AC6700"/>
<stop offset="1" stop-color="#ED5A00"/>
</linearGradient>
<linearGradient id="paint22_linear_8965_1324" x1="927.468" y1="359.579" x2="724.548" y2="222.69" gradientUnits="userSpaceOnUse">
<stop stop-color="#AC6700"/>
<stop offset="1" stop-color="#ED5A00"/>
</linearGradient>
<linearGradient id="paint23_linear_8965_1324" x1="928.839" y1="357.544" x2="723.657" y2="223.543" gradientUnits="userSpaceOnUse">
<stop stop-color="#AC6700"/>
<stop offset="1" stop-color="#ED5A00"/>
</linearGradient>
<linearGradient id="paint24_linear_8965_1324" x1="930.178" y1="355.494" x2="722.754" y2="224.413" gradientUnits="userSpaceOnUse">
<stop stop-color="#AC6700"/>
<stop offset="1" stop-color="#ED5A00"/>
</linearGradient>
<linearGradient id="paint25_linear_8965_1324" x1="931.485" y1="353.424" x2="721.837" y2="225.299" gradientUnits="userSpaceOnUse">
<stop stop-color="#AC6700"/>
<stop offset="1" stop-color="#ED5A00"/>
</linearGradient>
<linearGradient id="paint26_linear_8965_1324" x1="932.759" y1="351.339" x2="720.907" y2="226.204" gradientUnits="userSpaceOnUse">
<stop stop-color="#AC6700"/>
<stop offset="1" stop-color="#ED5A00"/>
</linearGradient>
<linearGradient id="paint27_linear_8965_1324" x1="934.001" y1="349.237" x2="719.964" y2="227.13" gradientUnits="userSpaceOnUse">
<stop stop-color="#AC6700"/>
<stop offset="1" stop-color="#ED5A00"/>
</linearGradient>
<linearGradient id="paint28_linear_8965_1324" x1="935.208" y1="347.121" x2="719.007" y2="228.08" gradientUnits="userSpaceOnUse">
<stop stop-color="#AC6700"/>
<stop offset="1" stop-color="#ED5A00"/>
</linearGradient>
<linearGradient id="paint29_linear_8965_1324" x1="936.381" y1="344.989" x2="718.037" y2="229.053" gradientUnits="userSpaceOnUse">
<stop stop-color="#AC6700"/>
<stop offset="1" stop-color="#ED5A00"/>
</linearGradient>
<linearGradient id="paint30_linear_8965_1324" x1="937.519" y1="342.844" x2="717.053" y2="230.053" gradientUnits="userSpaceOnUse">
<stop stop-color="#AC6700"/>
<stop offset="1" stop-color="#ED5A00"/>
</linearGradient>
<linearGradient id="paint31_linear_8965_1324" x1="938.624" y1="340.685" x2="716.057" y2="231.079" gradientUnits="userSpaceOnUse">
<stop stop-color="#AC6700"/>
<stop offset="1" stop-color="#ED5A00"/>
</linearGradient>
<linearGradient id="paint32_linear_8965_1324" x1="939.693" y1="338.513" x2="715.049" y2="232.137" gradientUnits="userSpaceOnUse">
<stop stop-color="#AC6700"/>
<stop offset="1" stop-color="#ED5A00"/>
</linearGradient>
<linearGradient id="paint33_linear_8965_1324" x1="940.725" y1="336.33" x2="714.027" y2="233.225" gradientUnits="userSpaceOnUse">
<stop stop-color="#AC6700"/>
<stop offset="1" stop-color="#ED5A00"/>
</linearGradient>
<linearGradient id="paint34_linear_8965_1324" x1="941.723" y1="334.135" x2="712.996" y2="234.347" gradientUnits="userSpaceOnUse">
<stop stop-color="#AC6700"/>
<stop offset="1" stop-color="#ED5A00"/>
</linearGradient>
<linearGradient id="paint35_linear_8965_1324" x1="942.685" y1="331.93" x2="711.954" y2="235.505" gradientUnits="userSpaceOnUse">
<stop stop-color="#AC6700"/>
<stop offset="1" stop-color="#ED5A00"/>
</linearGradient>
<linearGradient id="paint36_linear_8965_1324" x1="943.611" y1="329.714" x2="710.903" y2="236.698" gradientUnits="userSpaceOnUse">
<stop stop-color="#AC6700"/>
<stop offset="1" stop-color="#ED5A00"/>
</linearGradient>
<linearGradient id="paint37_linear_8965_1324" x1="944.5" y1="327.489" x2="709.842" y2="237.931" gradientUnits="userSpaceOnUse">
<stop stop-color="#AC6700"/>
<stop offset="1" stop-color="#ED5A00"/>
</linearGradient>
<linearGradient id="paint38_linear_8965_1324" x1="945.352" y1="325.256" x2="708.774" y2="239.204" gradientUnits="userSpaceOnUse">
<stop stop-color="#AC6700"/>
<stop offset="1" stop-color="#ED5A00"/>
</linearGradient>
<linearGradient id="paint39_linear_8965_1324" x1="946.167" y1="323.014" x2="707.7" y2="240.52" gradientUnits="userSpaceOnUse">
<stop stop-color="#AC6700"/>
<stop offset="1" stop-color="#ED5A00"/>
</linearGradient>
<linearGradient id="paint40_linear_8965_1324" x1="946.945" y1="320.765" x2="706.62" y2="241.879" gradientUnits="userSpaceOnUse">
<stop stop-color="#AC6700"/>
<stop offset="1" stop-color="#ED5A00"/>
</linearGradient>
<linearGradient id="paint41_linear_8965_1324" x1="947.682" y1="318.51" x2="705.534" y2="243.284" gradientUnits="userSpaceOnUse">
<stop stop-color="#AC6700"/>
<stop offset="1" stop-color="#ED5A00"/>
</linearGradient>
<linearGradient id="paint42_linear_8965_1324" x1="948.387" y1="316.247" x2="704.449" y2="244.736" gradientUnits="userSpaceOnUse">
<stop stop-color="#AC6700"/>
<stop offset="1" stop-color="#ED5A00"/>
</linearGradient>
<linearGradient id="paint43_linear_8965_1324" x1="949.05" y1="313.98" x2="703.36" y2="246.237" gradientUnits="userSpaceOnUse">
<stop stop-color="#AC6700"/>
<stop offset="1" stop-color="#ED5A00"/>
</linearGradient>
<linearGradient id="paint44_linear_8965_1324" x1="949.675" y1="311.71" x2="702.272" y2="247.79" gradientUnits="userSpaceOnUse">
<stop stop-color="#AC6700"/>
<stop offset="1" stop-color="#ED5A00"/>
</linearGradient>
<linearGradient id="paint45_linear_8965_1324" x1="950.263" y1="309.434" x2="701.189" y2="249.393" gradientUnits="userSpaceOnUse">
<stop stop-color="#AC6700"/>
<stop offset="1" stop-color="#ED5A00"/>
</linearGradient>
<linearGradient id="paint46_linear_8965_1324" x1="950.812" y1="307.156" x2="700.108" y2="251.051" gradientUnits="userSpaceOnUse">
<stop stop-color="#AC6700"/>
<stop offset="1" stop-color="#ED5A00"/>
</linearGradient>
<linearGradient id="paint47_linear_8965_1324" x1="951.323" y1="304.875" x2="699.035" y2="252.763" gradientUnits="userSpaceOnUse">
<stop stop-color="#AC6700"/>
<stop offset="1" stop-color="#ED5A00"/>
</linearGradient>
<linearGradient id="paint48_linear_8965_1324" x1="951.793" y1="302.592" x2="697.968" y2="254.531" gradientUnits="userSpaceOnUse">
<stop stop-color="#AC6700"/>
<stop offset="1" stop-color="#ED5A00"/>
</linearGradient>
<linearGradient id="paint49_linear_8965_1324" x1="952.225" y1="300.31" x2="696.914" y2="256.358" gradientUnits="userSpaceOnUse">
<stop stop-color="#AC6700"/>
<stop offset="1" stop-color="#ED5A00"/>
</linearGradient>
<linearGradient id="paint50_linear_8965_1324" x1="952.617" y1="298.026" x2="695.871" y2="258.243" gradientUnits="userSpaceOnUse">
<stop stop-color="#AC6700"/>
<stop offset="1" stop-color="#ED5A00"/>
</linearGradient>
<linearGradient id="paint51_linear_8965_1324" x1="952.972" y1="295.741" x2="694.845" y2="260.187" gradientUnits="userSpaceOnUse">
<stop stop-color="#AC6700"/>
<stop offset="1" stop-color="#ED5A00"/>
</linearGradient>
<linearGradient id="paint52_linear_8965_1324" x1="953.286" y1="293.458" x2="693.837" y2="262.191" gradientUnits="userSpaceOnUse">
<stop stop-color="#AC6700"/>
<stop offset="1" stop-color="#ED5A00"/>
</linearGradient>
<linearGradient id="paint53_linear_8965_1324" x1="953.561" y1="291.177" x2="692.849" y2="264.257" gradientUnits="userSpaceOnUse">
<stop stop-color="#AC6700"/>
<stop offset="1" stop-color="#ED5A00"/>
</linearGradient>
<linearGradient id="paint54_linear_8965_1324" x1="953.794" y1="288.898" x2="691.883" y2="266.386" gradientUnits="userSpaceOnUse">
<stop stop-color="#AC6700"/>
<stop offset="1" stop-color="#ED5A00"/>
</linearGradient>
<linearGradient id="paint55_linear_8965_1324" x1="953.99" y1="286.622" x2="690.945" y2="268.577" gradientUnits="userSpaceOnUse">
<stop stop-color="#AC6700"/>
<stop offset="1" stop-color="#ED5A00"/>
</linearGradient>
<linearGradient id="paint56_linear_8965_1324" x1="954.145" y1="284.35" x2="690.035" y2="270.832" gradientUnits="userSpaceOnUse">
<stop stop-color="#AC6700"/>
<stop offset="1" stop-color="#ED5A00"/>
</linearGradient>
<linearGradient id="paint57_linear_8965_1324" x1="954.261" y1="282.082" x2="689.158" y2="273.149" gradientUnits="userSpaceOnUse">
<stop stop-color="#AC6700"/>
<stop offset="1" stop-color="#ED5A00"/>
</linearGradient>
<linearGradient id="paint58_linear_8965_1324" x1="954.337" y1="279.82" x2="688.316" y2="275.531" gradientUnits="userSpaceOnUse">
<stop stop-color="#AC6700"/>
<stop offset="1" stop-color="#ED5A00"/>
</linearGradient>
<linearGradient id="paint59_linear_8965_1324" x1="954.373" y1="277.564" x2="687.512" y2="277.977" gradientUnits="userSpaceOnUse">
<stop stop-color="#AC6700"/>
<stop offset="1" stop-color="#ED5A00"/>
</linearGradient>
<linearGradient id="paint60_linear_8965_1324" x1="954.37" y1="275.314" x2="686.751" y2="280.485" gradientUnits="userSpaceOnUse">
<stop stop-color="#AC6700"/>
<stop offset="1" stop-color="#ED5A00"/>
</linearGradient>
<linearGradient id="paint61_linear_8965_1324" x1="954.326" y1="273.071" x2="686.034" y2="283.058" gradientUnits="userSpaceOnUse">
<stop stop-color="#AC6700"/>
<stop offset="1" stop-color="#ED5A00"/>
</linearGradient>
<linearGradient id="paint62_linear_8965_1324" x1="954.241" y1="270.837" x2="685.364" y2="285.693" gradientUnits="userSpaceOnUse">
<stop stop-color="#AC6700"/>
<stop offset="1" stop-color="#ED5A00"/>
</linearGradient>
<linearGradient id="paint63_linear_8965_1324" x1="954.117" y1="268.61" x2="684.747" y2="288.39" gradientUnits="userSpaceOnUse">
<stop stop-color="#AC6700"/>
<stop offset="1" stop-color="#ED5A00"/>
</linearGradient>
<linearGradient id="paint64_linear_8965_1324" x1="953.955" y1="266.393" x2="684.186" y2="291.148" gradientUnits="userSpaceOnUse">
<stop stop-color="#AC6700"/>
<stop offset="1" stop-color="#ED5A00"/>
</linearGradient>
<linearGradient id="paint65_linear_8965_1324" x1="953.753" y1="264.186" x2="683.684" y2="293.966" gradientUnits="userSpaceOnUse">
<stop stop-color="#AC6700"/>
<stop offset="1" stop-color="#ED5A00"/>
</linearGradient>
<linearGradient id="paint66_linear_8965_1324" x1="953.51" y1="261.988" x2="683.243" y2="296.842" gradientUnits="userSpaceOnUse">
<stop stop-color="#AC6700"/>
<stop offset="1" stop-color="#ED5A00"/>
</linearGradient>
<linearGradient id="paint67_linear_8965_1324" x1="953.227" y1="259.804" x2="682.867" y2="299.777" gradientUnits="userSpaceOnUse">
<stop stop-color="#AC6700"/>
<stop offset="1" stop-color="#ED5A00"/>
</linearGradient>
<linearGradient id="paint68_linear_8965_1324" x1="952.905" y1="257.631" x2="682.561" y2="302.765" gradientUnits="userSpaceOnUse">
<stop stop-color="#AC6700"/>
<stop offset="1" stop-color="#ED5A00"/>
</linearGradient>
<linearGradient id="paint69_linear_8965_1324" x1="952.545" y1="255.47" x2="682.329" y2="305.807" gradientUnits="userSpaceOnUse">
<stop stop-color="#AC6700"/>
<stop offset="1" stop-color="#ED5A00"/>
</linearGradient>
<linearGradient id="paint70_linear_8965_1324" x1="952.144" y1="253.322" x2="682.17" y2="308.9" gradientUnits="userSpaceOnUse">
<stop stop-color="#AC6700"/>
<stop offset="1" stop-color="#ED5A00"/>
</linearGradient>
<linearGradient id="paint71_linear_8965_1324" x1="951.704" y1="251.188" x2="682.091" y2="312.042" gradientUnits="userSpaceOnUse">
<stop stop-color="#AC6700"/>
<stop offset="1" stop-color="#ED5A00"/>
</linearGradient>
<linearGradient id="paint72_linear_8965_1324" x1="951.226" y1="249.07" x2="682.095" y2="315.23" gradientUnits="userSpaceOnUse">
<stop stop-color="#AC6700"/>
<stop offset="1" stop-color="#ED5A00"/>
</linearGradient>
<linearGradient id="paint73_linear_8965_1324" x1="950.706" y1="246.967" x2="682.182" y2="318.462" gradientUnits="userSpaceOnUse">
<stop stop-color="#AC6700"/>
<stop offset="1" stop-color="#ED5A00"/>
</linearGradient>
<linearGradient id="paint74_linear_8965_1324" x1="950.151" y1="244.878" x2="682.361" y2="321.733" gradientUnits="userSpaceOnUse">
<stop stop-color="#AC6700"/>
<stop offset="1" stop-color="#ED5A00"/>
</linearGradient>
<linearGradient id="paint75_linear_8965_1324" x1="949.555" y1="242.807" x2="682.628" y2="325.04" gradientUnits="userSpaceOnUse">
<stop stop-color="#AC6700"/>
<stop offset="1" stop-color="#ED5A00"/>
</linearGradient>
<linearGradient id="paint76_linear_8965_1324" x1="948.923" y1="240.752" x2="682.992" y2="328.38" gradientUnits="userSpaceOnUse">
<stop stop-color="#AC6700"/>
<stop offset="1" stop-color="#ED5A00"/>
</linearGradient>
<linearGradient id="paint77_linear_8965_1324" x1="948.252" y1="238.715" x2="683.453" y2="331.75" gradientUnits="userSpaceOnUse">
<stop stop-color="#AC6700"/>
<stop offset="1" stop-color="#ED5A00"/>
</linearGradient>
<linearGradient id="paint78_linear_8965_1324" x1="947.542" y1="236.697" x2="684.01" y2="335.145" gradientUnits="userSpaceOnUse">
<stop stop-color="#AC6700"/>
<stop offset="1" stop-color="#ED5A00"/>
</linearGradient>
<linearGradient id="paint79_linear_8965_1324" x1="946.794" y1="234.698" x2="684.67" y2="338.561" gradientUnits="userSpaceOnUse">
<stop stop-color="#AC6700"/>
<stop offset="1" stop-color="#ED5A00"/>
</linearGradient>
<linearGradient id="paint80_linear_8965_1324" x1="946.01" y1="232.718" x2="685.434" y2="341.993" gradientUnits="userSpaceOnUse">
<stop stop-color="#AC6700"/>
<stop offset="1" stop-color="#ED5A00"/>
</linearGradient>
<linearGradient id="paint81_linear_8965_1324" x1="945.187" y1="230.76" x2="686.301" y2="345.439" gradientUnits="userSpaceOnUse">
<stop stop-color="#AC6700"/>
<stop offset="1" stop-color="#ED5A00"/>
</linearGradient>
<linearGradient id="paint82_linear_8965_1324" x1="944.328" y1="228.821" x2="687.276" y2="348.89" gradientUnits="userSpaceOnUse">
<stop stop-color="#AC6700"/>
<stop offset="1" stop-color="#ED5A00"/>
</linearGradient>
<linearGradient id="paint83_linear_8965_1324" x1="943.432" y1="226.903" x2="688.36" y2="352.344" gradientUnits="userSpaceOnUse">
<stop stop-color="#AC6700"/>
<stop offset="1" stop-color="#ED5A00"/>
</linearGradient>
<linearGradient id="paint84_linear_8965_1324" x1="942.499" y1="225.007" x2="689.552" y2="355.796" gradientUnits="userSpaceOnUse">
<stop stop-color="#AC6700"/>
<stop offset="1" stop-color="#ED5A00"/>
</linearGradient>
<linearGradient id="paint85_linear_8965_1324" x1="941.53" y1="223.135" x2="690.853" y2="359.24" gradientUnits="userSpaceOnUse">
<stop stop-color="#AC6700"/>
<stop offset="1" stop-color="#ED5A00"/>
</linearGradient>
<linearGradient id="paint86_linear_8965_1324" x1="940.527" y1="221.284" x2="692.265" y2="362.67" gradientUnits="userSpaceOnUse">
<stop stop-color="#AC6700"/>
<stop offset="1" stop-color="#ED5A00"/>
</linearGradient>
<linearGradient id="paint87_linear_8965_1324" x1="939.486" y1="219.458" x2="693.786" y2="366.083" gradientUnits="userSpaceOnUse">
<stop stop-color="#AC6700"/>
<stop offset="1" stop-color="#ED5A00"/>
</linearGradient>
<linearGradient id="paint88_linear_8965_1324" x1="938.409" y1="217.657" x2="695.416" y2="369.474" gradientUnits="userSpaceOnUse">
<stop stop-color="#AC6700"/>
<stop offset="1" stop-color="#ED5A00"/>
</linearGradient>
<linearGradient id="paint89_linear_8965_1324" x1="937.299" y1="215.88" x2="697.158" y2="372.834" gradientUnits="userSpaceOnUse">
<stop stop-color="#AC6700"/>
<stop offset="1" stop-color="#ED5A00"/>
</linearGradient>
<linearGradient id="paint90_linear_8965_1324" x1="936.153" y1="214.128" x2="699.007" y2="376.16" gradientUnits="userSpaceOnUse">
<stop stop-color="#AC6700"/>
<stop offset="1" stop-color="#ED5A00"/>
</linearGradient>
<linearGradient id="paint91_linear_8965_1324" x1="934.974" y1="212.402" x2="700.964" y2="379.447" gradientUnits="userSpaceOnUse">
<stop stop-color="#AC6700"/>
<stop offset="1" stop-color="#ED5A00"/>
</linearGradient>
<linearGradient id="paint92_linear_8965_1324" x1="933.759" y1="210.703" x2="703.026" y2="382.689" gradientUnits="userSpaceOnUse">
<stop stop-color="#AC6700"/>
<stop offset="1" stop-color="#ED5A00"/>
</linearGradient>
<linearGradient id="paint93_linear_8965_1324" x1="932.511" y1="209.031" x2="705.191" y2="385.882" gradientUnits="userSpaceOnUse">
<stop stop-color="#AC6700"/>
<stop offset="1" stop-color="#ED5A00"/>
</linearGradient>
<linearGradient id="paint94_linear_8965_1324" x1="931.232" y1="207.385" x2="707.461" y2="389.017" gradientUnits="userSpaceOnUse">
<stop stop-color="#AC6700"/>
<stop offset="1" stop-color="#ED5A00"/>
</linearGradient>
<linearGradient id="paint95_linear_8965_1324" x1="929.919" y1="205.768" x2="709.829" y2="392.094" gradientUnits="userSpaceOnUse">
<stop stop-color="#AC6700"/>
<stop offset="1" stop-color="#ED5A00"/>
</linearGradient>
<linearGradient id="paint96_linear_8965_1324" x1="928.572" y1="204.18" x2="712.292" y2="395.105" gradientUnits="userSpaceOnUse">
<stop stop-color="#AC6700"/>
<stop offset="1" stop-color="#ED5A00"/>
</linearGradient>
<linearGradient id="paint97_linear_8965_1324" x1="927.195" y1="202.619" x2="714.85" y2="398.045" gradientUnits="userSpaceOnUse">
<stop stop-color="#AC6700"/>
<stop offset="1" stop-color="#ED5A00"/>
</linearGradient>
<linearGradient id="paint98_linear_8965_1324" x1="925.784" y1="201.088" x2="717.497" y2="400.912" gradientUnits="userSpaceOnUse">
<stop stop-color="#AC6700"/>
<stop offset="1" stop-color="#ED5A00"/>
</linearGradient>
<linearGradient id="paint99_linear_8965_1324" x1="924.345" y1="199.587" x2="720.233" y2="403.699" gradientUnits="userSpaceOnUse">
<stop stop-color="#AC6700"/>
<stop offset="1" stop-color="#ED5A00"/>
</linearGradient>
</defs>
</svg>
