<svg width="678" height="644" viewBox="0 0 678 644" fill="none" xmlns="http://www.w3.org/2000/svg">
<path d="M203.497 208.852C182.8 49.6333 141.163 -92.7393 90.6012 -194.209C65.3186 -244.947 37.8243 -285.418 9.63391 -312.656C-18.5607 -339.899 -47.3623 -353.825 -75.3049 -351.702C-103.248 -349.58 -127.901 -331.594 -148.531 -300.644C-169.158 -269.698 -185.695 -225.883 -197.421 -172.334C-220.872 -65.2436 -225.041 80.6078 -204.344 239.826C-183.647 399.044 -142.01 541.417 -91.4478 642.887C-66.1651 693.625 -38.6708 734.096 -10.4804 761.334C17.7141 788.576 46.5158 802.502 74.4584 800.38C102.401 798.258 127.054 780.272 147.684 749.322C168.311 718.376 184.849 674.561 196.575 621.012C220.025 513.921 224.195 368.07 203.497 208.852Z" stroke="url(#paint0_linear_8965_1492)" stroke-width="1.55132"/>
<path d="M202.924 204.684C179.857 45.6702 136.141 -96.0496 84.1311 -196.629C58.1246 -246.923 30.0651 -286.89 1.51037 -313.592C-27.0487 -340.298 -56.0123 -353.657 -83.8755 -350.964C-111.739 -348.271 -136.079 -329.76 -156.208 -298.348C-176.333 -266.941 -192.182 -222.73 -203.08 -168.87C-224.875 -61.1567 -226.836 84.978 -203.77 243.992C-180.704 403.006 -136.987 544.726 -84.9775 645.306C-58.971 695.599 -30.9114 735.566 -2.35674 762.268C26.2023 788.974 55.1659 802.333 83.0291 799.64C110.892 796.947 135.233 778.436 155.361 747.024C175.487 715.617 191.336 671.406 202.234 617.546C224.029 509.833 225.99 363.698 202.924 204.684Z" stroke="url(#paint1_linear_8965_1492)" stroke-width="1.55132"/>
<path d="M202.289 200.525C176.861 41.7634 131.077 -99.2604 77.6362 -198.92C50.9137 -248.753 22.2975 -288.204 -6.61283 -314.362C-35.5276 -340.524 -64.6444 -353.312 -92.4198 -350.049C-120.195 -346.786 -144.216 -327.755 -163.837 -295.891C-183.455 -264.032 -198.61 -219.439 -208.677 -165.284C-228.81 -56.9809 -228.562 89.3925 -203.134 248.154C-177.705 406.915 -131.922 547.939 -78.4807 647.598C-51.7582 697.431 -23.142 736.882 5.76831 763.04C34.6831 789.202 63.7999 801.99 91.5752 798.727C119.351 795.464 143.371 776.434 162.992 744.57C182.61 712.711 197.765 668.117 207.832 613.962C227.965 505.659 227.717 359.286 202.289 200.525Z" stroke="url(#paint2_linear_8965_1492)" stroke-width="1.55132"/>
<path d="M201.591 196.371C173.809 37.9109 125.973 -102.374 71.1158 -201.082C43.6856 -250.44 14.5214 -289.363 -14.7357 -314.969C-43.9975 -340.579 -73.2585 -352.792 -100.938 -348.96C-128.617 -345.128 -152.31 -325.583 -171.418 -293.277C-190.522 -260.975 -204.979 -216.014 -214.212 -161.58C-232.676 -52.7206 -230.219 93.8467 -202.437 252.307C-174.655 410.767 -126.819 551.052 -71.9619 649.761C-44.5316 699.118 -15.3674 738.041 13.8897 763.647C43.1514 789.257 72.4125 801.47 100.092 797.638C127.771 793.806 151.464 774.262 170.571 741.955C189.676 709.654 204.133 664.692 213.366 610.258C231.83 501.399 229.373 354.832 201.591 196.371Z" stroke="url(#paint3_linear_8965_1492)" stroke-width="1.55132"/>
<path d="M200.832 192.226C170.704 34.1153 120.83 -105.388 64.5744 -203.115C36.4447 -251.982 6.74149 -290.365 -22.8535 -315.411C-52.4533 -340.461 -81.8498 -352.096 -109.424 -347.696C-136.999 -343.296 -160.358 -323.244 -178.946 -290.505C-197.531 -257.771 -211.285 -212.454 -219.681 -157.759C-236.472 -48.3759 -231.806 98.3408 -201.678 256.452C-171.55 414.563 -121.676 554.066 -65.4208 651.793C-37.2911 700.66 -7.58784 739.043 22.0071 764.089C51.6069 789.139 81.0034 800.774 108.578 796.374C136.153 791.974 159.511 771.922 178.1 739.183C196.685 706.449 210.439 661.132 218.835 606.437C235.625 497.054 230.96 350.337 200.832 192.226Z" stroke="url(#paint4_linear_8965_1492)" stroke-width="1.55132"/>
<path d="M200.012 188.091C167.548 30.3778 115.651 -108.301 58.0139 -205.018C29.1933 -253.379 -1.0399 -291.211 -30.9638 -315.689C-60.8925 -340.171 -90.4155 -351.224 -117.877 -346.257C-145.339 -341.291 -168.356 -320.737 -186.419 -287.576C-204.479 -254.42 -217.527 -208.761 -225.083 -153.821C-240.195 -43.948 -233.323 102.873 -200.858 260.587C-168.393 418.3 -116.497 556.979 -58.8595 653.696C-30.0389 702.058 0.194355 739.889 30.1182 764.367C60.0469 788.849 89.5699 799.902 117.032 794.935C144.494 789.969 167.511 769.415 185.574 736.254C203.634 703.098 216.681 657.439 224.238 602.499C239.349 492.626 232.477 345.805 200.012 188.091Z" stroke="url(#paint5_linear_8965_1492)" stroke-width="1.55132"/>
<path d="M199.131 183.967C164.34 26.6996 110.436 -111.113 51.4351 -206.789C21.9324 -254.631 -8.82162 -291.899 -39.0652 -315.802C-69.3138 -339.709 -98.9543 -350.176 -126.295 -344.645C-153.636 -339.114 -176.305 -318.064 -193.837 -284.49C-211.367 -250.922 -223.703 -204.937 -230.417 -149.768C-243.846 -39.4382 -234.769 107.443 -199.977 264.711C-165.186 421.979 -111.282 559.791 -52.281 655.468C-22.7784 703.309 7.97563 740.577 38.2192 764.48C68.4678 788.388 98.1083 798.855 125.449 793.323C152.79 787.792 175.459 766.742 192.991 733.169C210.521 699.6 222.857 653.615 229.571 598.446C243 488.116 233.923 341.235 199.131 183.967Z" stroke="url(#paint6_linear_8965_1492)" stroke-width="1.55132"/>
<path d="M198.19 179.857C161.083 23.0828 105.189 -113.821 44.8414 -208.428C14.6656 -255.735 -16.5998 -292.428 -47.1539 -315.749C-77.7131 -339.074 -107.462 -348.953 -134.674 -342.858C-161.886 -336.763 -184.198 -315.225 -201.195 -281.249C-218.189 -247.278 -229.81 -200.979 -235.681 -145.599C-247.421 -34.8466 -236.142 112.05 -199.035 268.824C-161.928 425.598 -106.034 562.502 -45.6861 657.109C-15.5103 704.416 15.7551 741.11 46.3092 764.431C76.8684 787.755 106.617 797.634 133.829 791.539C161.041 785.445 183.354 763.906 200.35 729.93C217.344 695.96 228.966 649.661 234.836 594.28C246.577 483.528 235.298 336.631 198.19 179.857Z" stroke="url(#paint7_linear_8965_1492)" stroke-width="1.55132"/>
<path d="M197.189 175.757C157.777 19.5243 99.9089 -116.429 38.2338 -209.938C7.39416 -256.696 -24.3731 -292.804 -55.2285 -315.535C-86.0889 -338.27 -115.938 -347.557 -143.012 -340.901C-170.086 -334.245 -192.037 -312.224 -208.492 -277.856C-224.945 -243.494 -235.848 -196.896 -240.873 -141.321C-250.922 -30.1791 -237.445 116.688 -198.033 272.921C-158.621 429.154 -100.753 565.107 -39.0778 658.616C-8.23812 705.374 23.5292 741.481 54.3845 764.213C85.2449 786.948 115.094 796.235 142.168 789.579C169.242 782.923 191.193 760.902 207.648 726.534C224.101 692.172 235.004 645.574 240.029 589.999C250.078 478.857 236.601 331.99 197.189 175.757Z" stroke="url(#paint8_linear_8965_1492)" stroke-width="1.55132"/>
<path d="M196.126 171.675C154.421 16.0308 94.5978 -118.931 31.6138 -211.313C0.119625 -257.507 -32.1399 -293.018 -63.2869 -315.154C-94.4393 -337.292 -124.378 -345.985 -151.307 -338.77C-178.236 -331.554 -199.817 -309.056 -215.727 -274.307C-231.633 -239.564 -241.815 -192.681 -245.993 -136.929C-254.348 -25.4315 -238.676 121.361 -196.971 277.005C-155.266 432.649 -95.4426 567.611 -32.4586 659.993C-0.964457 706.187 31.295 741.698 62.4421 763.833C93.5945 785.972 123.534 794.665 150.462 787.449C177.391 780.234 198.973 757.736 214.882 722.987C230.789 688.244 240.971 641.361 245.148 585.609C253.503 474.111 237.831 327.319 196.126 171.675Z" stroke="url(#paint9_linear_8965_1492)" stroke-width="1.55132"/>
<path d="M195.004 167.607C151.019 12.5989 89.2578 -121.33 24.9841 -212.558C-7.15489 -258.174 -39.8967 -293.078 -71.3262 -314.61C-102.761 -336.145 -132.781 -344.241 -159.556 -336.468C-186.331 -328.696 -207.538 -305.728 -222.896 -270.609C-238.252 -235.495 -247.709 -188.341 -251.038 -132.428C-257.696 -20.6095 -239.834 126.064 -195.849 281.071C-151.865 436.079 -90.1034 570.008 -25.8297 661.236C6.30932 706.852 39.0512 741.756 70.4806 763.288C101.915 784.823 131.936 792.919 158.711 785.146C185.486 777.374 206.692 754.406 222.05 719.287C237.406 684.173 246.864 637.019 250.193 581.106C256.85 469.288 238.989 322.614 195.004 167.607Z" stroke="url(#paint10_linear_8965_1492)" stroke-width="1.55132"/>
<path d="M193.823 163.557C147.571 9.23249 83.8912 -123.623 18.3474 -213.668C-14.4267 -258.693 -47.6409 -292.978 -79.343 -313.9C-111.05 -334.826 -141.143 -342.323 -167.757 -333.995C-194.37 -325.667 -215.194 -302.238 -229.997 -266.758C-244.797 -231.285 -253.527 -183.874 -256.007 -127.818C-260.965 -15.7118 -240.919 130.798 -194.668 285.122C-148.417 439.446 -84.7365 572.301 -19.1927 662.346C13.5814 707.371 46.7956 741.656 78.4977 762.579C110.205 783.504 140.298 791.001 166.911 782.673C193.525 774.346 214.349 750.916 229.152 715.437C243.952 679.963 252.682 632.553 255.161 576.496C260.12 464.39 240.074 317.881 193.823 163.557Z" stroke="url(#paint11_linear_8965_1492)" stroke-width="1.55132"/>
<path d="M192.583 159.525C144.079 5.9316 78.4994 -125.81 11.7055 -214.644C-21.6937 -259.064 -55.3701 -292.721 -87.3353 -313.027C-119.306 -333.337 -149.462 -340.232 -175.906 -331.352C-202.349 -322.471 -222.785 -298.587 -237.028 -262.758C-251.268 -226.935 -259.267 -179.283 -260.897 -123.1C-264.155 -10.741 -241.931 135.56 -193.427 289.153C-144.923 442.747 -79.3436 574.488 -12.5497 663.323C20.8495 707.743 54.526 741.399 86.4912 761.706C118.462 782.015 148.618 788.91 175.061 780.03C201.505 771.15 221.941 747.265 236.183 711.436C250.423 675.614 258.423 627.962 260.053 571.779C263.311 459.42 241.087 313.119 192.583 159.525Z" stroke="url(#paint12_linear_8965_1492)" stroke-width="1.55132"/>
<path d="M191.284 155.513C140.543 2.69685 73.0837 -127.89 5.06001 -215.487C-28.9541 -259.289 -63.0825 -292.306 -95.301 -311.99C-127.525 -331.677 -157.735 -337.969 -184.001 -328.539C-210.267 -319.109 -230.308 -294.776 -243.986 -258.609C-257.662 -222.449 -264.929 -174.569 -265.708 -118.277C-267.265 -5.69873 -242.869 140.349 -192.127 293.165C-141.386 445.981 -73.9268 576.568 -5.90317 664.166C28.111 707.967 62.2394 740.985 94.4579 760.668C126.682 780.356 156.892 786.647 183.158 777.217C209.424 767.787 229.465 743.454 243.143 707.288C256.819 671.127 264.086 623.247 264.864 566.955C266.421 454.377 242.026 308.329 191.284 155.513Z" stroke="url(#paint13_linear_8965_1492)" stroke-width="1.55132"/>
<path d="M189.926 151.522C136.962 -0.470515 67.6443 -129.864 -1.58832 -216.197C-36.207 -259.366 -70.777 -291.735 -103.239 -310.79C-135.706 -329.849 -165.961 -335.535 -192.042 -325.559C-218.122 -315.582 -237.763 -290.808 -250.872 -254.314C-263.979 -217.826 -270.512 -169.734 -270.439 -113.349C-270.294 -0.586465 -243.735 145.164 -190.771 297.156C-137.807 449.148 -68.489 578.541 0.743694 664.874C35.3623 708.044 69.9323 740.412 102.394 759.468C134.862 778.527 165.117 784.213 191.197 774.236C217.277 764.259 236.918 739.485 250.028 702.991C263.135 666.503 269.667 618.411 269.594 562.026C269.449 449.264 242.89 303.514 189.926 151.522Z" stroke="url(#paint14_linear_8965_1492)" stroke-width="1.55132"/>
<path d="M188.511 147.554C133.341 -3.56789 62.1851 -131.727 -8.23542 -216.77C-43.4481 -259.295 -78.4491 -291.004 -111.145 -309.426C-143.845 -327.85 -174.136 -332.93 -200.023 -322.409C-225.91 -311.888 -245.145 -286.68 -257.681 -249.871C-270.215 -213.067 -276.011 -164.777 -275.088 -108.316C-273.241 4.596 -244.525 150.004 -189.355 301.126C-134.186 452.248 -63.0297 580.407 7.39081 665.45C42.6034 707.975 77.6045 739.684 110.3 758.106C143.001 776.53 173.292 781.61 199.179 771.089C225.066 760.568 244.3 735.36 256.836 698.551C269.371 661.747 275.166 613.457 274.243 556.996C272.396 444.084 243.681 298.676 188.511 147.554Z" stroke="url(#paint15_linear_8965_1492)" stroke-width="1.55132"/>
<path d="M187.038 143.607C129.679 -6.59819 56.7072 -133.485 -14.8797 -217.212C-50.6756 -259.078 -86.097 -290.119 -119.016 -307.901C-151.94 -325.686 -182.258 -330.156 -207.944 -319.094C-233.629 -308.033 -252.451 -282.4 -264.411 -245.285C-276.369 -208.177 -281.426 -159.703 -279.652 -103.185C-276.104 9.84315 -245.242 154.865 -187.882 305.071C-130.523 455.276 -57.5514 582.163 14.0356 665.89C49.8315 707.756 85.2529 738.797 118.172 756.579C151.096 774.363 181.414 778.834 207.1 767.772C232.785 756.71 251.607 731.077 263.567 693.963C275.525 656.854 280.582 608.381 278.808 551.863C275.26 438.835 244.397 293.813 187.038 143.607Z" stroke="url(#paint16_linear_8965_1492)" stroke-width="1.55132"/>
<path d="M185.508 139.685C125.977 -9.55864 51.2111 -135.134 -21.5205 -217.519C-57.8887 -258.715 -93.7196 -289.078 -126.852 -306.215C-159.99 -323.354 -190.325 -327.214 -215.802 -315.615C-241.279 -304.016 -259.682 -277.965 -271.062 -240.557C-282.44 -203.155 -286.757 -154.513 -284.133 -97.9541C-278.884 15.1553 -245.884 159.747 -186.353 308.99C-126.822 458.233 -52.0565 583.809 20.675 666.194C57.0432 707.389 92.8742 737.752 126.007 754.889C159.145 772.029 189.48 775.889 214.957 764.29C240.433 752.691 258.837 726.64 270.217 689.232C281.595 651.83 285.912 603.187 283.287 546.629C278.039 433.519 245.039 288.928 185.508 139.685Z" stroke="url(#paint17_linear_8965_1492)" stroke-width="1.55132"/>
<path d="M183.921 135.792C122.237 -12.4441 45.7 -136.67 -28.154 -217.688C-65.0835 -258.2 -101.313 -287.876 -134.649 -304.363C-167.99 -320.852 -198.334 -324.101 -223.594 -311.968C-248.854 -299.834 -266.834 -273.373 -277.63 -235.683C-288.424 -197.999 -292 -149.203 -288.526 -92.6212C-281.579 20.5351 -246.452 164.652 -184.767 312.888C-123.082 461.123 -46.5455 585.35 27.3084 666.368C64.2379 706.879 100.467 736.555 133.804 753.042C167.145 769.531 197.488 772.78 222.748 760.647C248.008 748.513 265.988 722.052 276.784 684.362C287.579 646.678 291.154 597.882 287.681 541.3C280.734 428.144 245.606 284.027 183.921 135.792Z" stroke="url(#paint18_linear_8965_1492)" stroke-width="1.55132"/>
<path d="M182.28 131.922C118.46 -15.2606 40.1758 -138.099 -34.7781 -217.726C-72.2575 -257.542 -108.875 -286.522 -142.404 -302.353C-175.939 -318.186 -206.281 -320.823 -231.317 -308.16C-256.353 -295.496 -273.903 -268.632 -284.112 -230.672C-294.32 -192.717 -297.153 -143.783 -292.831 -87.1946C-284.188 25.974 -246.943 169.572 -183.124 316.755C-119.304 463.938 -41.0196 586.777 33.9343 666.404C71.4137 706.22 108.031 735.199 141.56 751.03C175.095 766.864 205.437 769.501 230.473 756.837C255.509 744.173 273.06 717.31 283.269 679.35C293.476 641.395 296.309 592.46 291.987 535.872C283.344 422.704 246.099 279.105 182.28 131.922Z" stroke="url(#paint19_linear_8965_1492)" stroke-width="1.55132"/>
<path d="M180.581 128.081C114.646 -18.0043 34.6377 -139.418 -41.3932 -217.629C-79.4112 -256.737 -116.405 -285.012 -150.117 -300.183C-183.835 -315.356 -214.167 -317.38 -238.971 -304.189C-263.775 -290.999 -280.891 -263.742 -290.51 -225.522C-300.128 -187.309 -302.218 -138.25 -297.049 -81.6731C-286.711 31.4732 -247.361 174.509 -181.426 320.595C-115.491 466.68 -35.483 588.094 40.5479 666.305C78.5659 705.413 115.559 733.687 149.272 748.858C182.989 764.031 213.322 766.056 238.126 752.865C262.93 739.674 280.046 712.417 289.665 674.198C299.283 635.984 301.372 586.926 296.203 530.349C285.866 417.202 246.516 274.166 180.581 128.081Z" stroke="url(#paint20_linear_8965_1492)" stroke-width="1.55132"/>
<path d="M178.828 124.271C110.798 -20.6719 29.09 -140.624 -47.9949 -217.395C-86.5398 -255.783 -123.898 -283.344 -157.784 -297.85C-191.674 -312.358 -221.987 -313.769 -246.552 -300.056C-271.116 -286.343 -287.793 -258.7 -296.819 -220.233C-305.844 -181.772 -307.189 -132.604 -301.175 -76.056C-289.147 37.0337 -247.703 179.464 -179.673 324.407C-111.643 469.35 -29.935 589.303 47.1498 666.074C85.6948 704.462 123.053 732.023 156.939 746.529C190.829 761.037 221.142 762.448 245.707 748.734C270.271 735.021 286.948 707.378 295.974 668.912C304.999 630.45 306.344 581.283 300.33 524.734C288.302 411.645 246.858 269.215 178.828 124.271Z" stroke="url(#paint21_linear_8965_1492)" stroke-width="1.55132"/>
<path d="M177.02 120.491C106.915 -23.2661 23.5331 -141.72 -54.5821 -217.028C-93.6422 -254.685 -131.355 -281.523 -165.403 -295.36C-199.455 -309.199 -229.739 -309.996 -254.057 -295.764C-278.375 -281.532 -294.607 -253.511 -303.037 -214.809C-311.466 -176.113 -312.067 -126.851 -305.21 -70.3482C-291.495 42.6502 -247.97 184.431 -177.865 328.188C-107.761 471.945 -24.3783 590.399 53.7369 665.707C92.797 703.363 130.509 730.202 164.557 744.039C198.61 757.878 228.894 758.675 253.212 744.443C277.53 730.211 293.761 702.19 302.192 663.488C310.621 624.792 311.222 575.53 304.364 519.027C290.65 406.029 247.125 264.248 177.02 120.491Z" stroke="url(#paint22_linear_8965_1492)" stroke-width="1.55132"/>
<path d="M175.159 116.741C103.001 -25.7859 17.9696 -142.705 -61.1522 -216.528C-100.716 -253.441 -138.77 -279.549 -172.97 -292.713C-207.175 -305.878 -237.421 -306.061 -261.485 -291.314C-285.549 -276.568 -301.331 -248.178 -309.163 -209.253C-316.994 -170.332 -316.85 -120.992 -309.151 -64.5517C-293.753 48.3212 -248.161 189.409 -176.003 331.936C-103.845 474.463 -18.8138 591.383 60.308 665.205C99.8714 702.118 137.926 728.227 172.126 741.39C206.33 754.555 236.577 754.738 260.641 739.992C284.705 725.245 300.486 696.856 308.319 657.93C316.15 619.01 316.006 569.669 308.307 513.229C292.909 400.356 247.317 259.268 175.159 116.741Z" stroke="url(#paint23_linear_8965_1492)" stroke-width="1.55132"/>
<path d="M173.243 113.025C99.0537 -28.2288 12.3992 -143.578 -67.705 -215.892C-107.76 -252.051 -146.145 -277.421 -180.487 -289.907C-214.832 -302.395 -245.033 -301.963 -268.835 -286.707C-292.638 -271.45 -307.964 -242.7 -315.196 -203.563C-322.426 -164.431 -321.538 -115.026 -313 -58.6661C-295.924 54.0467 -248.278 194.399 -174.089 335.653C-99.8997 476.906 -13.2451 592.256 66.8591 664.569C106.914 700.729 145.299 726.099 179.641 738.585C213.987 751.072 244.187 750.641 267.989 735.384C291.792 720.128 307.118 691.378 314.35 652.241C321.58 613.108 320.692 563.704 312.154 507.344C295.078 394.631 247.432 254.278 173.243 113.025Z" stroke="url(#paint24_linear_8965_1492)" stroke-width="1.55132"/>
<path d="M171.276 109.342C95.0777 -30.5952 6.82636 -144.339 -74.2358 -215.123C-114.769 -250.517 -153.474 -275.141 -187.947 -286.945C-222.423 -298.751 -252.568 -297.706 -276.102 -281.944C-299.635 -266.182 -314.503 -237.08 -321.131 -197.743C-327.759 -158.411 -326.127 -108.957 -316.752 -52.6946C-298.003 59.8238 -248.318 199.398 -172.12 339.335C-95.9225 479.272 -7.67116 593.016 73.391 663.799C113.925 699.193 152.629 723.817 187.102 735.622C221.579 747.428 251.723 746.383 275.257 730.62C298.791 714.858 313.658 685.757 320.286 646.42C326.914 607.087 325.282 557.634 315.907 501.371C297.158 388.853 247.474 249.278 171.276 109.342Z" stroke="url(#paint25_linear_8965_1492)" stroke-width="1.55132"/>
<path d="M169.255 105.694C91.072 -32.8831 1.25079 -144.987 -80.7446 -214.219C-121.745 -248.836 -160.756 -272.707 -195.35 -283.827C-229.947 -294.948 -260.026 -293.289 -283.285 -277.026C-306.543 -260.763 -320.946 -231.319 -326.97 -191.794C-332.993 -152.273 -330.617 -102.786 -320.408 -46.6376C-299.992 65.6521 -248.284 204.406 -170.1 342.983C-91.917 481.561 -2.09574 593.665 79.8997 662.896C120.9 697.514 159.911 721.385 194.505 732.505C229.102 743.626 259.181 741.967 282.44 725.704C305.698 709.441 320.101 679.996 326.125 640.472C332.148 600.951 329.772 551.464 319.563 495.315C299.147 383.026 247.439 244.272 169.255 105.694Z" stroke="url(#paint26_linear_8965_1492)" stroke-width="1.55132"/>
<path d="M167.184 102.083C87.0387 -35.0927 -4.32501 -145.523 -87.2287 -213.181C-128.683 -247.012 -167.99 -270.122 -202.693 -280.554C-237.401 -290.986 -267.406 -288.714 -290.381 -271.955C-313.357 -255.196 -327.291 -225.418 -332.708 -185.717C-338.125 -146.021 -335.006 -96.5149 -323.967 -40.4979C-301.89 71.5289 -248.173 209.42 -168.028 346.596C-87.8834 483.772 3.48035 594.202 86.3841 661.86C127.838 695.691 167.145 718.801 201.849 729.233C236.556 739.666 266.561 737.393 289.537 720.634C312.512 703.875 326.447 674.097 331.864 634.396C337.28 594.7 334.161 545.194 323.122 489.177C301.045 377.15 247.328 239.26 167.184 102.083Z" stroke="url(#paint27_linear_8965_1492)" stroke-width="1.55132"/>
<path d="M165.06 98.5085C82.9784 -37.2244 -9.89993 -145.947 -93.6866 -212.011C-135.583 -245.045 -175.172 -267.387 -209.976 -277.128C-244.782 -286.869 -274.704 -283.984 -297.39 -266.734C-320.075 -249.484 -333.538 -219.381 -338.346 -179.517C-343.155 -139.656 -339.293 -90.1468 -327.427 -34.2785C-303.696 77.4513 -247.987 214.437 -165.905 350.17C-83.8236 485.903 9.05479 594.625 92.8415 660.689C134.737 693.724 174.327 716.066 209.131 725.806C243.937 735.547 273.859 732.662 296.545 715.412C319.23 698.162 332.692 668.059 337.501 628.195C342.309 588.334 338.448 538.825 326.582 482.957C302.851 371.227 247.142 234.241 165.06 98.5085Z" stroke="url(#paint28_linear_8965_1492)" stroke-width="1.55132"/>
<path d="M162.887 94.9727C78.8927 -39.2757 -15.472 -146.257 -100.116 -210.708C-142.441 -242.935 -182.302 -264.502 -217.194 -273.548C-252.09 -282.595 -281.919 -279.098 -304.308 -261.363C-326.697 -243.627 -339.682 -213.208 -343.881 -173.192C-348.08 -133.18 -343.478 -83.682 -330.788 -27.9793C-305.41 83.4194 -247.726 219.458 -163.732 353.706C-79.7385 487.955 14.6262 594.937 99.2704 659.387C141.595 691.614 181.456 713.181 216.348 722.228C251.244 731.274 281.073 727.777 303.462 710.042C325.851 692.306 338.837 661.887 343.035 621.871C347.234 581.859 342.632 532.361 329.942 476.658C304.565 365.26 246.881 229.221 162.887 94.9727Z" stroke="url(#paint29_linear_8965_1492)" stroke-width="1.55132"/>
<path d="M160.664 91.4747C74.7835 -41.2481 -21.0387 -146.456 -106.515 -209.273C-149.255 -240.684 -189.375 -261.47 -224.346 -269.819C-259.319 -278.169 -289.047 -274.061 -311.133 -255.845C-333.218 -237.629 -345.723 -206.903 -349.311 -166.748C-352.898 -126.596 -347.557 -77.1246 -334.048 -21.6045C-307.031 89.4291 -247.389 224.48 -161.509 357.202C-75.6285 489.925 20.1938 595.134 105.67 657.951C148.41 689.361 188.53 710.147 223.501 718.496C258.474 726.846 288.202 722.738 310.288 704.522C332.373 686.306 344.878 655.58 348.466 615.425C352.053 575.273 346.712 525.802 333.203 470.282C306.186 359.248 246.545 224.198 160.664 91.4747Z" stroke="url(#paint30_linear_8965_1492)" stroke-width="1.55132"/>
<path d="M158.392 88.019C70.6512 -43.1379 -26.5994 -146.541 -112.881 -207.705C-156.024 -238.289 -196.391 -258.288 -231.429 -265.937C-266.47 -273.587 -296.088 -268.87 -317.863 -250.179C-339.639 -231.487 -351.658 -200.464 -354.634 -160.182C-357.61 -119.903 -351.53 -70.4734 -337.206 -15.1528C-308.558 95.4819 -246.977 229.503 -159.237 360.66C-71.4959 491.817 25.7546 595.22 112.036 656.384C155.179 686.968 195.546 706.967 230.584 714.616C265.625 722.266 295.243 717.549 317.018 698.857C338.794 680.166 350.814 649.143 353.789 608.861C356.765 568.582 350.686 519.152 336.361 463.832C307.713 353.197 246.133 219.176 158.392 88.019Z" stroke="url(#paint31_linear_8965_1492)" stroke-width="1.55132"/>
<path d="M156.071 84.6039C66.4967 -44.9471 -32.1526 -146.513 -119.213 -206.006C-162.746 -235.754 -203.347 -254.959 -238.443 -261.907C-273.54 -268.855 -303.039 -263.529 -324.497 -244.369C-345.956 -225.208 -357.487 -193.897 -359.85 -153.5C-362.213 -113.106 -355.397 -63.7331 -340.262 -8.62875C-309.991 101.573 -246.491 234.524 -156.917 364.075C-67.3423 493.626 31.3069 595.192 118.368 654.685C161.9 684.433 202.502 703.638 237.597 710.586C272.695 717.534 302.193 712.208 323.652 693.048C345.11 673.887 356.642 642.576 359.005 602.179C361.367 561.785 354.552 512.412 339.416 457.308C309.146 347.106 245.645 214.155 156.071 84.6039Z" stroke="url(#paint32_linear_8965_1492)" stroke-width="1.55132"/>
<path d="M153.704 81.2303C62.3229 -46.6754 -37.6949 -146.373 -125.508 -204.177C-169.418 -233.08 -210.241 -251.486 -245.383 -257.729C-280.526 -263.973 -309.896 -258.041 -331.032 -238.417C-352.167 -218.792 -363.206 -187.203 -364.955 -146.704C-366.704 -106.207 -359.155 -56.9058 -343.213 -2.03469C-311.33 107.701 -245.928 239.541 -154.548 367.447C-63.1672 495.353 36.8507 595.051 124.664 652.854C168.573 681.758 209.397 700.163 244.538 706.407C279.682 712.65 309.052 706.718 330.187 687.094C351.323 667.47 362.362 635.88 364.111 595.381C365.86 554.884 358.311 505.583 342.369 450.712C310.485 340.976 245.084 209.136 153.704 81.2303Z" stroke="url(#paint33_linear_8965_1492)" stroke-width="1.55132"/>
<path d="M151.288 77.9016C58.1287 -48.3198 -43.2273 -146.12 -131.767 -202.216C-176.039 -230.266 -217.072 -247.867 -252.249 -253.404C-287.428 -258.942 -316.661 -252.405 -337.467 -232.323C-358.272 -212.241 -368.816 -180.382 -369.951 -139.793C-371.086 -99.2059 -362.805 -49.9914 -346.061 4.62982C-312.575 113.866 -245.292 244.555 -152.133 370.776C-58.9743 496.998 42.3816 594.798 130.921 650.894C175.193 678.944 216.226 696.545 251.404 702.082C286.583 707.62 315.816 701.083 336.621 681.001C357.426 660.919 367.971 629.061 369.105 588.471C370.24 547.884 361.959 498.669 345.215 444.048C311.729 334.812 244.447 204.123 151.288 77.9016Z" stroke="url(#paint34_linear_8965_1492)" stroke-width="1.55132"/>
<path d="M148.826 74.6166C53.9173 -49.8821 -48.7459 -145.754 -137.984 -200.126C-182.606 -227.314 -223.836 -244.104 -259.038 -248.934C-294.242 -253.764 -323.329 -246.625 -343.798 -226.09C-364.267 -205.556 -374.313 -173.439 -374.833 -132.772C-375.353 -92.1067 -366.343 -42.994 -348.803 11.3606C-313.724 120.064 -244.581 249.562 -149.672 374.061C-54.7629 498.559 47.9003 594.431 137.139 648.804C181.76 675.991 222.99 692.782 258.193 697.612C293.396 702.441 322.483 695.302 342.952 674.768C363.422 654.234 373.467 622.117 373.987 581.45C374.508 540.784 365.498 491.671 347.957 437.317C312.878 328.613 243.735 199.115 148.826 74.6166Z" stroke="url(#paint35_linear_8965_1492)" stroke-width="1.55132"/>
<path d="M146.32 71.3779C49.6896 -51.3601 -54.2495 -145.274 -144.16 -197.906C-189.117 -224.224 -230.532 -240.199 -265.748 -244.319C-300.966 -248.44 -329.898 -240.7 -350.025 -219.72C-370.151 -198.74 -379.695 -166.374 -379.601 -125.641C-379.506 -84.9102 -369.77 -35.9144 -351.439 18.1572C-314.777 126.294 -243.795 254.562 -147.165 377.3C-50.5349 500.038 53.4042 593.953 143.314 646.585C188.272 672.902 229.686 688.877 264.903 692.997C300.12 697.118 329.052 689.378 349.179 668.398C369.306 647.418 378.85 615.052 378.756 574.32C378.661 533.589 368.925 484.593 350.593 430.521C313.932 322.384 242.95 194.116 146.32 71.3779Z" stroke="url(#paint36_linear_8965_1492)" stroke-width="1.55132"/>
<path d="M143.768 68.185C45.4462 -52.7549 -59.7372 -144.683 -150.292 -195.559C-195.571 -220.998 -237.158 -236.152 -272.378 -239.562C-307.599 -242.973 -336.367 -234.634 -356.145 -213.215C-375.923 -191.796 -384.963 -159.19 -384.253 -118.404C-383.544 -77.6201 -373.085 -28.7559 -353.968 25.0161C-315.735 132.554 -242.935 259.553 -144.614 380.493C-46.2919 501.433 58.8914 593.361 149.446 644.237C194.725 669.676 236.312 684.83 271.532 688.24C306.753 691.651 335.521 683.312 355.299 661.893C375.078 640.474 384.117 607.868 383.408 567.082C382.699 526.298 372.239 477.434 353.122 423.662C314.889 316.124 242.089 189.125 143.768 68.185Z" stroke="url(#paint37_linear_8965_1492)" stroke-width="1.55132"/>
<path d="M141.173 65.04C41.1893 -54.065 -65.2063 -143.98 -156.377 -193.083C-201.965 -217.636 -243.711 -231.965 -278.924 -234.664C-314.137 -237.363 -342.733 -228.429 -362.157 -206.576C-381.58 -184.724 -390.112 -151.888 -388.789 -111.063C-387.465 -70.2376 -376.285 -21.52 -356.388 31.9361C-316.596 138.842 -242.001 264.533 -142.018 383.638C-42.0345 502.743 64.361 592.658 155.532 641.761C201.12 666.314 242.866 680.644 278.079 683.342C313.292 686.041 341.888 677.107 361.311 655.255C380.735 633.402 389.267 600.567 387.943 559.741C386.62 518.916 375.44 470.198 355.543 416.742C315.751 309.836 241.156 184.145 141.173 65.04Z" stroke="url(#paint38_linear_8965_1492)" stroke-width="1.55132"/>
<path d="M138.534 61.9436C36.9194 -55.2902 -70.6559 -143.164 -162.416 -190.48C-208.298 -214.139 -250.191 -227.639 -285.385 -229.626C-320.58 -231.612 -348.995 -222.085 -368.058 -199.806C-387.121 -177.528 -395.143 -144.472 -393.205 -103.619C-391.268 -62.7651 -379.372 -14.2089 -358.701 38.915C-317.362 145.157 -240.993 269.501 -139.379 386.735C-37.7647 503.969 69.8106 591.842 161.571 639.158C207.453 662.818 249.345 676.318 284.54 678.305C319.735 680.291 348.15 670.764 367.213 648.485C386.276 626.206 394.298 593.151 392.36 552.297C390.422 511.444 378.526 462.888 357.856 409.764C316.516 303.522 240.148 179.177 138.534 61.9436Z" stroke="url(#paint39_linear_8965_1492)" stroke-width="1.55132"/>
<path d="M135.852 58.897C32.6379 -56.4298 -76.0843 -142.235 -168.405 -187.75C-214.568 -210.508 -256.594 -223.175 -291.76 -224.449C-326.926 -225.723 -355.151 -215.605 -373.848 -192.907C-392.545 -170.208 -400.054 -136.943 -397.503 -96.0739C-394.952 -55.2045 -382.342 -6.82446 -360.904 45.9509C-318.03 151.496 -239.913 274.457 -136.698 389.783C-33.4837 505.11 75.2385 590.916 167.56 636.43C213.722 659.189 255.748 671.856 290.915 673.129C326.08 674.403 354.306 664.285 373.002 641.587C391.699 618.889 399.208 585.624 396.657 544.754C394.106 503.885 381.497 455.505 360.059 402.729C317.185 297.184 239.067 174.224 135.852 58.897Z" stroke="url(#paint40_linear_8965_1492)" stroke-width="1.55132"/>
<path d="M133.131 55.8974C28.3478 -57.4875 -81.4881 -141.199 -174.342 -184.898C-220.771 -206.749 -262.918 -218.578 -298.045 -219.139C-333.171 -219.7 -361.198 -208.994 -379.522 -185.883C-397.847 -162.772 -404.841 -129.308 -401.677 -88.435C-398.514 -47.562 -385.195 0.626969 -362.996 53.0378C-318.601 157.854 -238.758 279.393 -133.974 392.778C-29.1911 506.163 80.6449 589.874 173.499 633.573C219.928 655.424 262.075 667.254 297.202 667.814C332.328 668.375 360.355 657.669 378.679 634.558C397.003 611.447 403.998 577.983 400.834 537.11C397.67 496.237 384.352 448.048 362.153 395.637C317.758 290.821 237.914 169.282 133.131 55.8974Z" stroke="url(#paint41_linear_8965_1492)" stroke-width="1.55132"/>
<path d="M130.367 52.9538C24.0466 -58.4545 -86.8697 -140.046 -180.228 -181.917C-226.909 -202.853 -269.165 -213.842 -304.241 -213.689C-339.317 -213.536 -367.137 -202.247 -385.084 -178.73C-403.03 -155.213 -409.507 -121.559 -405.732 -80.6958C-401.957 -39.8318 -387.933 8.15157 -364.98 60.1819C-319.077 164.238 -237.532 284.318 -131.212 395.726C-24.8921 507.134 86.0242 588.726 179.383 630.596C226.064 651.533 268.319 662.522 303.396 662.369C338.471 662.216 366.292 650.927 384.238 627.409C402.185 603.892 408.662 570.239 404.887 529.375C401.111 488.511 387.088 440.528 364.135 388.498C318.231 284.442 236.687 164.362 130.367 52.9538Z" stroke="url(#paint42_linear_8965_1492)" stroke-width="1.55132"/>
<path d="M127.564 50.0593C19.7401 -59.3384 -92.2228 -138.785 -186.057 -178.815C-232.977 -198.831 -275.327 -208.975 -310.343 -208.109C-345.357 -207.243 -372.962 -195.373 -390.525 -171.457C-408.089 -147.541 -414.047 -113.708 -409.661 -72.8667C-405.275 -32.0241 -390.551 15.739 -366.851 67.373C-319.453 170.636 -236.232 289.221 -128.408 398.619C-20.5835 508.016 91.3793 587.463 185.214 627.493C232.133 647.509 274.484 657.653 309.499 656.787C344.514 655.921 372.119 644.051 389.682 620.135C407.245 596.219 413.203 562.386 408.818 521.545C404.432 480.702 389.707 432.939 366.007 381.305C318.61 278.042 235.389 159.457 127.564 50.0593Z" stroke="url(#paint43_linear_8965_1492)" stroke-width="1.55132"/>
<path d="M124.722 47.2174C15.4261 -60.1365 -97.549 -137.415 -191.831 -175.591C-238.974 -194.68 -281.407 -203.977 -316.351 -202.398C-351.294 -200.819 -378.675 -188.372 -395.85 -164.064C-413.024 -139.756 -418.461 -105.755 -413.466 -64.9475C-408.471 -24.1387 -393.05 23.3895 -368.611 74.6115C-319.734 177.051 -234.862 294.104 -125.566 401.458C-16.2698 508.812 96.7053 586.09 190.987 624.266C238.13 643.355 280.563 652.653 315.507 651.074C350.45 649.494 377.831 637.047 395.006 612.739C412.18 588.432 417.618 554.43 412.623 513.623C407.627 472.814 392.207 425.286 367.767 374.064C318.89 271.625 234.018 154.571 124.722 47.2174Z" stroke="url(#paint44_linear_8965_1492)" stroke-width="1.55132"/>
<path d="M121.841 44.4318C11.1068 -60.8456 -102.846 -135.932 -197.547 -172.243C-244.899 -190.399 -287.401 -198.846 -322.263 -196.555C-357.124 -194.263 -384.273 -181.242 -401.054 -156.55C-417.834 -131.858 -422.749 -97.6983 -417.146 -56.9376C-411.543 -16.1752 -395.431 31.1038 -370.259 81.8981C-319.917 183.482 -233.42 298.969 -122.686 404.246C-11.9519 509.523 102.001 584.61 196.702 620.92C244.054 639.077 286.556 647.524 321.418 645.232C356.279 642.941 383.428 629.92 400.209 605.228C416.989 580.536 421.903 546.376 416.301 505.615C410.698 464.853 394.586 417.574 369.414 366.78C319.072 265.196 232.575 149.709 121.841 44.4318Z" stroke="url(#paint45_linear_8965_1492)" stroke-width="1.55132"/>
<path d="M118.923 41.6992C6.78461 -61.4697 -108.112 -134.341 -203.202 -168.775C-250.749 -185.994 -293.308 -193.588 -328.077 -190.585C-362.845 -187.581 -389.754 -173.991 -406.135 -148.922C-422.516 -123.854 -426.906 -89.5455 -420.698 -48.8438C-414.489 -8.14006 -397.69 38.8752 -371.794 89.2264C-320.003 189.924 -231.907 303.809 -119.768 406.977C-7.62973 510.146 107.267 583.017 202.357 617.452C249.904 634.67 292.463 642.265 327.232 639.261C362 636.258 388.909 622.668 405.29 597.599C421.671 572.53 426.061 538.222 419.853 497.52C413.644 456.817 396.845 409.801 370.948 359.45C319.158 258.752 231.062 144.868 118.923 41.6992Z" stroke="url(#paint46_linear_8965_1492)" stroke-width="1.55132"/>
<path d="M115.969 39.0243C2.46061 -62.0045 -113.344 -132.638 -208.795 -165.186C-256.523 -181.461 -299.125 -188.201 -333.791 -184.487C-368.455 -180.772 -395.116 -166.616 -411.092 -141.178C-427.069 -115.741 -430.934 -81.2949 -424.122 -40.6646C-417.309 -0.031893 -399.828 46.7054 -373.215 96.5981C-319.991 196.379 -230.322 308.627 -116.814 409.656C-3.30489 510.684 112.5 581.318 207.951 613.866C255.679 630.141 298.281 636.881 332.947 633.166C367.611 629.452 394.271 615.296 410.248 589.858C426.225 564.42 430.09 529.975 423.277 489.344C416.464 448.712 398.984 401.974 372.37 352.082C319.146 252.301 229.478 140.053 115.969 39.0243Z" stroke="url(#paint47_linear_8965_1492)" stroke-width="1.55132"/>
<path d="M112.98 36.4034C-1.86438 -62.4547 -118.542 -130.83 -214.325 -161.481C-262.218 -176.808 -304.851 -182.691 -339.403 -178.266C-373.953 -173.843 -400.357 -159.125 -415.925 -133.326C-431.492 -107.526 -434.83 -72.9537 -427.416 -32.4071C-420.001 8.14219 -401.844 54.5872 -374.522 104.006C-319.881 202.84 -228.668 313.417 -113.824 412.275C1.02076 511.133 117.698 579.508 213.481 610.159C261.375 625.486 304.007 631.369 338.559 626.944C373.109 622.521 399.513 607.803 415.081 582.004C430.649 556.204 433.986 521.632 426.572 481.085C419.157 440.536 401 394.091 373.678 344.672C319.037 245.838 227.824 135.261 112.98 36.4034Z" stroke="url(#paint48_linear_8965_1492)" stroke-width="1.55132"/>
<path d="M109.954 33.8402C-6.19078 -62.8171 -123.705 -128.913 -219.791 -157.658C-267.836 -172.032 -310.486 -177.056 -344.914 -171.923C-379.339 -166.791 -405.478 -151.517 -420.632 -125.364C-435.786 -99.2104 -438.596 -64.5213 -430.582 -24.0707C-422.567 16.3827 -403.739 62.5213 -375.717 111.452C-319.675 209.308 -226.946 318.18 -110.801 414.837C5.34427 511.494 122.859 577.59 218.945 606.336C266.989 620.709 309.64 625.733 344.067 620.601C378.492 615.468 404.632 600.194 419.785 574.041C434.939 547.888 437.749 513.199 429.735 472.748C421.721 432.295 402.893 386.156 374.871 337.226C318.829 239.369 226.099 130.497 109.954 33.8402Z" stroke="url(#paint49_linear_8965_1492)" stroke-width="1.55132"/>
<path d="M106.897 31.3344C-10.5137 -63.0925 -128.83 -126.889 -225.189 -153.72C-273.37 -167.136 -316.025 -171.3 -350.318 -165.46C-384.608 -159.621 -410.475 -143.795 -425.209 -117.296C-439.944 -90.7966 -442.226 -56.0015 -433.614 -15.6593C-425.003 24.6859 -405.51 70.5041 -376.796 118.931C-319.371 215.78 -225.153 322.914 -107.743 417.341C9.6678 511.768 127.984 575.564 224.343 602.395C272.524 615.811 315.179 619.975 349.472 614.136C383.762 608.297 409.629 592.47 424.364 565.971C439.098 539.472 441.38 504.677 432.769 464.335C424.157 423.99 404.664 378.171 375.95 329.745C318.525 232.895 224.307 125.761 106.897 31.3344Z" stroke="url(#paint50_linear_8965_1492)" stroke-width="1.55132"/>
<path d="M103.806 28.8893C-14.8339 -63.2786 -133.916 -124.756 -230.518 -149.664C-278.822 -162.119 -321.468 -165.421 -355.615 -158.876C-389.76 -152.332 -415.346 -135.959 -429.658 -109.122C-443.969 -82.2848 -445.721 -47.3944 -436.516 -7.17285C-427.309 33.052 -407.157 78.5358 -377.761 126.444C-318.969 222.257 -223.292 327.62 -104.652 419.788C13.9879 511.956 133.069 573.433 229.672 598.342C277.976 610.796 320.622 614.099 354.769 607.554C388.914 601.01 414.5 584.636 428.812 557.799C443.123 530.962 444.875 496.072 435.669 455.851C426.463 415.626 406.311 370.142 376.915 322.234C318.123 226.421 222.446 121.057 103.806 28.8893Z" stroke="url(#paint51_linear_8965_1492)" stroke-width="1.55132"/>
<path d="M100.683 26.5032C-19.15 -63.3776 -138.961 -122.517 -235.778 -145.495C-284.189 -156.985 -326.813 -159.424 -360.805 -152.177C-394.794 -144.93 -420.092 -128.013 -433.976 -100.847C-447.86 -73.6801 -449.081 -38.7051 -439.284 1.38357C-429.486 41.4757 -408.681 86.6113 -378.61 133.987C-318.471 228.734 -221.363 332.295 -101.529 422.176C18.3036 512.056 138.114 571.195 234.932 594.174C283.342 605.663 325.967 608.103 359.959 600.855C393.947 593.608 419.245 576.692 433.129 549.525C447.013 522.359 448.235 487.384 438.437 447.295C428.639 407.203 407.834 362.067 377.764 314.692C317.625 219.945 220.516 116.384 100.683 26.5032Z" stroke="url(#paint52_linear_8965_1492)" stroke-width="1.55132"/>
<path d="M97.5297 24.1771C-23.4602 -63.3892 -143.964 -120.173 -240.966 -141.214C-289.469 -151.735 -332.059 -153.311 -365.885 -145.363C-399.707 -137.415 -424.709 -119.961 -438.161 -92.473C-451.613 -64.9849 -452.304 -29.9359 -441.918 10.0077C-431.531 49.955 -410.08 94.7286 -379.344 141.556C-317.875 235.209 -219.366 336.936 -98.376 424.502C22.6139 512.069 143.117 568.852 240.12 589.893C288.623 600.414 331.213 601.99 365.039 594.042C398.861 586.094 423.863 568.64 437.315 541.152C450.767 513.664 451.458 478.615 441.072 438.672C430.685 398.724 409.233 353.951 378.498 307.123C317.029 213.47 218.52 111.743 97.5297 24.1771Z" stroke="url(#paint53_linear_8965_1492)" stroke-width="1.55132"/>
<path d="M94.347 21.9103C-27.7628 -63.315 -148.922 -117.725 -246.08 -136.823C-294.66 -146.372 -337.203 -147.085 -370.853 -138.438C-404.499 -129.792 -429.197 -111.806 -442.213 -84.0044C-455.228 -56.2033 -455.388 -21.0909 -444.417 18.6954C-433.444 58.4857 -411.353 102.884 -379.962 149.15C-317.182 241.679 -217.302 341.541 -95.192 426.766C26.9178 511.992 148.077 566.402 245.235 585.499C293.815 595.048 336.359 595.761 370.008 587.114C403.654 578.468 428.352 560.482 441.368 532.681C454.383 504.88 454.543 469.768 443.572 429.981C432.599 390.191 410.508 345.793 379.117 299.527C316.337 206.997 216.457 107.136 94.347 21.9103Z" stroke="url(#paint54_linear_8965_1492)" stroke-width="1.55132"/>
<path d="M91.1343 19.7071C-32.0582 -63.1511 -153.836 -115.172 -251.12 -132.32C-299.764 -140.894 -342.246 -140.743 -375.709 -131.4C-409.168 -122.059 -433.555 -103.546 -446.13 -75.44C-458.706 -47.3342 -458.335 -12.1693 -446.781 27.4477C-435.226 67.0688 -412.502 111.078 -380.465 156.768C-316.394 248.146 -215.173 346.113 -91.9801 428.971C31.2123 511.829 152.991 563.85 250.274 580.998C298.918 589.572 341.4 589.421 374.863 580.078C408.322 570.737 432.709 552.224 445.285 524.118C457.86 496.012 457.489 460.847 445.935 421.23C434.38 381.609 411.656 337.6 379.619 291.91C315.548 200.532 214.327 102.565 91.1343 19.7071Z" stroke="url(#paint55_linear_8965_1492)" stroke-width="1.55132"/>
<path d="M87.8941 17.5651C-36.3435 -62.9008 -158.704 -112.516 -256.083 -127.71C-304.775 -135.307 -347.184 -134.292 -380.45 -124.256C-413.712 -114.222 -437.781 -95.1874 -449.912 -66.7854C-462.043 -38.3835 -461.142 -3.17684 -449.009 36.2588C-436.875 75.6987 -413.524 119.305 -380.852 164.406C-315.508 254.605 -212.977 350.646 -88.7398 431.112C35.4978 511.578 157.858 561.193 255.238 576.387C303.929 583.984 346.339 582.969 379.604 572.933C412.867 562.899 436.935 543.864 449.066 515.462C461.197 487.061 460.296 451.854 448.163 412.418C436.03 372.978 412.679 329.372 380.006 284.271C314.662 194.072 212.132 98.031 87.8941 17.5651Z" stroke="url(#paint56_linear_8965_1492)" stroke-width="1.55132"/>
<path d="M84.6272 15.4873C-40.6177 -62.5619 -163.522 -109.757 -260.969 -122.991C-309.693 -129.608 -352.017 -127.73 -385.075 -117.005C-418.131 -106.28 -441.873 -86.7306 -453.556 -58.0411C-465.239 -29.3517 -463.808 5.88605 -451.1 45.1283C-438.391 84.375 -414.421 127.566 -381.122 172.063C-314.526 261.055 -210.717 355.142 -85.4722 433.191C39.7727 511.24 162.677 558.435 260.124 571.67C308.848 578.287 351.172 576.409 384.231 565.683C417.286 554.959 441.028 535.409 452.711 506.72C464.394 478.03 462.962 442.792 450.255 403.55C437.546 364.303 413.576 321.113 380.277 276.615C313.681 187.623 209.872 93.5364 84.6272 15.4873Z" stroke="url(#paint57_linear_8965_1492)" stroke-width="1.55132"/>
<path d="M81.3341 13.4723C-44.88 -62.1363 -168.292 -106.896 -265.775 -118.167C-314.518 -123.803 -356.742 -121.062 -389.584 -109.65C-422.422 -98.239 -445.831 -78.1797 -457.063 -49.2115C-468.294 -20.2433 -466.332 15.0147 -453.054 54.0516C-439.774 93.0932 -415.192 135.855 -381.277 179.735C-313.449 267.494 -208.393 359.598 -82.179 435.206C44.0351 510.815 167.447 555.575 264.93 566.846C313.673 572.482 355.897 569.74 388.739 558.328C421.577 546.917 444.987 526.858 456.218 497.89C467.449 468.922 465.487 433.664 452.209 394.627C438.929 355.585 414.347 312.824 380.432 268.943C312.604 181.185 207.548 89.0809 81.3341 13.4723Z" stroke="url(#paint58_linear_8965_1492)" stroke-width="1.55132"/>
<path d="M78.0155 11.5209C-49.1292 -61.6242 -173.01 -103.936 -270.501 -113.24C-319.248 -117.893 -361.36 -114.289 -393.974 -102.194C-426.585 -90.1003 -449.654 -69.5375 -460.431 -40.2994C-471.207 -11.0612 -468.715 24.2063 -454.87 63.0261C-441.022 101.851 -415.836 144.17 -381.316 187.42C-312.277 273.919 -206.006 364.011 -78.8612 437.156C48.2835 510.301 172.165 552.613 269.655 561.918C318.402 566.57 360.514 562.967 393.129 550.871C425.74 538.777 448.809 518.215 459.585 488.977C470.361 459.738 467.87 424.471 454.024 385.651C440.177 346.827 414.99 304.507 380.47 261.257C311.431 174.758 205.16 84.666 78.0155 11.5209Z" stroke="url(#paint59_linear_8965_1492)" stroke-width="1.55132"/>
<path d="M74.6733 9.63639C-53.3634 -61.0229 -177.676 -100.873 -275.144 -108.208C-323.88 -111.876 -365.867 -107.412 -398.245 -94.637C-430.619 -81.8639 -453.34 -60.8037 -463.658 -31.3045C-473.976 -1.80534 -470.955 33.461 -456.547 72.0517C-442.137 110.647 -416.354 152.512 -381.238 195.119C-311.009 280.33 -203.556 368.384 -75.5191 439.044C52.5176 509.703 176.831 549.553 274.299 556.888C323.034 560.556 365.021 556.092 397.399 543.317C429.773 530.544 452.494 509.484 462.812 479.985C473.13 450.485 470.11 415.219 455.701 376.628C441.291 338.033 415.508 296.168 380.392 253.561C310.163 168.35 202.71 80.2957 74.6733 9.63639Z" stroke="url(#paint60_linear_8965_1492)" stroke-width="1.55132"/>
<path d="M71.3079 7.81544C-57.5816 -60.3365 -182.289 -97.7135 -279.704 -103.077C-328.413 -105.759 -370.263 -100.435 -402.394 -86.9847C-434.521 -73.5362 -456.888 -51.9851 -466.745 -22.2339C-476.601 7.5174 -473.052 42.7717 -458.085 81.1217C-443.116 119.477 -416.745 160.874 -381.045 202.824C-309.646 286.723 -201.044 372.712 -72.1542 440.864C56.7353 509.016 181.442 546.393 278.858 551.756C327.567 554.438 369.417 549.114 401.548 535.664C433.675 522.215 456.042 500.664 465.898 470.913C475.754 441.162 472.206 405.907 457.239 367.557C442.27 329.202 415.898 287.805 380.198 245.855C308.8 161.956 200.197 75.9674 71.3079 7.81544Z" stroke="url(#paint61_linear_8965_1492)" stroke-width="1.55132"/>
<path d="M67.9213 6.05915C-61.7818 -59.5648 -186.845 -94.4571 -284.178 -97.8475C-332.847 -99.5427 -374.546 -93.3608 -406.421 -79.2391C-438.291 -65.1192 -460.297 -43.0837 -469.688 -13.0894C-479.079 16.9048 -475.004 52.1363 -459.483 90.2339C-443.961 128.337 -417.008 169.253 -380.734 210.535C-308.189 293.096 -198.47 376.993 -68.7667 442.617C60.9364 508.24 185.999 543.133 283.333 546.523C332.001 548.218 373.701 542.036 405.575 527.915C437.445 513.795 459.451 491.759 468.843 461.765C478.234 431.771 474.159 396.539 458.638 358.442C443.115 320.339 416.162 279.422 379.889 238.141C307.344 155.58 197.624 71.6831 67.9213 6.05915Z" stroke="url(#paint62_linear_8965_1492)" stroke-width="1.55132"/>
<path d="M64.5134 4.37127C-65.9639 -58.7047 -191.345 -91.1016 -288.567 -92.5178C-337.179 -93.226 -378.716 -86.188 -410.324 -71.3991C-441.928 -56.6122 -463.566 -34.0989 -472.489 -3.87081C-481.413 26.3573 -476.812 61.5551 -460.742 99.3888C-444.67 137.228 -417.144 177.652 -380.309 218.251C-306.638 299.449 -195.836 381.229 -65.3588 444.305C65.1185 507.381 190.499 539.778 287.721 541.194C336.334 541.902 377.87 534.864 409.478 520.075C441.082 505.288 462.72 482.775 471.644 452.547C480.567 422.319 475.966 387.121 459.897 349.287C443.824 311.448 416.299 271.024 379.463 230.425C305.793 149.227 194.991 67.4473 64.5134 4.37127Z" stroke="url(#paint63_linear_8965_1492)" stroke-width="1.55132"/>
<path d="M61.086 2.75095C-70.1256 -57.7579 -195.786 -87.6496 -292.867 -87.0912C-341.409 -86.812 -382.77 -78.9201 -414.102 -63.4686C-445.43 -48.0192 -466.693 -25.0349 -475.146 5.41786C-483.599 35.8706 -478.474 71.0241 -461.86 108.582C-445.243 146.146 -417.154 186.065 -379.766 225.97C-304.994 305.78 -193.142 385.418 -61.9305 445.927C69.2811 506.435 194.941 536.327 292.022 535.769C340.564 535.49 381.925 527.598 413.257 512.146C444.585 496.697 465.849 473.712 474.302 443.26C482.755 412.807 477.629 377.654 461.015 340.095C444.399 302.532 416.309 262.613 378.922 222.707C304.149 142.898 192.298 63.2597 61.086 2.75095Z" stroke="url(#paint64_linear_8965_1492)" stroke-width="1.55132"/>
<path d="M57.6385 1.1982C-74.2676 -56.725 -200.169 -84.1026 -297.08 -81.5698C-345.536 -80.3034 -386.708 -71.56 -417.755 -55.4506C-448.798 -39.3434 -469.68 -15.895 -477.66 14.773C-485.64 45.4411 -479.992 80.5395 -462.838 117.811C-445.682 155.087 -417.037 194.489 -379.11 233.689C-303.258 312.086 -190.391 389.558 -58.4849 447.481C73.4211 505.404 199.323 532.782 296.233 530.249C344.689 528.983 385.862 520.239 416.909 504.13C447.952 488.022 468.834 464.574 476.813 433.906C484.793 403.238 479.145 368.14 461.992 330.868C444.836 293.592 416.191 254.19 378.264 214.99C302.412 136.593 189.545 59.1214 57.6385 1.1982Z" stroke="url(#paint65_linear_8965_1492)" stroke-width="1.55132"/>
<path d="M54.1751 -0.286894C-78.3851 -55.6069 -204.49 -80.4619 -301.2 -75.9556C-349.556 -73.7023 -390.528 -64.1102 -421.28 -47.3476C-452.027 -30.5876 -472.522 -6.6823 -480.026 24.1917C-487.53 55.0658 -481.361 90.0983 -463.674 127.071C-445.984 164.05 -416.792 202.923 -378.337 241.404C-301.428 318.365 -187.58 393.647 -55.0196 448.967C77.5406 504.287 203.645 529.142 300.355 524.636C348.711 522.382 389.683 512.79 420.435 496.028C451.183 479.268 471.677 455.362 479.182 424.488C486.686 393.614 480.517 358.582 462.829 321.609C445.139 284.63 415.947 245.757 377.492 207.276C300.583 130.315 186.735 55.0331 54.1751 -0.286894Z" stroke="url(#paint66_linear_8965_1492)" stroke-width="1.55132"/>
<path d="M50.6933 -1.70557C-82.4807 -54.4056 -208.75 -76.7304 -305.23 -70.2519C-353.471 -67.0126 -394.23 -56.5746 -424.678 -39.1641C-455.121 -21.7562 -475.222 2.5987 -482.248 33.6693C-489.274 64.7399 -482.586 99.6958 -464.37 136.359C-446.151 173.028 -416.421 211.36 -377.449 249.112C-299.507 324.613 -184.713 397.683 -51.5393 450.383C81.6348 503.083 207.904 525.407 304.384 518.929C352.625 515.69 393.384 505.252 423.832 487.841C454.275 470.433 474.376 446.078 481.402 415.008C488.428 383.937 481.74 348.981 463.524 312.318C445.305 275.649 415.575 237.317 376.603 199.565C298.661 124.064 183.867 50.9944 50.6933 -1.70557Z" stroke="url(#paint67_linear_8965_1492)" stroke-width="1.55132"/>
<path d="M47.197 -3.05405C-86.5503 -53.118 -212.946 -72.906 -309.167 -64.4574C-405.463 -56.0022 -471.23 -19.3118 -484.322 43.206C-497.414 105.724 -455.459 182.737 -376.446 256.813C-297.495 330.832 -181.789 401.667 -48.0422 451.731C85.7051 501.794 212.1 521.583 308.322 513.134C404.618 504.679 470.385 467.988 483.477 405.47C496.569 342.953 454.613 265.94 375.601 191.863C296.65 117.844 180.944 47.0099 47.197 -3.05405Z" stroke="url(#paint68_linear_8965_1492)" stroke-width="1.55132"/>
<path d="M43.6853 -4.33128C-90.5945 -51.744 -217.077 -68.9891 -313.01 -58.5729C-409.016 -48.1488 -474.122 -10.0723 -486.25 52.8C-498.377 115.672 -455.327 191.938 -375.329 264.507C-295.392 337.02 -178.811 405.599 -44.5314 453.011C89.7484 500.424 216.231 517.669 312.164 507.253C408.17 496.829 473.276 458.752 485.403 395.88C497.531 333.008 454.481 256.742 374.483 184.173C294.546 111.66 177.965 43.0814 43.6853 -4.33128Z" stroke="url(#paint69_linear_8965_1492)" stroke-width="1.55132"/>
<path d="M40.1611 -5.54102C-94.6103 -50.288 -221.142 -64.9851 -316.758 -52.6046C-412.445 -40.2147 -476.869 -0.763664 -488.028 62.4438C-499.187 125.651 -455.055 201.146 -374.097 272.185C-293.199 343.172 -175.777 409.473 -41.006 454.22C93.7654 498.967 220.297 513.664 315.913 501.284C411.6 488.894 476.024 449.443 487.183 386.235C498.342 323.028 454.21 247.533 373.252 176.494C292.354 105.507 174.932 39.206 40.1611 -5.54102Z" stroke="url(#paint70_linear_8965_1492)" stroke-width="1.55132"/>
<path d="M36.624 -6.68036C-98.598 -48.7481 -225.141 -60.8927 -320.409 -46.5516C-415.748 -32.1999 -479.472 8.61378 -489.659 72.1372C-499.845 135.661 -454.645 210.361 -372.751 279.85C-290.917 349.288 -172.691 413.291 -37.4688 455.359C97.7532 497.427 224.296 509.571 319.565 495.23C414.903 480.879 478.627 440.065 488.814 376.541C499 313.018 453.8 238.318 371.906 168.829C290.072 99.3909 171.846 35.3874 36.624 -6.68036Z" stroke="url(#paint71_linear_8965_1492)" stroke-width="1.55132"/>
<path d="M33.075 -7.74871C-102.556 -47.1244 -229.071 -56.7128 -323.964 -40.4155C-418.926 -24.1064 -481.929 18.0576 -491.141 81.8775C-500.352 145.697 -454.098 219.581 -371.292 287.498C-288.547 355.366 -169.552 417.053 -33.9207 456.428C101.711 495.804 228.225 505.392 323.118 489.095C418.08 472.786 481.084 430.622 490.295 366.802C499.506 302.982 453.252 229.099 370.447 161.182C287.701 93.3135 168.706 31.627 33.075 -7.74871Z" stroke="url(#paint72_linear_8965_1492)" stroke-width="1.55132"/>
<path d="M29.5165 -8.74895C-106.483 -45.4206 -232.931 -52.45 -327.42 -34.2015C-421.975 -15.9401 -484.239 27.5615 -492.472 91.6584C-500.705 155.755 -453.411 228.799 -369.72 295.124C-286.089 361.402 -166.361 420.753 -30.3615 457.424C105.638 494.096 232.086 501.125 326.574 482.877C421.13 464.615 483.394 421.114 491.627 357.017C499.86 292.92 452.566 219.876 368.875 153.551C285.244 87.2736 165.516 27.9227 29.5165 -8.74895Z" stroke="url(#paint73_linear_8965_1492)" stroke-width="1.55132"/>
<path d="M25.9485 -9.67426C-110.378 -43.6307 -236.721 -48.0989 -330.776 -27.9049C-424.897 -7.69673 -486.403 37.1293 -493.655 101.484C-500.907 165.838 -452.587 238.02 -368.036 302.732C-283.543 367.399 -163.12 424.396 -26.7937 458.353C109.532 492.309 235.876 496.778 329.931 476.584C424.052 456.375 485.557 411.549 492.81 347.195C500.062 282.841 451.742 210.659 367.19 145.947C282.698 81.2794 162.275 24.2822 25.9485 -9.67426Z" stroke="url(#paint74_linear_8965_1492)" stroke-width="1.55132"/>
<path d="M22.3728 -10.531C-114.238 -41.762 -240.438 -43.6676 -334.031 -21.5342C-427.689 0.6145 -488.417 46.7513 -494.686 111.343C-500.955 175.935 -451.624 247.233 -366.238 310.314C-280.911 373.35 -159.828 427.977 -23.2173 459.208C113.394 490.439 239.594 492.344 333.187 470.211C426.845 448.062 487.573 401.925 493.842 337.333C500.111 272.741 450.78 201.443 365.394 138.363C280.067 75.3263 158.984 20.7001 22.3728 -10.531Z" stroke="url(#paint75_linear_8965_1492)" stroke-width="1.55132"/>
<path d="M18.7894 -11.3141C-118.065 -39.8101 -244.083 -39.1528 -337.186 -15.0867C-430.352 8.99574 -490.284 56.4294 -495.568 121.239C-500.852 186.049 -450.525 256.441 -364.331 317.871C-278.194 379.258 -156.489 431.497 -19.6344 459.993C117.22 488.489 243.238 487.831 336.341 463.765C429.507 439.683 489.439 392.249 494.723 327.439C500.007 262.629 449.68 192.237 363.486 130.808C277.349 69.4205 155.644 17.182 18.7894 -11.3141Z" stroke="url(#paint76_linear_8965_1492)" stroke-width="1.55132"/>
<path d="M15.1997 -12.0254C-121.857 -37.7778 -247.654 -34.5577 -340.238 -8.56627C-432.884 17.4425 -492.003 66.1587 -496.3 131.167C-500.596 196.175 -449.289 265.64 -362.312 325.399C-275.393 385.118 -153.103 434.953 -16.0462 460.706C121.01 486.458 246.808 483.238 339.392 457.247C432.038 431.238 491.156 382.522 495.453 317.514C499.75 252.505 448.443 183.041 361.466 123.281C274.547 63.5621 152.256 13.727 15.1997 -12.0254Z" stroke="url(#paint77_linear_8965_1492)" stroke-width="1.55132"/>
<path d="M11.6067 -12.667C-125.61 -35.668 -251.149 -29.886 -343.186 -1.9773C-435.284 25.9498 -493.57 75.9338 -496.879 141.12C-500.187 206.307 -447.915 274.823 -360.182 332.894C-272.507 390.927 -149.668 438.344 -12.4517 461.345C124.765 484.346 250.304 478.564 342.341 450.655C434.439 422.728 492.725 372.744 496.034 307.558C499.342 242.371 447.07 173.855 359.337 115.783C271.662 57.7504 148.823 10.334 11.6067 -12.667Z" stroke="url(#paint78_linear_8965_1492)" stroke-width="1.55132"/>
<path d="M8.00881 -13.235C-129.326 -33.4776 -254.568 -25.1356 -346.031 4.68199C-437.552 34.5189 -494.988 85.7555 -497.308 151.1C-499.627 216.445 -446.406 283.992 -357.944 340.358C-269.539 396.687 -146.19 441.67 -8.85467 461.913C128.48 482.155 253.722 473.813 345.185 443.996C436.706 414.159 494.143 362.922 496.462 297.577C498.781 232.233 445.56 164.686 357.098 108.32C268.693 51.9909 145.344 7.00754 8.00881 -13.235Z" stroke="url(#paint79_linear_8965_1492)" stroke-width="1.55132"/>
<path d="M4.4091 -13.7299C-133.002 -31.208 -257.91 -20.3085 -348.769 11.4088C-439.687 43.1464 -496.255 95.62 -497.584 161.103C-498.913 226.586 -444.76 293.143 -355.596 347.786C-266.488 402.394 -142.666 444.931 -5.25419 462.409C132.157 479.887 257.065 468.987 347.924 437.27C438.841 405.533 495.41 353.059 496.739 287.576C498.068 222.093 443.915 155.536 354.751 100.893C265.643 46.2847 141.821 3.74808 4.4091 -13.7299Z" stroke="url(#paint80_linear_8965_1492)" stroke-width="1.55132"/>
<path d="M0.807253 -14.1542C-136.639 -28.8624 -261.173 -15.4089 -351.402 18.1985C-441.688 51.8271 -497.372 105.522 -497.711 171.123C-498.049 236.724 -442.98 302.271 -353.14 355.175C-263.357 408.045 -139.099 448.122 -1.65284 462.831C135.793 477.539 260.328 464.085 350.557 430.478C440.843 396.849 496.527 343.154 496.865 277.553C497.203 211.952 442.134 146.405 352.295 93.5014C262.512 40.6309 138.253 0.553921 0.807253 -14.1542Z" stroke="url(#paint81_linear_8965_1492)" stroke-width="1.55132"/>
<path d="M-2.79482 -14.5041C-140.234 -26.4379 -264.357 -10.4344 -353.928 25.0529C-443.555 60.5621 -498.337 115.462 -497.685 181.161C-497.033 246.861 -441.064 311.377 -350.577 362.525C-260.146 413.642 -135.49 451.247 1.94911 463.181C139.388 475.115 263.512 459.112 353.083 423.624C442.71 388.115 497.492 333.215 496.839 267.516C496.187 201.817 440.219 137.3 349.731 86.1518C259.3 35.0349 134.644 -2.57019 -2.79482 -14.5041Z" stroke="url(#paint82_linear_8965_1492)" stroke-width="1.55132"/>
<path d="M-6.3961 -14.781C-143.786 -23.937 -267.461 -5.38833 -356.347 31.9679C-445.288 69.347 -499.151 125.435 -497.508 191.212C-495.865 256.99 -439.015 320.456 -347.907 369.834C-256.855 419.181 -131.84 454.303 5.55047 463.459C142.94 472.615 266.615 454.067 355.501 416.71C444.442 379.331 498.305 323.243 496.662 257.466C495.019 191.688 438.169 128.222 347.061 78.8444C256.009 29.4968 130.994 -5.62509 -6.3961 -14.781Z" stroke="url(#paint83_linear_8965_1492)" stroke-width="1.55132"/>
<path d="M-9.99547 -14.9852C-147.295 -21.3605 -270.483 -0.272392 -358.657 38.9414C-446.884 78.179 -499.813 135.438 -497.18 201.273C-494.546 267.109 -436.831 329.505 -345.131 377.098C-253.486 424.661 -128.149 457.289 9.15017 463.664C146.449 470.039 269.638 448.951 357.812 409.738C446.039 370.5 498.968 313.241 496.334 247.406C493.701 181.57 435.986 119.174 344.286 71.5814C252.641 24.018 127.304 -8.60996 -9.99547 -14.9852Z" stroke="url(#paint84_linear_8965_1492)" stroke-width="1.55132"/>
<path d="M-13.5922 -15.117C-150.759 -18.7097 -273.424 4.91137 -360.858 45.9708C-448.346 87.0549 -500.323 145.468 -496.7 211.341C-493.077 277.214 -434.516 338.522 -342.25 384.314C-250.041 430.079 -124.42 460.203 12.7467 463.796C149.913 467.388 272.578 443.767 360.013 402.708C447.5 361.624 499.477 303.211 495.855 237.338C492.232 171.465 433.67 110.157 341.405 64.3644C249.195 18.5997 123.574 -11.5244 -13.5922 -15.117Z" stroke="url(#paint85_linear_8965_1492)" stroke-width="1.55132"/>
<path d="M-17.1848 -15.1741C-154.177 -15.9831 -276.281 10.1638 -362.95 53.0563C-449.671 95.9744 -500.681 155.523 -496.069 221.414C-491.458 287.305 -432.067 347.505 -339.266 391.483C-246.519 435.436 -120.653 463.047 16.3394 463.856C153.332 464.665 275.435 438.518 362.104 395.625C448.825 352.707 499.835 293.158 495.224 227.268C490.613 161.377 431.222 101.176 338.42 57.198C245.673 13.246 119.807 -14.3651 -17.1848 -15.1741Z" stroke="url(#paint86_linear_8965_1492)" stroke-width="1.55132"/>
<path d="M-20.7721 -15.1603C-157.548 -13.1853 -279.054 15.4793 -364.931 60.1919C-450.859 104.931 -500.886 165.598 -495.288 231.486C-489.689 297.374 -429.488 356.449 -336.177 398.6C-242.922 440.726 -116.849 465.816 19.9273 463.841C156.703 461.866 278.209 433.201 364.086 388.488C450.014 343.749 500.041 283.083 494.443 217.195C488.845 151.307 428.643 92.2314 335.333 50.0806C242.077 7.95446 116.004 -17.1353 -20.7721 -15.1603Z" stroke="url(#paint87_linear_8965_1492)" stroke-width="1.55132"/>
<path d="M-24.3537 -15.0743C-160.872 -10.316 -281.742 20.8577 -366.801 67.3768C-451.91 113.923 -500.939 175.689 -494.356 241.554C-487.772 307.42 -426.778 365.351 -332.987 405.662C-239.251 445.949 -113.01 468.51 23.5085 463.752C160.027 458.993 280.897 427.82 365.956 381.301C451.065 334.754 500.094 272.988 493.511 207.123C486.927 141.258 425.933 83.3263 332.142 43.0155C238.406 2.72821 112.165 -19.8325 -24.3537 -15.0743Z" stroke="url(#paint88_linear_8965_1492)" stroke-width="1.55132"/>
<path d="M-27.9284 -14.9126C-164.147 -7.37247 -284.346 26.3007 -368.561 74.6121C-452.825 122.951 -500.841 185.798 -493.274 251.621C-485.707 317.443 -423.939 374.213 -329.697 412.671C-235.509 451.108 -109.137 471.133 27.0821 463.592C163.301 456.052 283.499 422.379 367.715 374.068C451.978 325.728 499.994 262.881 492.427 197.059C484.86 131.237 423.092 74.467 328.85 36.0085C234.662 -2.4278 108.291 -22.4527 -27.9284 -14.9126Z" stroke="url(#paint89_linear_8965_1492)" stroke-width="1.55132"/>
<path d="M-31.4934 -14.6796C-167.372 -4.35996 -286.862 31.8025 -370.207 81.8915C-453.6 132.009 -500.589 195.918 -492.04 261.677C-483.492 327.436 -420.969 383.027 -326.304 419.622C-231.693 456.195 -105.23 473.678 30.6485 463.359C166.527 453.039 286.017 416.877 369.362 366.788C452.755 316.67 499.744 252.761 491.196 187.002C482.647 121.243 420.125 65.6519 325.459 29.0573C230.848 -7.51626 104.385 -24.9992 -31.4934 -14.6796Z" stroke="url(#paint90_linear_8965_1492)" stroke-width="1.55132"/>
<path d="M-35.0499 -14.3731C-170.546 -1.2771 -289.291 37.3636 -371.742 89.2149C-454.239 141.096 -500.185 206.046 -490.658 271.722C-481.132 337.398 -417.873 391.794 -322.814 426.513C-227.808 461.213 -101.292 476.149 34.2046 463.053C169.701 449.957 288.446 411.316 370.896 359.465C453.394 307.584 499.34 242.633 489.813 176.957C480.286 111.282 417.028 56.8859 321.968 22.1664C226.963 -12.5334 100.446 -27.4691 -35.0499 -14.3731Z" stroke="url(#paint91_linear_8965_1492)" stroke-width="1.55132"/>
<path d="M-38.5955 -13.9944C-173.668 1.87401 -291.632 42.9812 -373.163 96.579C-454.739 150.207 -499.629 216.18 -489.127 281.752C-478.624 347.325 -414.649 400.508 -319.225 433.342C-223.854 466.158 -97.3224 478.542 37.7505 462.673C172.823 446.805 290.787 405.698 372.318 352.1C453.894 298.472 498.784 232.498 488.282 166.926C477.779 101.354 413.804 48.1705 318.379 15.3366C223.009 -17.4788 96.4773 -29.8627 -38.5955 -13.9944Z" stroke="url(#paint92_linear_8965_1492)" stroke-width="1.55132"/>
<path d="M-42.1301 -13.5441C-176.739 5.0918 -293.885 48.653 -374.471 103.981C-455.102 159.34 -498.922 226.316 -487.447 291.764C-475.972 357.213 -411.3 409.168 -315.539 440.106C-219.832 471.028 -93.3243 480.856 41.2841 462.22C175.893 443.584 293.039 400.023 373.625 344.695C454.256 289.336 498.076 222.36 486.601 156.912C475.126 91.4632 410.454 39.5078 314.693 8.56941C218.986 -22.3516 92.4783 -32.18 -42.1301 -13.5441Z" stroke="url(#paint93_linear_8965_1492)" stroke-width="1.55132"/>
<path d="M-45.6515 -13.0183C-179.754 8.37946 -296.049 54.3814 -375.665 111.423C-455.326 168.496 -498.062 236.454 -485.618 301.758C-473.175 367.063 -407.826 417.774 -311.757 446.808C-215.743 475.825 -89.2973 483.095 44.8057 461.697C178.909 440.3 295.203 394.298 374.819 337.256C454.48 280.183 497.216 212.226 484.773 146.921C472.329 81.6158 406.98 30.9047 310.911 1.87109C214.897 -27.1462 88.4515 -34.4161 -45.6515 -13.0183Z" stroke="url(#paint94_linear_8965_1492)" stroke-width="1.55132"/>
<path d="M-49.1595 -12.4212C-182.716 11.732 -298.123 60.1606 -376.745 118.898C-455.412 177.668 -497.052 246.587 -483.643 311.728C-470.234 376.869 -404.228 426.321 -307.881 453.44C-211.588 480.545 -85.2439 485.254 48.3129 461.101C181.87 436.948 297.276 388.519 375.899 329.782C454.565 271.012 496.205 202.093 482.796 136.952C469.387 71.8109 403.381 22.3594 307.035 -4.76038C210.742 -31.8651 84.3972 -36.5743 -49.1595 -12.4212Z" stroke="url(#paint95_linear_8965_1492)" stroke-width="1.55132"/>
<path d="M-52.652 -11.7541C-185.622 15.147 -300.105 65.9875 -377.71 126.403C-455.358 186.852 -495.889 256.711 -481.519 321.669C-467.149 386.626 -400.506 434.803 -303.911 460.001C-207.369 485.185 -81.1639 487.332 51.806 460.431C184.776 433.53 299.259 382.689 376.864 322.274C454.512 261.824 495.043 191.966 480.673 127.008C466.303 62.0504 399.66 13.8737 303.065 -11.3242C206.523 -36.5082 80.3179 -38.6552 -52.652 -11.7541Z" stroke="url(#paint96_linear_8965_1492)" stroke-width="1.55132"/>
<path d="M-56.1284 -11.0122C-188.471 18.6287 -301.996 71.8657 -378.56 133.941C-455.167 196.051 -494.576 266.829 -479.249 331.583C-463.922 396.337 -396.663 443.224 -299.848 466.492C-203.087 489.748 -77.0592 489.332 55.2833 459.691C187.626 430.05 301.151 376.813 377.715 314.738C454.322 252.628 493.73 181.85 478.404 117.096C463.077 52.3422 395.818 5.45493 299.003 -17.8134C202.242 -41.0689 76.2141 -40.6531 -56.1284 -11.0122Z" stroke="url(#paint97_linear_8965_1492)" stroke-width="1.55132"/>
<path d="M-59.588 -10.201C-191.263 22.1707 -303.796 77.7879 -379.295 141.504C-454.837 205.255 -493.112 276.931 -476.833 341.461C-460.554 405.992 -392.699 451.576 -295.694 472.907C-198.743 494.227 -72.9313 491.249 58.7436 458.877C190.419 426.505 302.951 370.888 378.451 307.172C453.992 243.421 492.267 171.745 475.989 107.215C459.71 42.6841 391.855 -2.89946 294.85 -24.2312C197.898 -45.5511 72.087 -42.5726 -59.588 -10.201Z" stroke="url(#paint98_linear_8965_1492)" stroke-width="1.55132"/>
<path d="M-63.03 -9.31576C-193.997 25.7768 -305.503 83.7574 -379.915 149.095C-454.369 214.469 -491.498 287.02 -474.273 351.307C-457.047 415.594 -388.616 459.86 -291.451 479.249C-194.339 498.627 -68.7819 493.087 62.1853 457.994C193.153 422.902 304.658 364.921 379.071 299.583C453.524 234.21 490.654 161.659 473.428 97.3714C456.202 33.084 387.772 -11.182 290.606 -30.5707C193.495 -49.9486 67.9372 -44.4083 -63.03 -9.31576Z" stroke="url(#paint99_linear_8965_1492)" stroke-width="1.55132"/>
<defs>
<linearGradient id="paint0_linear_8965_1492" x1="-120.015" y1="232.216" x2="121.785" y2="200.783" gradientUnits="userSpaceOnUse">
<stop stop-color="#AC6700"/>
<stop offset="1" stop-color="#ED5A00"/>
</linearGradient>
<linearGradient id="paint1_linear_8965_1492" x1="-119.697" y1="234.657" x2="121.431" y2="199.679" gradientUnits="userSpaceOnUse">
<stop stop-color="#AC6700"/>
<stop offset="1" stop-color="#ED5A00"/>
</linearGradient>
<linearGradient id="paint2_linear_8965_1492" x1="-119.342" y1="237.097" x2="121.084" y2="198.589" gradientUnits="userSpaceOnUse">
<stop stop-color="#AC6700"/>
<stop offset="1" stop-color="#ED5A00"/>
</linearGradient>
<linearGradient id="paint3_linear_8965_1492" x1="-118.953" y1="239.532" x2="120.742" y2="197.507" gradientUnits="userSpaceOnUse">
<stop stop-color="#AC6700"/>
<stop offset="1" stop-color="#ED5A00"/>
</linearGradient>
<linearGradient id="paint4_linear_8965_1492" x1="-118.526" y1="241.962" x2="120.407" y2="196.433" gradientUnits="userSpaceOnUse">
<stop stop-color="#AC6700"/>
<stop offset="1" stop-color="#ED5A00"/>
</linearGradient>
<linearGradient id="paint5_linear_8965_1492" x1="-118.064" y1="244.387" x2="120.079" y2="195.366" gradientUnits="userSpaceOnUse">
<stop stop-color="#AC6700"/>
<stop offset="1" stop-color="#ED5A00"/>
</linearGradient>
<linearGradient id="paint6_linear_8965_1492" x1="-117.565" y1="246.806" x2="119.757" y2="194.305" gradientUnits="userSpaceOnUse">
<stop stop-color="#AC6700"/>
<stop offset="1" stop-color="#ED5A00"/>
</linearGradient>
<linearGradient id="paint7_linear_8965_1492" x1="-117.031" y1="249.219" x2="119.442" y2="193.248" gradientUnits="userSpaceOnUse">
<stop stop-color="#AC6700"/>
<stop offset="1" stop-color="#ED5A00"/>
</linearGradient>
<linearGradient id="paint8_linear_8965_1492" x1="-116.461" y1="251.622" x2="119.132" y2="192.19" gradientUnits="userSpaceOnUse">
<stop stop-color="#AC6700"/>
<stop offset="1" stop-color="#ED5A00"/>
</linearGradient>
<linearGradient id="paint9_linear_8965_1492" x1="-115.856" y1="254.019" x2="118.828" y2="191.136" gradientUnits="userSpaceOnUse">
<stop stop-color="#AC6700"/>
<stop offset="1" stop-color="#ED5A00"/>
</linearGradient>
<linearGradient id="paint10_linear_8965_1492" x1="-115.217" y1="256.405" x2="118.529" y2="190.078" gradientUnits="userSpaceOnUse">
<stop stop-color="#AC6700"/>
<stop offset="1" stop-color="#ED5A00"/>
</linearGradient>
<linearGradient id="paint11_linear_8965_1492" x1="-114.542" y1="258.783" x2="118.235" y2="189.019" gradientUnits="userSpaceOnUse">
<stop stop-color="#AC6700"/>
<stop offset="1" stop-color="#ED5A00"/>
</linearGradient>
<linearGradient id="paint12_linear_8965_1492" x1="-113.831" y1="261.15" x2="117.946" y2="187.956" gradientUnits="userSpaceOnUse">
<stop stop-color="#AC6700"/>
<stop offset="1" stop-color="#ED5A00"/>
</linearGradient>
<linearGradient id="paint13_linear_8965_1492" x1="-113.087" y1="263.505" x2="117.661" y2="186.887" gradientUnits="userSpaceOnUse">
<stop stop-color="#AC6700"/>
<stop offset="1" stop-color="#ED5A00"/>
</linearGradient>
<linearGradient id="paint14_linear_8965_1492" x1="-112.309" y1="265.849" x2="117.378" y2="185.811" gradientUnits="userSpaceOnUse">
<stop stop-color="#AC6700"/>
<stop offset="1" stop-color="#ED5A00"/>
</linearGradient>
<linearGradient id="paint15_linear_8965_1492" x1="-111.496" y1="268.181" x2="117.098" y2="184.728" gradientUnits="userSpaceOnUse">
<stop stop-color="#AC6700"/>
<stop offset="1" stop-color="#ED5A00"/>
</linearGradient>
<linearGradient id="paint16_linear_8965_1492" x1="-110.649" y1="270.497" x2="116.821" y2="183.633" gradientUnits="userSpaceOnUse">
<stop stop-color="#AC6700"/>
<stop offset="1" stop-color="#ED5A00"/>
</linearGradient>
<linearGradient id="paint17_linear_8965_1492" x1="-109.77" y1="272.799" x2="116.543" y2="182.527" gradientUnits="userSpaceOnUse">
<stop stop-color="#AC6700"/>
<stop offset="1" stop-color="#ED5A00"/>
</linearGradient>
<linearGradient id="paint18_linear_8965_1492" x1="-108.856" y1="275.091" x2="116.265" y2="181.412" gradientUnits="userSpaceOnUse">
<stop stop-color="#AC6700"/>
<stop offset="1" stop-color="#ED5A00"/>
</linearGradient>
<linearGradient id="paint19_linear_8965_1492" x1="-107.909" y1="277.363" x2="115.987" y2="180.28" gradientUnits="userSpaceOnUse">
<stop stop-color="#AC6700"/>
<stop offset="1" stop-color="#ED5A00"/>
</linearGradient>
<linearGradient id="paint20_linear_8965_1492" x1="-106.931" y1="279.619" x2="115.706" y2="179.133" gradientUnits="userSpaceOnUse">
<stop stop-color="#AC6700"/>
<stop offset="1" stop-color="#ED5A00"/>
</linearGradient>
<linearGradient id="paint21_linear_8965_1492" x1="-105.919" y1="281.861" x2="115.422" y2="177.973" gradientUnits="userSpaceOnUse">
<stop stop-color="#AC6700"/>
<stop offset="1" stop-color="#ED5A00"/>
</linearGradient>
<linearGradient id="paint22_linear_8965_1492" x1="-104.875" y1="284.084" x2="115.134" y2="176.794" gradientUnits="userSpaceOnUse">
<stop stop-color="#AC6700"/>
<stop offset="1" stop-color="#ED5A00"/>
</linearGradient>
<linearGradient id="paint23_linear_8965_1492" x1="-103.799" y1="286.288" x2="114.84" y2="175.596" gradientUnits="userSpaceOnUse">
<stop stop-color="#AC6700"/>
<stop offset="1" stop-color="#ED5A00"/>
</linearGradient>
<linearGradient id="paint24_linear_8965_1492" x1="-102.693" y1="288.474" x2="114.538" y2="174.38" gradientUnits="userSpaceOnUse">
<stop stop-color="#AC6700"/>
<stop offset="1" stop-color="#ED5A00"/>
</linearGradient>
<linearGradient id="paint25_linear_8965_1492" x1="-101.554" y1="290.64" x2="114.23" y2="173.142" gradientUnits="userSpaceOnUse">
<stop stop-color="#AC6700"/>
<stop offset="1" stop-color="#ED5A00"/>
</linearGradient>
<linearGradient id="paint26_linear_8965_1492" x1="-100.385" y1="292.787" x2="113.91" y2="171.885" gradientUnits="userSpaceOnUse">
<stop stop-color="#AC6700"/>
<stop offset="1" stop-color="#ED5A00"/>
</linearGradient>
<linearGradient id="paint27_linear_8965_1492" x1="-99.1854" y1="294.913" x2="113.58" y2="170.605" gradientUnits="userSpaceOnUse">
<stop stop-color="#AC6700"/>
<stop offset="1" stop-color="#ED5A00"/>
</linearGradient>
<linearGradient id="paint28_linear_8965_1492" x1="-97.9561" y1="297.016" x2="113.237" y2="169.301" gradientUnits="userSpaceOnUse">
<stop stop-color="#AC6700"/>
<stop offset="1" stop-color="#ED5A00"/>
</linearGradient>
<linearGradient id="paint29_linear_8965_1492" x1="-96.6971" y1="299.098" x2="112.879" y2="167.974" gradientUnits="userSpaceOnUse">
<stop stop-color="#AC6700"/>
<stop offset="1" stop-color="#ED5A00"/>
</linearGradient>
<linearGradient id="paint30_linear_8965_1492" x1="-95.4081" y1="301.156" x2="112.505" y2="166.622" gradientUnits="userSpaceOnUse">
<stop stop-color="#AC6700"/>
<stop offset="1" stop-color="#ED5A00"/>
</linearGradient>
<linearGradient id="paint31_linear_8965_1492" x1="-94.0904" y1="303.192" x2="112.114" y2="165.246" gradientUnits="userSpaceOnUse">
<stop stop-color="#AC6700"/>
<stop offset="1" stop-color="#ED5A00"/>
</linearGradient>
<linearGradient id="paint32_linear_8965_1492" x1="-92.7448" y1="305.204" x2="111.702" y2="163.844" gradientUnits="userSpaceOnUse">
<stop stop-color="#AC6700"/>
<stop offset="1" stop-color="#ED5A00"/>
</linearGradient>
<linearGradient id="paint33_linear_8965_1492" x1="-91.3699" y1="307.189" x2="111.27" y2="162.416" gradientUnits="userSpaceOnUse">
<stop stop-color="#AC6700"/>
<stop offset="1" stop-color="#ED5A00"/>
</linearGradient>
<linearGradient id="paint34_linear_8965_1492" x1="-89.9687" y1="309.151" x2="110.814" y2="160.962" gradientUnits="userSpaceOnUse">
<stop stop-color="#AC6700"/>
<stop offset="1" stop-color="#ED5A00"/>
</linearGradient>
<linearGradient id="paint35_linear_8965_1492" x1="-88.5395" y1="311.087" x2="110.333" y2="159.481" gradientUnits="userSpaceOnUse">
<stop stop-color="#AC6700"/>
<stop offset="1" stop-color="#ED5A00"/>
</linearGradient>
<linearGradient id="paint36_linear_8965_1492" x1="-87.0834" y1="312.996" x2="109.825" y2="157.973" gradientUnits="userSpaceOnUse">
<stop stop-color="#AC6700"/>
<stop offset="1" stop-color="#ED5A00"/>
</linearGradient>
<linearGradient id="paint37_linear_8965_1492" x1="-85.6012" y1="314.879" x2="109.287" y2="156.438" gradientUnits="userSpaceOnUse">
<stop stop-color="#AC6700"/>
<stop offset="1" stop-color="#ED5A00"/>
</linearGradient>
<linearGradient id="paint38_linear_8965_1492" x1="-84.0925" y1="316.733" x2="108.719" y2="154.877" gradientUnits="userSpaceOnUse">
<stop stop-color="#AC6700"/>
<stop offset="1" stop-color="#ED5A00"/>
</linearGradient>
<linearGradient id="paint39_linear_8965_1492" x1="-82.5587" y1="318.56" x2="108.117" y2="153.289" gradientUnits="userSpaceOnUse">
<stop stop-color="#AC6700"/>
<stop offset="1" stop-color="#ED5A00"/>
</linearGradient>
<linearGradient id="paint40_linear_8965_1492" x1="-81.0001" y1="320.359" x2="107.48" y2="151.674" gradientUnits="userSpaceOnUse">
<stop stop-color="#AC6700"/>
<stop offset="1" stop-color="#ED5A00"/>
</linearGradient>
<linearGradient id="paint41_linear_8965_1492" x1="-79.4154" y1="322.125" x2="106.806" y2="150.03" gradientUnits="userSpaceOnUse">
<stop stop-color="#AC6700"/>
<stop offset="1" stop-color="#ED5A00"/>
</linearGradient>
<linearGradient id="paint42_linear_8965_1492" x1="-77.8091" y1="323.866" x2="106.09" y2="148.365" gradientUnits="userSpaceOnUse">
<stop stop-color="#AC6700"/>
<stop offset="1" stop-color="#ED5A00"/>
</linearGradient>
<linearGradient id="paint43_linear_8965_1492" x1="-76.177" y1="325.574" x2="105.335" y2="146.672" gradientUnits="userSpaceOnUse">
<stop stop-color="#AC6700"/>
<stop offset="1" stop-color="#ED5A00"/>
</linearGradient>
<linearGradient id="paint44_linear_8965_1492" x1="-74.523" y1="327.25" x2="104.535" y2="144.953" gradientUnits="userSpaceOnUse">
<stop stop-color="#AC6700"/>
<stop offset="1" stop-color="#ED5A00"/>
</linearGradient>
<linearGradient id="paint45_linear_8965_1492" x1="-72.847" y1="328.897" x2="103.687" y2="143.213" gradientUnits="userSpaceOnUse">
<stop stop-color="#AC6700"/>
<stop offset="1" stop-color="#ED5A00"/>
</linearGradient>
<linearGradient id="paint46_linear_8965_1492" x1="-71.1483" y1="330.511" x2="102.792" y2="141.448" gradientUnits="userSpaceOnUse">
<stop stop-color="#AC6700"/>
<stop offset="1" stop-color="#ED5A00"/>
</linearGradient>
<linearGradient id="paint47_linear_8965_1492" x1="-69.4276" y1="332.095" x2="101.847" y2="139.663" gradientUnits="userSpaceOnUse">
<stop stop-color="#AC6700"/>
<stop offset="1" stop-color="#ED5A00"/>
</linearGradient>
<linearGradient id="paint48_linear_8965_1492" x1="-67.6859" y1="333.643" x2="100.848" y2="137.855" gradientUnits="userSpaceOnUse">
<stop stop-color="#AC6700"/>
<stop offset="1" stop-color="#ED5A00"/>
</linearGradient>
<linearGradient id="paint49_linear_8965_1492" x1="-65.9255" y1="335.159" x2="99.7933" y2="136.028" gradientUnits="userSpaceOnUse">
<stop stop-color="#AC6700"/>
<stop offset="1" stop-color="#ED5A00"/>
</linearGradient>
<linearGradient id="paint50_linear_8965_1492" x1="-64.1435" y1="336.641" x2="98.6826" y2="134.183" gradientUnits="userSpaceOnUse">
<stop stop-color="#AC6700"/>
<stop offset="1" stop-color="#ED5A00"/>
</linearGradient>
<linearGradient id="paint51_linear_8965_1492" x1="-62.3424" y1="338.09" x2="97.5122" y2="132.323" gradientUnits="userSpaceOnUse">
<stop stop-color="#AC6700"/>
<stop offset="1" stop-color="#ED5A00"/>
</linearGradient>
<linearGradient id="paint52_linear_8965_1492" x1="-60.5225" y1="339.503" x2="96.2802" y2="130.447" gradientUnits="userSpaceOnUse">
<stop stop-color="#AC6700"/>
<stop offset="1" stop-color="#ED5A00"/>
</linearGradient>
<linearGradient id="paint53_linear_8965_1492" x1="-58.6841" y1="340.882" x2="94.9849" y2="128.559" gradientUnits="userSpaceOnUse">
<stop stop-color="#AC6700"/>
<stop offset="1" stop-color="#ED5A00"/>
</linearGradient>
<linearGradient id="paint54_linear_8965_1492" x1="-56.8274" y1="342.224" x2="93.6248" y2="126.658" gradientUnits="userSpaceOnUse">
<stop stop-color="#AC6700"/>
<stop offset="1" stop-color="#ED5A00"/>
</linearGradient>
<linearGradient id="paint55_linear_8965_1492" x1="-54.9546" y1="343.531" x2="92.1959" y2="124.75" gradientUnits="userSpaceOnUse">
<stop stop-color="#AC6700"/>
<stop offset="1" stop-color="#ED5A00"/>
</linearGradient>
<linearGradient id="paint56_linear_8965_1492" x1="-53.0646" y1="344.801" x2="90.6984" y2="122.834" gradientUnits="userSpaceOnUse">
<stop stop-color="#AC6700"/>
<stop offset="1" stop-color="#ED5A00"/>
</linearGradient>
<linearGradient id="paint57_linear_8965_1492" x1="-51.1583" y1="346.036" x2="89.1299" y2="120.916" gradientUnits="userSpaceOnUse">
<stop stop-color="#AC6700"/>
<stop offset="1" stop-color="#ED5A00"/>
</linearGradient>
<linearGradient id="paint58_linear_8965_1492" x1="-49.2369" y1="347.233" x2="87.4883" y2="118.996" gradientUnits="userSpaceOnUse">
<stop stop-color="#AC6700"/>
<stop offset="1" stop-color="#ED5A00"/>
</linearGradient>
<linearGradient id="paint59_linear_8965_1492" x1="-47.3011" y1="348.391" x2="85.7719" y2="117.077" gradientUnits="userSpaceOnUse">
<stop stop-color="#AC6700"/>
<stop offset="1" stop-color="#ED5A00"/>
</linearGradient>
<linearGradient id="paint60_linear_8965_1492" x1="-45.3506" y1="349.515" x2="83.9799" y2="115.164" gradientUnits="userSpaceOnUse">
<stop stop-color="#AC6700"/>
<stop offset="1" stop-color="#ED5A00"/>
</linearGradient>
<linearGradient id="paint61_linear_8965_1492" x1="-43.3867" y1="350.598" x2="82.1104" y2="113.257" gradientUnits="userSpaceOnUse">
<stop stop-color="#AC6700"/>
<stop offset="1" stop-color="#ED5A00"/>
</linearGradient>
<linearGradient id="paint62_linear_8965_1492" x1="-41.409" y1="351.641" x2="80.1632" y2="111.358" gradientUnits="userSpaceOnUse">
<stop stop-color="#AC6700"/>
<stop offset="1" stop-color="#ED5A00"/>
</linearGradient>
<linearGradient id="paint63_linear_8965_1492" x1="-39.4192" y1="352.647" x2="78.136" y2="109.476" gradientUnits="userSpaceOnUse">
<stop stop-color="#AC6700"/>
<stop offset="1" stop-color="#ED5A00"/>
</linearGradient>
<linearGradient id="paint64_linear_8965_1492" x1="-37.417" y1="353.615" x2="76.0287" y2="107.611" gradientUnits="userSpaceOnUse">
<stop stop-color="#AC6700"/>
<stop offset="1" stop-color="#ED5A00"/>
</linearGradient>
<linearGradient id="paint65_linear_8965_1492" x1="-35.4051" y1="354.544" x2="73.8387" y2="105.768" gradientUnits="userSpaceOnUse">
<stop stop-color="#AC6700"/>
<stop offset="1" stop-color="#ED5A00"/>
</linearGradient>
<linearGradient id="paint66_linear_8965_1492" x1="-33.3805" y1="355.432" x2="71.5689" y2="103.948" gradientUnits="userSpaceOnUse">
<stop stop-color="#AC6700"/>
<stop offset="1" stop-color="#ED5A00"/>
</linearGradient>
<linearGradient id="paint67_linear_8965_1492" x1="-31.3477" y1="356.279" x2="69.2151" y2="102.155" gradientUnits="userSpaceOnUse">
<stop stop-color="#AC6700"/>
<stop offset="1" stop-color="#ED5A00"/>
</linearGradient>
<linearGradient id="paint68_linear_8965_1492" x1="-29.3043" y1="357.087" x2="66.7801" y2="100.395" gradientUnits="userSpaceOnUse">
<stop stop-color="#AC6700"/>
<stop offset="1" stop-color="#ED5A00"/>
</linearGradient>
<linearGradient id="paint69_linear_8965_1492" x1="-27.2529" y1="357.856" x2="64.2618" y2="98.6729" gradientUnits="userSpaceOnUse">
<stop stop-color="#AC6700"/>
<stop offset="1" stop-color="#ED5A00"/>
</linearGradient>
<linearGradient id="paint70_linear_8965_1492" x1="-25.1923" y1="358.582" x2="61.6625" y2="96.9889" gradientUnits="userSpaceOnUse">
<stop stop-color="#AC6700"/>
<stop offset="1" stop-color="#ED5A00"/>
</linearGradient>
<linearGradient id="paint71_linear_8965_1492" x1="-23.1247" y1="359.268" x2="58.9809" y2="95.3494" gradientUnits="userSpaceOnUse">
<stop stop-color="#AC6700"/>
<stop offset="1" stop-color="#ED5A00"/>
</linearGradient>
<linearGradient id="paint72_linear_8965_1492" x1="-21.0506" y1="359.914" x2="56.2178" y2="93.7588" gradientUnits="userSpaceOnUse">
<stop stop-color="#AC6700"/>
<stop offset="1" stop-color="#ED5A00"/>
</linearGradient>
<linearGradient id="paint73_linear_8965_1492" x1="-18.9696" y1="360.515" x2="53.3756" y2="92.2181" gradientUnits="userSpaceOnUse">
<stop stop-color="#AC6700"/>
<stop offset="1" stop-color="#ED5A00"/>
</linearGradient>
<linearGradient id="paint74_linear_8965_1492" x1="-16.8832" y1="361.079" x2="50.4541" y2="90.7379" gradientUnits="userSpaceOnUse">
<stop stop-color="#AC6700"/>
<stop offset="1" stop-color="#ED5A00"/>
</linearGradient>
<linearGradient id="paint75_linear_8965_1492" x1="-14.7915" y1="361.598" x2="47.4557" y2="89.3159" gradientUnits="userSpaceOnUse">
<stop stop-color="#AC6700"/>
<stop offset="1" stop-color="#ED5A00"/>
</linearGradient>
<linearGradient id="paint76_linear_8965_1492" x1="-12.6959" y1="362.078" x2="44.3811" y2="87.9608" gradientUnits="userSpaceOnUse">
<stop stop-color="#AC6700"/>
<stop offset="1" stop-color="#ED5A00"/>
</linearGradient>
<linearGradient id="paint77_linear_8965_1492" x1="-10.5972" y1="362.516" x2="41.2323" y2="86.6749" gradientUnits="userSpaceOnUse">
<stop stop-color="#AC6700"/>
<stop offset="1" stop-color="#ED5A00"/>
</linearGradient>
<linearGradient id="paint78_linear_8965_1492" x1="-8.49378" y1="362.909" x2="38.0137" y2="85.4599" gradientUnits="userSpaceOnUse">
<stop stop-color="#AC6700"/>
<stop offset="1" stop-color="#ED5A00"/>
</linearGradient>
<linearGradient id="paint79_linear_8965_1492" x1="-6.38913" y1="363.261" x2="34.7251" y2="84.3235" gradientUnits="userSpaceOnUse">
<stop stop-color="#AC6700"/>
<stop offset="1" stop-color="#ED5A00"/>
</linearGradient>
<linearGradient id="paint80_linear_8965_1492" x1="-4.28183" y1="363.572" x2="31.3713" y2="83.2689" gradientUnits="userSpaceOnUse">
<stop stop-color="#AC6700"/>
<stop offset="1" stop-color="#ED5A00"/>
</linearGradient>
<linearGradient id="paint81_linear_8965_1492" x1="-2.17401" y1="363.838" x2="27.9538" y2="82.2974" gradientUnits="userSpaceOnUse">
<stop stop-color="#AC6700"/>
<stop offset="1" stop-color="#ED5A00"/>
</linearGradient>
<linearGradient id="paint82_linear_8965_1492" x1="-0.0654533" y1="364.064" x2="24.4769" y2="81.4163" gradientUnits="userSpaceOnUse">
<stop stop-color="#AC6700"/>
<stop offset="1" stop-color="#ED5A00"/>
</linearGradient>
<linearGradient id="paint83_linear_8965_1492" x1="2.04309" y1="364.247" x2="20.9441" y2="80.6274" gradientUnits="userSpaceOnUse">
<stop stop-color="#AC6700"/>
<stop offset="1" stop-color="#ED5A00"/>
</linearGradient>
<linearGradient id="paint84_linear_8965_1492" x1="4.15101" y1="364.387" x2="17.3591" y2="79.934" gradientUnits="userSpaceOnUse">
<stop stop-color="#AC6700"/>
<stop offset="1" stop-color="#ED5A00"/>
</linearGradient>
<linearGradient id="paint85_linear_8965_1492" x1="6.25724" y1="364.484" x2="13.7257" y2="79.3388" gradientUnits="userSpaceOnUse">
<stop stop-color="#AC6700"/>
<stop offset="1" stop-color="#ED5A00"/>
</linearGradient>
<linearGradient id="paint86_linear_8965_1492" x1="8.36164" y1="364.541" x2="10.0487" y2="78.847" gradientUnits="userSpaceOnUse">
<stop stop-color="#AC6700"/>
<stop offset="1" stop-color="#ED5A00"/>
</linearGradient>
<linearGradient id="paint87_linear_8965_1492" x1="10.4636" y1="364.552" x2="6.33254" y2="78.4574" gradientUnits="userSpaceOnUse">
<stop stop-color="#AC6700"/>
<stop offset="1" stop-color="#ED5A00"/>
</linearGradient>
<linearGradient id="paint88_linear_8965_1492" x1="12.5617" y1="364.52" x2="2.58133" y2="78.174" gradientUnits="userSpaceOnUse">
<stop stop-color="#AC6700"/>
<stop offset="1" stop-color="#ED5A00"/>
</linearGradient>
<linearGradient id="paint89_linear_8965_1492" x1="14.6556" y1="364.448" x2="-1.19996" y2="78.0024" gradientUnits="userSpaceOnUse">
<stop stop-color="#AC6700"/>
<stop offset="1" stop-color="#ED5A00"/>
</linearGradient>
<linearGradient id="paint90_linear_8965_1492" x1="16.7461" y1="364.331" x2="-5.00461" y2="77.9403" gradientUnits="userSpaceOnUse">
<stop stop-color="#AC6700"/>
<stop offset="1" stop-color="#ED5A00"/>
</linearGradient>
<linearGradient id="paint91_linear_8965_1492" x1="18.8304" y1="364.172" x2="-8.8296" y2="77.9915" gradientUnits="userSpaceOnUse">
<stop stop-color="#AC6700"/>
<stop offset="1" stop-color="#ED5A00"/>
</linearGradient>
<linearGradient id="paint92_linear_8965_1492" x1="20.9092" y1="363.971" x2="-12.6683" y2="78.1563" gradientUnits="userSpaceOnUse">
<stop stop-color="#AC6700"/>
<stop offset="1" stop-color="#ED5A00"/>
</linearGradient>
<linearGradient id="paint93_linear_8965_1492" x1="22.9809" y1="363.725" x2="-16.5162" y2="78.4351" gradientUnits="userSpaceOnUse">
<stop stop-color="#AC6700"/>
<stop offset="1" stop-color="#ED5A00"/>
</linearGradient>
<linearGradient id="paint94_linear_8965_1492" x1="25.0461" y1="363.44" x2="-20.3665" y2="78.8329" gradientUnits="userSpaceOnUse">
<stop stop-color="#AC6700"/>
<stop offset="1" stop-color="#ED5A00"/>
</linearGradient>
<linearGradient id="paint95_linear_8965_1492" x1="27.103" y1="363.112" x2="-24.2148" y2="79.3458" gradientUnits="userSpaceOnUse">
<stop stop-color="#AC6700"/>
<stop offset="1" stop-color="#ED5A00"/>
</linearGradient>
<linearGradient id="paint96_linear_8965_1492" x1="29.1522" y1="362.739" x2="-28.0542" y2="79.9727" gradientUnits="userSpaceOnUse">
<stop stop-color="#AC6700"/>
<stop offset="1" stop-color="#ED5A00"/>
</linearGradient>
<linearGradient id="paint97_linear_8965_1492" x1="31.1926" y1="362.327" x2="-31.8796" y2="80.7184" gradientUnits="userSpaceOnUse">
<stop stop-color="#AC6700"/>
<stop offset="1" stop-color="#ED5A00"/>
</linearGradient>
<linearGradient id="paint98_linear_8965_1492" x1="33.2232" y1="361.871" x2="-35.6856" y2="81.5771" gradientUnits="userSpaceOnUse">
<stop stop-color="#AC6700"/>
<stop offset="1" stop-color="#ED5A00"/>
</linearGradient>
<linearGradient id="paint99_linear_8965_1492" x1="35.2431" y1="361.375" x2="-39.467" y2="82.5527" gradientUnits="userSpaceOnUse">
<stop stop-color="#AC6700"/>
<stop offset="1" stop-color="#ED5A00"/>
</linearGradient>
</defs>
</svg>
